<?xml version="1.0" standalone="no"?>
<!DOCTYPE svg PUBLIC "-//W3C//DTD SVG 1.1//EN" "http://www.w3.org/Graphics/SVG/1.1/DTD/svg11.dtd" >
<svg>
<metadata>
Created by FontForge 20090914 at Tue Feb 25 15:17:53 2014
 By www-data
Copyright (c) House Industries/Brand Design Co. Inc,, 2003. All rights reserved.
</metadata>
<defs>
<font id="ChaletBook" horiz-adv-x="546" >
  <font-face 
    font-family="ChaletBook"
    font-weight="400"
    font-stretch="normal"
    units-per-em="1000"
    panose-1="2 0 0 0 0 0 0 0 0 0"
    ascent="800"
    descent="-200"
    x-height="515"
    cap-height="680"
    bbox="-80 -285.006 1479 1142"
    underline-thickness="8"
    underline-position="-51"
    unicode-range="U+0020-U+FB04"
  />
<missing-glyph horiz-adv-x="500" 
 />
    <glyph glyph-name="ff" unicode="ff" horiz-adv-x="613" 
d="M100 439l-75 0.00195312v76h75v22c0 33.333 4.66699 62.166 14 86.499s22 44.5 38 60.5s35 28 57 36s46 12 72 12c3.33301 0 6.66602 -0.166992 9.99902 -0.5s6.66602 -0.833008 9.99902 -1.5s7 -1 11 -1v-73c-4 0 -7.33301 0.333008 -10 1
c-3.33301 0 -6.33301 0.166992 -9 0.5s-5.66699 0.5 -9 0.5c-35.333 0 -61.166 -9.66699 -77.499 -29s-24.5 -50 -24.5 -92v-22h203v35c0 33.333 4.5 62.166 13.5 86.499s21.667 44.5 38 60.5s35.666 28 57.999 36s46.833 12 73.5 12c3.33301 0 7 -0.166992 11 -0.5
s7.66699 -0.833008 11 -1.5c4 -0.666992 8 -1 12 -1v-73c-4 0 -7.66699 0.333008 -11 1c-3.33301 0 -6.66602 0.166992 -9.99902 0.5s-6.66602 0.5 -9.99902 0.5c-36 0 -62.333 -9.66699 -79 -29s-25 -50 -25 -92v-35h128v-76h-128v-439h-82v439h-203v-439h-82v439z" />
    <glyph glyph-name="fi" unicode="fi" 
d="M100 439l-74.998 0.000976562v76h75v35c0 33.333 4.5 62.166 13.5 86.499s21.333 44.5 37 60.5s34.334 28 56.001 36s45.167 12 70.5 12c3.33301 0 6.66602 -0.166992 9.99902 -0.5s6.66602 -0.833008 9.99902 -1.5s6.66602 -1 9.99902 -1v-73
c-3.33301 0 -6.33301 0.333008 -9 1c-2.66699 0 -5.5 0.166992 -8.5 0.5s-6.16699 0.5 -9.5 0.5c-34 0 -58.833 -9.66699 -74.5 -29s-23.5 -50 -23.5 -92v-35h285v-515h-82v439h-203v-439h-82v439zM381.002 714.001h90v-101h-90v101z" />
    <glyph glyph-name="fl" unicode="fl" horiz-adv-x="547" 
d="M100 439l-74.998 0.000976562v76h75v35c0 33.333 4.33301 62.166 13 86.499s20.834 44.5 36.501 60.5s34.167 28 55.5 36s44.666 12 69.999 12c6 0 12.333 -0.666992 19 -2c2.66699 -0.666992 5.66699 -1 9 -1v-73c-2.66699 0 -5.33398 0.333008 -8.00098 1
c-2.66699 0 -5.33398 0.166992 -8.00098 0.5s-5.66699 0.5 -9 0.5c-34 0 -58.5 -9.66699 -73.5 -29s-22.5 -50 -22.5 -92v-35h121v-76h-121v-439h-82v439zM385.002 744.001h82v-744h-82v744z" />
    <glyph glyph-name="ffi" unicode="ffi" horiz-adv-x="831" 
d="M100 439l-74.9971 0.00195312v76h75v22c0 33.333 4.66699 62.166 14 86.499s22 44.5 38 60.5s35 28 57 36s46 12 72 12c3.33301 0 6.66602 -0.166992 9.99902 -0.5s6.66602 -0.833008 9.99902 -1.5s7 -1 11 -1v-73c-4 0 -7.33301 0.333008 -10 1
c-3.33301 0 -6.33301 0.166992 -9 0.5s-5.66699 0.5 -9 0.5c-35.333 0 -61.166 -9.66699 -77.499 -29s-24.5 -50 -24.5 -92v-22h203v35c0 33.333 4.5 62.166 13.5 86.499s21.333 44.5 37 60.5s34.334 28 56.001 36s45.167 12 70.5 12
c3.33301 0 6.66602 -0.166992 9.99902 -0.5s6.66602 -0.833008 9.99902 -1.5s6.66602 -1 9.99902 -1v-73c-3.33301 0 -6.33301 0.333008 -9 1c-2.66699 0 -5.5 0.166992 -8.5 0.5s-6.16699 0.5 -9.5 0.5c-34 0 -58.833 -9.66699 -74.5 -29s-23.5 -50 -23.5 -92v-35h285v-515
h-82v439h-203v-439h-82v439h-203v-439h-82v439zM666.003 714.002h90v-101h-90v101z" />
    <glyph glyph-name="ffl" unicode="ffl" horiz-adv-x="832" 
d="M100 439l-74.9971 0.00195312v76h75v22c0 33.333 4.66699 62.166 14 86.499s22 44.5 38 60.5s35 28 57 36s46 12 72 12c3.33301 0 6.66602 -0.166992 9.99902 -0.5s6.66602 -0.833008 9.99902 -1.5s7 -1 11 -1v-73c-4 0 -7.33301 0.333008 -10 1
c-3.33301 0 -6.33301 0.166992 -9 0.5s-5.66699 0.5 -9 0.5c-35.333 0 -61.166 -9.66699 -77.499 -29s-24.5 -50 -24.5 -92v-22h203v35c0 33.333 4.33301 62.166 13 86.499s20.834 44.5 36.501 60.5s34.167 28 55.5 36s44.666 12 69.999 12c6 0 12.333 -0.666992 19 -2
c2.66699 -0.666992 5.66699 -1 9 -1v-73c-2.66699 0 -5.33398 0.333008 -8.00098 1c-2.66699 0 -5.33398 0.166992 -8.00098 0.5s-5.66699 0.5 -9 0.5c-34 0 -58.5 -9.66699 -73.5 -29s-22.5 -50 -22.5 -92v-35h121v-76h-121v-439h-82v439h-203v-439h-82v439z
M670.003 744.002h82v-744h-82v744z" />
    <glyph glyph-name=".notdef" horiz-adv-x="500" 
 />
    <glyph glyph-name="space" unicode=" " horiz-adv-x="295" 
 />
    <glyph glyph-name="space" unicode="&#xa0;" horiz-adv-x="295" 
 />
    <glyph glyph-name="exclam" unicode="!" horiz-adv-x="271" 
d="M88 680h95l-12 -477h-71zM90 107h91v-107h-91v107z" />
    <glyph glyph-name="quotedbl" unicode="&#x22;" horiz-adv-x="367" 
d="M220 680h95l-13 -239h-69zM52 680h95l-13 -239h-69z" />
    <glyph glyph-name="numbersign" unicode="#" horiz-adv-x="558" 
d="M110 130l18 129h-100l10 76h101l19 137h-99l10 76h100l19 132h75l-19 -132h109l19 132h75l-19 -132h102l-10 -76h-103l-19 -137h101l-10 -76h-102l-18 -129h-75l18 129h-109l-18 -129h-75zM214 335h109l19 137h-109z" />
    <glyph glyph-name="dollar" unicode="$" horiz-adv-x="528" 
d="M243 26c-29.333 2 -56.6719 8.33203 -82.0049 18.999s-47.166 24.834 -65.499 42.501s-33 38.334 -44 62.001s-16.833 49.5 -17.5 77.5h84c1.33301 -35.333 13.5 -64.333 36.5 -87s52.5 -36.334 88.5 -41.001v216c-30 7.33301 -56.667 15.666 -80 24.999
s-43.166 21 -59.499 35s-28.666 30.833 -36.999 50.5s-12.5 43.167 -12.5 70.5c0 50 17.333 89.5 52 118.5s80.334 44.5 137.001 46.5v56h54v-59c55.333 -7.33301 97.5 -27.5 126.5 -60.5s45.167 -72.833 48.5 -119.5h-84c-2 24.667 -10.333 46.5 -25 65.5
s-36.667 31.833 -66 38.5v-192c30.667 -7.33301 57.834 -15.833 81.501 -25.5s43.5 -21.667 59.5 -36s28.167 -31.666 36.5 -51.999s12.5 -45.166 12.5 -74.499c0 -53.333 -17.5 -94.833 -52.5 -124.5s-80.833 -46.834 -137.5 -51.501v-108h-54v108zM402.994 200.999
c0 12 -1.5 22.833 -4.5 32.5s-8.5 18.5 -16.5 26.5s-18.833 15.5 -32.5 22.5s-31.167 13.5 -52.5 19.5v-203c34 4 60.167 15 78.5 33s27.5 41 27.5 69zM138.994 496.999c0 -11.333 1.50098 -21.5 4.50098 -30.5s8.33301 -17.333 16 -25s18.167 -14.5 31.5 -20.5
s30.666 -12 51.999 -18v183c-34 -2 -59.833 -10.667 -77.5 -26s-26.5 -36.333 -26.5 -63z" />
    <glyph glyph-name="percent" unicode="%" horiz-adv-x="786" 
d="M191 361c-22 0 -42.833 4.33301 -62.5 13s-36.667 20.334 -51 35.001s-25.833 32 -34.5 52s-13 41.333 -13 64s4.33301 44.167 13 64.5s20.167 37.833 34.5 52.5s31.333 26.334 51 35.001s40.5 13 62.5 13s42.667 -4.33301 62 -13s36.166 -20.334 50.499 -35.001
s25.833 -32.167 34.5 -52.5s13 -41.833 13 -64.5s-4.33301 -44 -13 -64s-20.167 -37.333 -34.5 -52s-31.166 -26.334 -50.499 -35.001s-40 -13 -62 -13zM596 -9c-22 0 -42.833 4.33301 -62.5 13s-36.667 20.334 -51 35.001s-25.833 32 -34.5 52s-13 41.333 -13 64
s4.33301 44.167 13 64.5s20.167 37.833 34.5 52.5s31.333 26.334 51 35.001s40.5 13 62.5 13s42.667 -4.33301 62 -13s36.166 -20.334 50.499 -35.001s25.833 -32.167 34.5 -52.5s13 -41.833 13 -64.5s-4.33301 -44 -13 -64s-20.167 -37.333 -34.5 -52
s-31.166 -26.334 -50.499 -35.001s-40 -13 -62 -13zM545 680h78l-383 -680h-77zM278 525c0 12.667 -2.16797 24.833 -6.50098 36.5s-10.5 22 -18.5 31s-17.333 16 -28 21s-22 7.5 -34 7.5s-23.333 -2.5 -34 -7.5s-20 -12 -28 -21s-14.333 -19.333 -19 -31
s-7 -23.834 -7 -36.501c0 -13.333 2.33301 -25.666 7 -36.999s11 -21.333 19 -30s17.333 -15.5 28 -20.5s22 -7.5 34 -7.5c24.667 0 45.334 9.33301 62.001 28s25 41 25 67zM682.999 154.999c0 12.667 -2.16797 24.833 -6.50098 36.5s-10.5 22 -18.5 31s-17.333 16 -28 21
s-22 7.5 -34 7.5s-23.333 -2.5 -34 -7.5s-20 -12 -28 -21s-14.333 -19.333 -19 -31s-7 -23.834 -7 -36.501c0 -13.333 2.33301 -25.666 7 -36.999s11 -21.333 19 -30s17.333 -15.5 28 -20.5s22 -7.5 34 -7.5c24.667 0 45.334 9.33301 62.001 28s25 41 25 67z" />
    <glyph glyph-name="ampersand" unicode="&#x26;" horiz-adv-x="628" 
d="M283 -12c-31.333 0 -61.1699 4.66992 -89.5029 14.0029s-53.333 22.833 -75 40.5s-39 39.167 -52 64.5s-19.5 54 -19.5 86c0 44 14.167 83.5 42.5 118.5s63.5 64.5 105.5 88.5l-13 16c-35.333 43.333 -53 86.666 -53 129.999c0 21.333 4 41 12 59s19.167 33.5 33.5 46.5
s31 23.167 50 30.5s39.5 11 61.5 11s42.333 -3.33301 61 -10s34.834 -16.334 48.501 -29.001s24.334 -27.667 32.001 -45s11.5 -37 11.5 -59c0 -35.333 -9.83301 -66.333 -29.5 -93s-52.167 -51.667 -97.5 -75l152 -190c4 12.667 7.16699 26 9.5 40s3.5 28.667 3.5 44v76h79
v-76c0 -56 -12.667 -106.333 -38 -151l101 -125h-101l-49 60c-23.333 -22.667 -50.666 -40.334 -81.999 -53.001s-66 -19 -104 -19zM282.996 64.0029c27.333 0 52.833 4.66797 76.5 14.001s44.167 23 61.5 41l-182 226c-22 -13.333 -39.667 -26.333 -53 -39
s-23.5 -25.334 -30.5 -38.001s-11.667 -25.167 -14 -37.5s-3.5 -24.833 -3.5 -37.5c0 -40 13.167 -71.5 39.5 -94.5s61.5 -34.5 105.5 -34.5zM212.996 546.004c0 -26.667 10.001 -52.333 30.001 -77l26 -33c18 9.33301 32.667 18.833 44 28.5s20.166 19.334 26.499 29.001
s10.5 19.167 12.5 28.5s3 18 3 26c0 21.333 -6.33301 38.666 -19 51.999s-29.667 20 -51 20c-20 0 -37 -6.83301 -51 -20.5s-21 -31.5 -21 -53.5z" />
    <glyph glyph-name="quotesingle" unicode="'" horiz-adv-x="199" 
d="M52 680h95l-13 -239h-69z" />
    <glyph glyph-name="parenleft" unicode="(" horiz-adv-x="319" 
d="M227 -122c-24.667 26 -47 56.1699 -67 90.5029s-37.167 71.166 -51.5 110.499s-25.5 80.333 -33.5 123s-12 85.667 -12 129c0 42.667 4 85.5 12 128.5s19.167 84.167 33.5 123.5s31.5 76.166 51.5 110.499s42.333 64.5 67 90.5h73
c-46 -62.667 -81.667 -132.334 -107 -209.001s-38 -158 -38 -244s12.667 -167.5 38 -244.5s61 -146.5 107 -208.5h-73v0z" />
    <glyph glyph-name="parenright" unicode=")" horiz-adv-x="319" 
d="M19 -122c46 62 81.667 131.497 107 208.497s38 158.5 38 244.5s-12.667 167.333 -38 244s-61 146.334 -107 209.001h73c24.667 -26 47 -56.167 67 -90.5s37.167 -71.166 51.5 -110.499s25.5 -80.5 33.5 -123.5s12 -85.833 12 -128.5c0 -43.333 -4 -86.333 -12 -129
s-19.167 -83.667 -33.5 -123s-31.5 -76.166 -51.5 -110.499s-42.333 -64.5 -67 -90.5h-73v0z" />
    <glyph glyph-name="asterisk" unicode="*" horiz-adv-x="351" 
d="M80 445l50 86l-98 -2v58l98 -2l-50 87l48 28l47 -88l47 88l50 -28l-52 -87l98 2v-57l-98 1l52 -86l-50 -29l-46 89l-48 -89z" />
    <glyph glyph-name="plus" unicode="+" horiz-adv-x="498" 
d="M211 265h-165v72h165v168h76v-168h165v-72h-165v-168h-76v168z" />
    <glyph glyph-name="comma" unicode="," horiz-adv-x="221" 
d="M54 -89c16 1.33301 29.168 6.33203 39.501 14.999s15.5 22.667 15.5 42v32h-50v109h103v-141c0 -19.333 -3.33301 -35.666 -10 -48.999s-15.167 -24.333 -25.5 -33s-21.833 -15.167 -34.5 -19.5s-25.334 -6.83301 -38.001 -7.5v52z" />
    <glyph glyph-name="hyphen" unicode="-" horiz-adv-x="342" 
d="M50 317h243v-82h-243v82z" />
    <glyph glyph-name="hyphen" unicode="&#xad;" horiz-adv-x="342" 
d="M50 317h243v-82h-243v82z" />
    <glyph glyph-name="period" unicode="." horiz-adv-x="221" 
d="M59 109h103v-109h-103v109z" />
    <glyph glyph-name="slash" unicode="/" horiz-adv-x="351" 
d="M267 784h82l-269 -906h-82z" />
    <glyph glyph-name="zero" unicode="0" horiz-adv-x="629" 
d="M315 -12c-36.667 0 -71.167 7.33301 -103.5 22s-60.5 36.834 -84.5 66.501s-43 66.667 -57 111s-21 96.166 -21 155.499s7 110.833 21 154.5s33 80 57 109s52.167 50.667 84.5 65s66.833 21.5 103.5 21.5s71 -7.16699 103 -21.5s60 -36 84 -65s43 -65.333 57 -109
s21 -95.167 21 -154.5s-7 -111.166 -21 -155.499s-33 -81.333 -57 -111s-52 -51.834 -84 -66.501s-66.333 -22 -103 -22zM315 65c56.667 0 99.834 23.833 129.501 71.5s44.5 116.5 44.5 206.5c0 89.333 -14.833 157.166 -44.5 203.499s-72.834 69.5 -129.501 69.5
c-56 0 -99.167 -23.167 -129.5 -69.5s-45.5 -114.166 -45.5 -203.499c0 -90 15.167 -158.833 45.5 -206.5s73.5 -71.5 129.5 -71.5z" />
    <glyph glyph-name="one" unicode="1" horiz-adv-x="335" 
d="M146 543l-111.998 -0.000976562v65c37.333 0 65.666 5.33301 84.999 16s30.666 29.334 33.999 56.001h81v-680h-88v543z" />
    <glyph glyph-name="two" unicode="2" horiz-adv-x="555" 
d="M44 40c0 38 5.83301 70.998 17.5 98.998s27.334 52.833 47.001 74.5s42 41 67 58s51.167 33.167 78.5 48.5c32.667 18 59 34.333 79 49s35.667 28.834 47 42.501s19 27.667 23 42s6 30.166 6 47.499c0 14 -1.83301 27.833 -5.5 41.5s-10.334 26 -20.001 37
s-22.667 19.833 -39 26.5s-37.166 10 -62.499 10c-24 0 -44.667 -3.83301 -62 -11.5s-31.833 -18.167 -43.5 -31.5s-20.5 -29.166 -26.5 -47.499s-9.33301 -38.5 -10 -60.5h-83c0 32 5 61.833 15 89.5s24.5 51.667 43.5 72s42.5 36.5 70.5 48.5s60 18 96 18
c34 0 64.5 -4.83301 91.5 -14.5s49.833 -23.167 68.5 -40.5s33 -37.666 43 -60.999s15 -48.666 15 -75.999c0 -31.333 -4.83301 -58.5 -14.5 -81.5s-23.667 -44 -42 -63s-40.333 -36.833 -66 -53.5s-54.5 -34 -86.5 -52c-24.667 -14 -46.5 -27.333 -65.5 -40
s-35.333 -25.834 -49 -39.501s-24.334 -28 -32.001 -43s-12.167 -31.5 -13.5 -49.5h363v-79h-450v40z" />
    <glyph glyph-name="three" unicode="3" horiz-adv-x="558" 
d="M279 -12c-39.333 0 -73.666 5.66797 -102.999 17.001s-54 26.666 -74 45.999s-35.333 41.333 -46 66s-17 50.667 -19 78h84c2.66699 -17.333 7.16699 -33.833 13.5 -49.5s15.666 -29.5 27.999 -41.5s28 -21.5 47 -28.5s42.167 -10.5 69.5 -10.5
c44.667 0 79.334 12.333 104.001 37s37 55 37 91c0 17.333 -2 34 -6 50s-11.667 30 -23 42s-27.333 21.667 -48 29s-47.667 11 -81 11h-29v77h10c30.667 0 56 2.66699 76 8s35.667 12.833 47 22.5s19.166 21.167 23.499 34.5s6.5 28 6.5 44c0 32.667 -10 58.334 -30 77.001
s-50 28 -90 28c-24.667 0 -45.5 -3.5 -62.5 -10.5s-31 -16.167 -42 -27.5s-19.167 -24.833 -24.5 -40.5s-8.33301 -31.834 -9 -48.501h-82c0 30 5.33301 57.5 16 82.5s25.667 46.5 45 64.5s42.5 32 69.5 42s56.5 15 88.5 15c32.667 0 62 -4.66699 88 -14s48 -22 66 -38
s31.833 -35 41.5 -57s14.5 -45.667 14.5 -71c0 -33.333 -8.33301 -62.166 -25 -86.499s-41.667 -43.166 -75 -56.499c40.667 -14.667 71.834 -36.5 93.501 -65.5s32.5 -66.5 32.5 -112.5c0 -28 -5.5 -54.333 -16.5 -79s-26.667 -46.334 -47 -65.001
s-44.833 -33.334 -73.5 -44.001s-60.334 -16 -95.001 -16z" />
    <glyph glyph-name="four" unicode="4" horiz-adv-x="568" 
d="M367 160h-334v69l329 451h91v-444h74v-76h-74v-160h-86v160zM367 236v325l-240 -325h240z" />
    <glyph glyph-name="five" unicode="5" horiz-adv-x="544" 
d="M270 -12c-34.667 0 -65.668 5.3291 -93.001 15.9961s-50.5 24.667 -69.5 42s-34 37.333 -45 60s-17.5 46 -19.5 70h84c2 -14 6.5 -27.667 13.5 -41s16.5 -25.166 28.5 -35.499s26.5 -18.666 43.5 -24.999s36.167 -9.5 57.5 -9.5c22 0 41.333 4 58 12s30.834 19 42.501 33
s20.5 30.5 26.5 49.5s9 39.5 9 61.5c0 22.667 -3.33301 43.5 -10 62.5s-16 35.333 -28 49s-26.333 24.334 -43 32.001s-35 11.5 -55 11.5c-30 0 -55.667 -7 -77 -21s-39.666 -33.333 -54.999 -58l-71 28l44 355h349v-79h-280l-26 -204c14 15.333 32.333 28.5 55 39.5
s49 16.5 79 16.5c28.667 0 55.667 -5.83301 81 -17.5s47.5 -27.667 66.5 -48s34 -44.666 45 -72.999s16.5 -59.5 16.5 -93.5c0 -36 -6.16699 -68.333 -18.5 -97s-28.833 -53.167 -49.5 -73.5s-44.834 -35.833 -72.501 -46.5s-56.5 -16 -86.5 -16z" />
    <glyph glyph-name="six" unicode="6" horiz-adv-x="574" 
d="M296 -12c-37.333 0 -71.1689 7.16406 -101.502 21.4971s-56.166 35.166 -77.499 62.499s-38 60.833 -50 100.5s-18 84.834 -18 135.501c0 62 6.33301 116.833 19 164.5s30.5 87.834 53.5 120.501s50.167 57.5 81.5 74.5s66 25.5 104 25.5
c25.333 0 49.5 -3.66699 72.5 -11s43.5 -18.166 61.5 -32.499s33.167 -32.166 45.5 -53.499s20.5 -46 24.5 -74h-85c-2.66699 12 -6.66699 23.5 -12 34.5s-12.666 21 -21.999 30s-21 16.167 -35 21.5s-30.667 8 -50 8c-49.333 0 -88.833 -22.167 -118.5 -66.5
s-48.5 -109.833 -56.5 -196.5c15.333 30 38.333 54 69 72s63.667 27 99 27c34.667 0 66.167 -6 94.5 -18s52.5 -28.5 72.5 -49.5s35.333 -45.667 46 -74s16 -58.833 16 -91.5c0 -32 -6 -62 -18 -90s-28.5 -52.5 -49.5 -73.5s-45.667 -37.5 -74 -49.5s-58.833 -18 -91.5 -18z
M298.997 64.9971c22 0 41.665 3.83301 58.998 11.5s32.333 18.5 45 32.5s22.334 30.333 29.001 49s10 39 10 61c0 20.667 -3.16699 40.5 -9.5 59.5s-15.666 35.833 -27.999 50.5s-27.833 26.167 -46.5 34.5s-40 12.5 -64 12.5c-22.667 0 -43 -4 -61 -12s-33.333 -19 -46 -33
s-22.5 -30.5 -29.5 -49.5s-10.5 -39.5 -10.5 -61.5c0 -46 13.833 -83.333 41.5 -112s64.5 -43 110.5 -43z" />
    <glyph glyph-name="seven" unicode="7" horiz-adv-x="503" 
d="M135 0c2.66699 55.333 9.33398 110.834 20.001 166.501s25.667 109.667 45 162s42.666 101.666 69.999 147.999s58.666 87.833 93.999 124.5h-336v79h439v-73c-39.333 -34 -73.666 -73.5 -102.999 -118.5s-54 -93.5 -74 -145.5s-35.333 -107 -46 -165
s-17 -117.333 -19 -178h-90v0z" />
    <glyph glyph-name="eight" unicode="8" horiz-adv-x="577" 
d="M288 -12c-37.333 0 -70.999 5.5 -100.999 16.5s-55.5 26 -76.5 45s-37 41 -48 66s-16.5 51.833 -16.5 80.5c0 45.333 11.667 82.166 35 110.499s55 50.5 95 66.5c-62.667 30.667 -94 79 -94 145c0 24.667 5 47.834 15 69.501s24 40.667 42 57s39.667 29.166 65 38.499
s53.333 14 84 14c31.333 0 59.666 -4.66699 84.999 -14s47 -22.166 65 -38.499s31.833 -35.333 41.5 -57s14.5 -44.834 14.5 -69.501c0 -66 -30.667 -114.333 -92 -145c40 -16 71.5 -38.167 94.5 -66.5s34.5 -65.166 34.5 -110.499c0 -28.667 -5.5 -55.5 -16.5 -80.5
s-27 -47 -48 -66s-46.5 -34 -76.5 -45s-64 -16.5 -102 -16.5zM288.001 65c21.333 0 41.1689 2.83301 59.502 8.5s34.333 14 48 25s24.5 25 32.5 42s12 36.5 12 58.5c0 39.333 -13 71.5 -39 96.5s-63.667 37.5 -113 37.5c-48.667 0 -86 -12.5 -112 -37.5
s-39 -57.167 -39 -96.5c0 -22 4 -41.5 12 -58.5s18.667 -31 32 -42s29.166 -19.333 47.499 -25s38.166 -8.5 59.499 -8.5zM288.004 408c33.333 0 61.168 9 83.501 27s33.5 44.333 33.5 79c0 31.333 -9.83301 56.833 -29.5 76.5s-48.834 29.5 -87.501 29.5
c-38 0 -67 -9.83301 -87 -29.5s-30 -45.167 -30 -76.5c0 -17.333 3.16699 -32.5 9.5 -45.5s14.833 -24 25.5 -33s23 -15.833 37 -20.5s29 -7 45 -7z" />
    <glyph glyph-name="nine" unicode="9" horiz-adv-x="574" 
d="M267 -12c-25.333 0 -49.5 3.33398 -72.5 10.001s-43.5 16.5 -61.5 29.5s-33.167 29.5 -45.5 49.5s-20.5 43.667 -24.5 71h85c2.66699 -10.667 6.66699 -21 12 -31s12.666 -18.833 21.999 -26.5s21 -13.834 35 -18.501s30.667 -7 50 -7c24.667 0 47.167 4.83301 67.5 14.5
s38 25 53 46s27.167 48.167 36.5 81.5s15.333 73.666 18 120.999c-15.333 -30 -38.333 -54 -69 -72s-63.667 -27 -99 -27s-67 6 -95 18s-52 28.5 -72 49.5s-35.333 45.833 -46 74.5s-16 59.334 -16 92.001c0 32 6.16699 61.833 18.5 89.5s29 52 50 73s45.667 37.5 74 49.5
s58.833 18 91.5 18c36.667 0 70.167 -7.16699 100.5 -21.5s56.333 -35.166 78 -62.499s38.334 -60.833 50.001 -100.5s17.5 -84.834 17.5 -135.501c0 -66 -6 -123.167 -18 -171.5s-29.167 -88.333 -51.5 -120s-49.5 -55.167 -81.5 -70.5s-67.667 -23 -107 -23zM280 305.001
c22.667 0 43.001 4.00195 61.001 12.002s33.333 18.833 46 32.5s22.334 30 29.001 49s10 39.5 10 61.5c0 22.667 -3.5 43.5 -10.5 62.5s-17 35.5 -30 49.5s-28.833 24.833 -47.5 32.5s-39.334 11.5 -62.001 11.5c-22 0 -41.833 -3.83301 -59.5 -11.5
s-32.667 -18.334 -45 -32.001s-22 -29.834 -29 -48.501s-10.5 -39 -10.5 -61s3.16699 -42.667 9.5 -62s15.666 -36 27.999 -50s27.833 -25.167 46.5 -33.5s40 -12.5 64 -12.5z" />
    <glyph glyph-name="colon" unicode=":" horiz-adv-x="231" 
d="M64 421h103v-109h-103v109zM64 109h103v-109h-103v109z" />
    <glyph glyph-name="semicolon" unicode=";" horiz-adv-x="231" 
d="M59 -89c16 1.33301 29.168 6.33203 39.501 14.999s15.5 22.667 15.5 42v32h-50v109h103v-141c0 -19.333 -3.33301 -35.666 -10 -48.999s-15.167 -24.333 -25.5 -33s-21.833 -15.167 -34.5 -19.5s-25.334 -6.83301 -38.001 -7.5v52zM64.001 420.999h103v-109h-103v109z
" />
    <glyph glyph-name="semicolon" unicode="&#x37e;" horiz-adv-x="231" 
d="M59 -89c16 1.33301 29.168 6.33203 39.501 14.999s15.5 22.667 15.5 42v32h-50v109h103v-141c0 -19.333 -3.33301 -35.666 -10 -48.999s-15.167 -24.333 -25.5 -33s-21.833 -15.167 -34.5 -19.5s-25.334 -6.83301 -38.001 -7.5v52zM64.001 420.999h103v-109h-103v109z
" />
    <glyph glyph-name="less" unicode="&#x3c;" horiz-adv-x="445" 
d="M36 225v91l368 170v-84l-294 -132v-1l294 -131v-84z" />
    <glyph glyph-name="equal" unicode="=" horiz-adv-x="481" 
d="M46 418h389v-72h-389v72zM46 234h389v-72h-389v72z" />
    <glyph glyph-name="greater" unicode="&#x3e;" horiz-adv-x="445" 
d="M409 315v-91l-368 -170v84l294 132v1l-294 131v84z" />
    <glyph glyph-name="question" unicode="?" horiz-adv-x="510" 
d="M195 220c0 26.667 2.83105 49.0059 8.49805 67.0059s13.5 33.5 23.5 46.5s22 24.833 36 35.5l45 34c23.333 17.333 40.5 34.666 51.5 51.999s16.5 38.666 16.5 63.999c0 33.333 -10.167 58.166 -30.5 74.499s-49.833 24.5 -88.5 24.5c-42 0 -74.667 -11.5 -98 -34.5
s-35.666 -52.167 -36.999 -87.5h-82c0 26 5 51 15 75s24.333 45 43 63s41.334 32.333 68.001 43s57 16 91 16c30.667 0 58.667 -4 84 -12s47 -19.333 65 -34s32 -32.667 42 -54s15 -45 15 -71c0 -23.333 -3.16699 -44 -9.5 -62s-14.666 -34.167 -24.999 -48.5
s-21.833 -27 -34.5 -38s-25.334 -21.167 -38.001 -30.5l-33.5 -25.5c-10.333 -7.66699 -19.333 -15.834 -27 -24.501s-13.667 -18.834 -18 -30.501s-6.5 -25.834 -6.5 -42.501v-17h-76v17zM186.998 107.006h91v-107h-91v107z" />
    <glyph glyph-name="at" unicode="@" horiz-adv-x="747" 
d="M387 -12c-50 0 -96.0039 8.65918 -138.004 25.9922s-78.167 41.833 -108.5 73.5s-54 69.334 -71 113.001s-25.5 91.834 -25.5 144.501s9.33301 101.334 28 146.001s43.834 83.334 75.501 116.001s68.167 58.167 109.5 76.5s85 27.5 131 27.5
c46.667 0 89.334 -7.66699 128.001 -23s72 -36.666 100 -63.999s49.667 -60.166 65 -98.499s23 -80.5 23 -126.5c0 -36.667 -5.83301 -69.167 -17.5 -97.5s-26.5 -52 -44.5 -71s-38 -33.333 -60 -43s-43 -14.5 -63 -14.5c-24.667 0 -45.334 6 -62.001 18
s-27.667 26.667 -33 44c-15.333 -18.667 -32.666 -33.5 -51.999 -44.5s-39.333 -16.5 -60 -16.5c-19.333 0 -36.666 4.83301 -51.999 14.5s-27.666 23 -36.999 40s-15.166 37.333 -17.499 61s0.5 49.5 8.5 77.5c6.66699 24.667 16.5 47.167 29.5 67.5s27.667 37.833 44 52.5
s33.666 26 51.999 34s36.5 12 54.5 12c19.333 0 35.166 -4.5 47.499 -13.5s21.833 -21.167 28.5 -36.5l11 37h70l-7.5 -23.5l-10 -32.5l-11.5 -37.5l-12 -38.5l-28 -95c-5.33301 -18 -4 -31.333 4 -40s19 -13 33 -13s27.833 3.66699 41.5 11s25.834 17.833 36.501 31.5
s19.167 30.5 25.5 50.5s9.5 43 9.5 69c0 32 -5.33301 62.333 -16 91s-26.334 53.834 -47.001 75.501s-46.167 39 -76.5 52s-65.166 19.5 -104.499 19.5c-38 0 -73.5 -8 -106.5 -24s-61.667 -37.667 -86 -65s-43.5 -58.833 -57.5 -94.5s-21 -72.834 -21 -111.501
c0 -41.333 6.5 -79.666 19.5 -114.999s31.333 -65.666 55 -90.999s52 -45.166 85 -59.499s69.833 -21.5 110.5 -21.5c44.667 0 84.5 7.66699 119.5 23s63.833 33.666 86.5 54.999h89c-30 -46 -69.833 -82.167 -119.5 -108.5s-108.167 -39.5 -175.5 -39.5zM325.996 242.992
c14 0 26.3291 3.33301 36.9961 10s20.334 15.5 29.001 26.5s15.834 23.5 21.501 37.5s10.5 28.333 14.5 43c3.33301 12 5.33301 24.333 6 37s-0.166016 24 -2.49902 34s-6.83301 18.167 -13.5 24.5s-15.667 9.5 -27 9.5c-12 0 -23.5 -3.16699 -34.5 -9.5
s-21.333 -14.833 -31 -25.5s-18 -23 -25 -37s-12.5 -29 -16.5 -45c-7.33301 -32 -7.16602 -57.5 0.500977 -76.5s21.5 -28.5 41.5 -28.5z" />
    <glyph glyph-name="A" unicode="A" horiz-adv-x="617" 
d="M266 680h90l244 -680h-90l-64 181h-277l-64 -181h-88zM197 259h221.999l-86 246l-24 82l-8 -29c-2.66699 -8 -5.16699 -16.833 -7.5 -26.5s-5.16602 -18.5 -8.49902 -26.5z" />
    <glyph glyph-name="B" unicode="B" horiz-adv-x="634" 
d="M86 680l284.999 0.00292969c29.333 0 56 -4.33301 80 -13s44.667 -20.834 62 -36.501s30.666 -34.667 39.999 -57s14 -47.5 14 -75.5c0 -25.333 -7 -50.333 -21 -75s-37 -44.334 -69 -59.001c20 -6.66699 37.333 -15.834 52 -27.501s26.834 -24.667 36.501 -39
s16.834 -30 21.501 -47s7 -34.167 7 -51.5c0 -28 -5.16699 -54.167 -15.5 -78.5s-25 -45.333 -44 -63s-41.5 -31.667 -67.5 -42s-55 -15.5 -87 -15.5h-294v680zM383.999 79.0029c36 0 64.833 10.668 86.5 32.001s32.5 50.666 32.5 87.999c0 42 -11 72.5 -33 91.5
s-51.667 28.5 -89 28.5h-208v-240h211zM372.999 397.004c12.667 0 25.167 1.66699 37.5 5s23.5 9 33.5 17s18 18.5 24 31.5s9 29.167 9 48.5c0 36 -9.5 62.167 -28.5 78.5s-44.833 24.5 -77.5 24.5h-198v-205h200z" />
    <glyph glyph-name="C" unicode="C" horiz-adv-x="696" 
d="M373 -12c-44.667 0 -86.8311 8.66797 -126.498 26.001s-74.5 41.5 -104.5 72.5s-53.667 68.167 -71 111.5s-26 91 -26 143s8.66699 99.5 26 142.5s40.833 80 70.5 111s64.167 55.167 103.5 72.5s81.333 26 126 26c78.667 0 142.5 -20.167 191.5 -60.5
s82.5 -94.5 100.5 -162.5h-86c-15.333 44 -39.333 79.333 -72 106s-77.334 40 -134.001 40c-33.333 0 -64.333 -6.5 -93 -19.5s-53.5 -31.333 -74.5 -55s-37.5 -52.5 -49.5 -86.5s-18 -72 -18 -114s6 -80 18 -114s28.667 -63 50 -87s46.5 -42.5 75.5 -55.5
s60.167 -19.5 93.5 -19.5c50.667 0 94.167 13.667 130.5 41s61.166 64 74.499 110h89c-19.333 -70.667 -54 -126.334 -104 -167.001s-113.333 -61 -190 -61z" />
    <glyph glyph-name="D" unicode="D" horiz-adv-x="679" 
d="M86 680l225 0.000976562c49.333 0 93.833 -7.83301 133.5 -23.5s73.5 -38 101.5 -67s49.667 -64.5 65 -106.5s23 -89.333 23 -142s-7.66699 -100 -23 -142s-37 -77.833 -65 -107.5s-61.833 -52.334 -101.5 -68.001s-84.167 -23.5 -133.5 -23.5h-225v680zM311 78.001
c34 0 65.166 5.16797 93.499 15.501s52.833 26.166 73.5 47.499s36.667 48.5 48 81.5s17 72.5 17 118.5c0 46.667 -5.83301 86.5 -17.5 119.5s-27.667 60 -48 81s-44.666 36.333 -72.999 46s-59.5 14.5 -93.5 14.5h-137v-524h137z" />
    <glyph glyph-name="E" unicode="E" horiz-adv-x="587" 
d="M86 680h448v-79h-360v-204h306v-79h-306v-239h365v-79h-453v680z" />
    <glyph glyph-name="F" unicode="F" horiz-adv-x="564" 
d="M86 680h441v-79h-353v-204h308v-79h-308v-318h-88v680z" />
    <glyph glyph-name="G" unicode="G" horiz-adv-x="734" 
d="M370 -12c-45.333 0 -87.666 8.66992 -126.999 26.0029s-73.666 41.5 -102.999 72.5s-52.5 68.167 -69.5 111.5s-25.5 91 -25.5 143s8.5 99.5 25.5 142.5s40.333 80 70 111s64.167 55.167 103.5 72.5s81.333 26 126 26c32.667 0 64.5 -4.33301 95.5 -13s59.5 -22 85.5 -40
s48.5 -40.5 67.5 -67.5s33.167 -58.833 42.5 -95.5h-88c-7.33301 24.667 -17.666 45.667 -30.999 63s-29 31.666 -47 42.999s-37.667 19.666 -59 24.999s-43.333 8 -66 8c-34 0 -65.333 -6.5 -94 -19.5s-53.334 -31.333 -74.001 -55s-36.834 -52.5 -48.501 -86.5
s-17.5 -72 -17.5 -114s5.83301 -80 17.5 -114s27.834 -63 48.501 -87s45.334 -42.5 74.001 -55.5s60 -19.5 94 -19.5c33.333 0 63.5 5.5 90.5 16.5s50.333 25.667 70 44s35.167 39.833 46.5 64.5s17.666 51 18.999 79h-189v80h272v-349h-82v113
c-10 -16.667 -21.833 -32.5 -35.5 -47.5s-29.834 -28.333 -48.501 -40s-39.834 -20.834 -63.501 -27.501s-50.167 -10 -79.5 -10z" />
    <glyph glyph-name="H" unicode="H" horiz-adv-x="696" 
d="M86 680h88v-283h348v283h88v-680h-88v317h-348v-317h-88v680z" />
    <glyph glyph-name="I" unicode="I" horiz-adv-x="266" 
d="M89 680h88v-680h-88v680z" />
    <glyph glyph-name="J" unicode="J" 
d="M249 -12c-32.667 0 -62.1641 5.5 -88.4971 16.5s-49 26.5 -68 46.5s-33.667 44 -44 72s-15.5 59 -15.5 93h87c0 -20 2.33301 -39.167 7 -57.5s12.167 -34.333 22.5 -48s23.666 -24.667 39.999 -33s36.166 -12.5 59.499 -12.5c47.333 0 80.666 14.167 99.999 42.5
s29 68.5 29 120.5v452h88v-452c0 -36.667 -4.5 -69.667 -13.5 -99s-22.667 -54.5 -41 -75.5s-41 -37.167 -68 -48.5s-58.5 -17 -94.5 -17z" />
    <glyph glyph-name="K" unicode="K" horiz-adv-x="628" 
d="M281 348l-114 -119v-229h-81v680h81v-350l335 350h98l-263 -274l271 -406h-96z" />
    <glyph glyph-name="L" unicode="L" horiz-adv-x="532" 
d="M86 680h88v-601h328v-79h-416v680z" />
    <glyph glyph-name="M" unicode="M" horiz-adv-x="810" 
d="M86 680l126.007 -0.00292969l173 -502c5.33301 -15.333 9.83301 -31.666 13.5 -48.999s6.16699 -27.666 7.5 -30.999c0 0.666992 0.666992 3.83398 2 9.50098l5 20.5l6.5 25c2.33301 8.66699 4.83301 17 7.5 25l172 502h125v-680h-84v478c0 8 0.166992 17.5 0.5 28.5
l1 31.5c0.333008 10 0.833008 18.667 1.5 26s1 11.666 1 12.999c-0.666992 -1.33301 -1.83398 -5 -3.50098 -11s-3.83398 -13.167 -6.50098 -21.5l-8 -26c-2.66699 -9 -5.33398 -17.5 -8.00098 -25.5l-171 -493h-86l-171 493c-2.66699 7.33301 -5.33398 15.5 -8.00098 24.5
s-5.33398 17.5 -8.00098 25.5s-4.83398 15.167 -6.50098 21.5s-2.83398 10.5 -3.50098 12.5c0 -1.33301 0.166992 -5.66602 0.5 -12.999s0.833008 -16 1.5 -26s1.16699 -20.5 1.5 -31.5s0.5 -20.5 0.5 -28.5v-478h-82v680z" />
    <glyph glyph-name="N" unicode="N" horiz-adv-x="686" 
d="M86 680h97l337 -543v543h80v-680h-89l-345 555v-555h-80v680z" />
    <glyph glyph-name="O" unicode="O" horiz-adv-x="748" 
d="M374 -12c-45.333 0 -88 8.66699 -128 26s-74.833 41.5 -104.5 72.5s-53.167 68.167 -70.5 111.5s-26 91 -26 143s8.66699 99.5 26 142.5s40.833 80 70.5 111s64.5 55.167 104.5 72.5s82.667 26 128 26c46 0 89 -8.33301 129 -25s74.833 -40.5 104.5 -71.5
s53 -68.167 70 -111.5s25.5 -91.333 25.5 -144c0 -52 -8.66699 -99.667 -26 -143s-40.833 -80.5 -70.5 -111.5s-64.5 -55.167 -104.5 -72.5s-82.667 -26 -128 -26zM374 65c34 0 65.5 6.49902 94.5 19.499s54.167 31.5 75.5 55.5s38 53 50 87s18 72 18 114
c0 42.667 -5.83301 81 -17.5 115s-28 62.833 -49 86.5s-46.167 41.834 -75.5 54.501s-61.333 19 -96 19c-34 0 -65.5 -6.5 -94.5 -19.5s-54.167 -31.333 -75.5 -55s-38 -52.5 -50 -86.5s-18 -72 -18 -114s6 -80 18 -114s28.667 -63 50 -87s46.5 -42.5 75.5 -55.5
s60.5 -19.5 94.5 -19.5z" />
    <glyph glyph-name="P" unicode="P" horiz-adv-x="611" 
d="M86 680l276 -0.000976562c34 0 64.5 -5 91.5 -15s49.667 -24.167 68 -42.5s32.5 -40.166 42.5 -65.499s15 -53 15 -83s-5 -57.5 -15 -82.5s-24.167 -46.5 -42.5 -64.5s-41 -32.167 -68 -42.5s-57.5 -15.5 -91.5 -15.5h-188v-269h-88v680zM362 347.999
c38 0 68.833 9.83203 92.5 29.499s35.5 51.834 35.5 96.501s-11.833 77 -35.5 97s-54.5 30 -92.5 30h-188v-253h188z" />
    <glyph glyph-name="Q" unicode="Q" horiz-adv-x="748" 
d="M558 45c-53.333 -38 -114.667 -56.999 -184 -56.999c-45.333 0 -88 8.66699 -128 26s-74.833 41.5 -104.5 72.5s-53.167 68.167 -70.5 111.5s-26 91 -26 143s8.66699 99.5 26 142.5s40.833 80 70.5 111s64.5 55.167 104.5 72.5s82.667 26 128 26
c46 0 89 -8.33301 129 -25s74.833 -40.5 104.5 -71.5s53 -68.167 70 -111.5s25.5 -91.333 25.5 -144c0 -49.333 -7.66699 -94.333 -23 -135s-36.333 -76.334 -63 -107.001l93 -99h-109zM373.999 65.001c49.333 0 92.667 13 130 39l-123 132h109l70 -76
c16 23.333 28.667 50.166 38 80.499s14 63.833 14 100.5c0 42.667 -5.83301 81 -17.5 115s-28 62.833 -49 86.5s-46.167 41.834 -75.5 54.501s-61.333 19 -96 19c-34 0 -65.5 -6.5 -94.5 -19.5s-54.167 -31.333 -75.5 -55s-38 -52.5 -50 -86.5s-18 -72 -18 -114
s6 -80 18 -114s28.667 -63 50 -87s46.5 -42.5 75.5 -55.5s60.5 -19.5 94.5 -19.5z" />
    <glyph glyph-name="R" unicode="R" horiz-adv-x="650" 
d="M86 680h283.998c34 0 64.167 -5 90.5 -15s48.833 -23.833 67.5 -41.5s32.834 -38.667 42.501 -63s14.5 -51.166 14.5 -80.499c0 -34.667 -8 -65 -24 -91s-42.667 -47.333 -80 -64c29.333 -10 50.333 -25.667 63 -47s21 -51 25 -89l9 -83
c2.66699 -25.333 6.33398 -46.833 11.001 -64.5s9 -31.5 13 -41.5h-83c-4.66699 9.33301 -9 21.666 -13 36.999s-7 35.333 -9 60l-7 81c-3.33301 36 -13 62.167 -29 78.5s-43 24.5 -81 24.5h-209v-281h-85v680zM377.998 361c40 0 70.333 10.5 91 31.5s31 50.167 31 87.5
c0 42 -11.333 72.667 -34 92s-54.667 29 -96 29h-199v-240h207z" />
    <glyph glyph-name="S" unicode="S" horiz-adv-x="593" 
d="M305 -12c-39.333 0 -75.166 5.66113 -107.499 16.9941s-60 27 -83 47s-41.167 43.5 -54.5 70.5s-20.666 55.833 -21.999 86.5h88c2 -44 19.167 -79 51.5 -105s74.833 -39 127.5 -39c54 0 94.333 10.833 121 32.5s40 49.834 40 84.501c0 16 -2.33301 30.333 -7 43
s-13.334 24.334 -26.001 35.001s-30.334 20.167 -53.001 28.5s-52 16.5 -88 24.5c-38.667 8 -72.334 17.5 -101.001 28.5s-52.5 24.167 -71.5 39.5s-33.167 33.666 -42.5 54.999s-14 46.666 -14 75.999c0 28.667 5.5 54.334 16.5 77.001s26.5 41.667 46.5 57
s43.667 27 71 35s57.333 12 90 12c74.667 0 133 -17.667 175 -53s66 -82.666 72 -141.999h-86c-3.33301 33.333 -18 61.333 -44 84s-64.667 34 -116 34c-47.333 0 -82.5 -9 -105.5 -27s-34.5 -43 -34.5 -75c0 -14.667 2.16699 -27.667 6.5 -39s12.5 -21.666 24.5 -30.999
s28.667 -17.833 50 -25.5s49 -15.5 83 -23.5c38.667 -8.66699 72.834 -18.167 102.501 -28.5s54.5 -23.5 74.5 -39.5s35.167 -35.667 45.5 -59s15.5 -52 15.5 -86c0 -31.333 -6.16699 -59.166 -18.5 -83.499s-29.333 -44.666 -51 -60.999s-47.5 -28.666 -77.5 -36.999
s-62.667 -12.5 -98 -12.5z" />
    <glyph glyph-name="T" unicode="T" horiz-adv-x="548" 
d="M230 601h-205v79h498v-79h-205v-601h-88v601z" />
    <glyph glyph-name="U" unicode="U" horiz-adv-x="667" 
d="M334 -12c-38 0 -72.833 5.83301 -104.5 17.5s-59.167 28.834 -82.5 51.501s-41.5 50.5 -54.5 83.5s-19.5 70.5 -19.5 112.5v427h88v-427c0 -61.333 15 -108 45 -140s72.667 -48 128 -48c56 0 98.667 16 128 48s44 78.667 44 140v427h88v-427
c0 -42 -6.5 -79.5 -19.5 -112.5s-31 -60.833 -54 -83.5s-50.5 -39.834 -82.5 -51.501s-66.667 -17.5 -104 -17.5z" />
    <glyph glyph-name="V" unicode="V" horiz-adv-x="602" 
d="M15 680l92 -0.000976562l172 -499c2 -6.66699 4.33301 -15 7 -25l8 -29c2.66699 -11.333 5.66699 -22.666 9 -33.999l8 34c2.66699 9.33301 5.16699 18.833 7.5 28.5s4.83301 18.167 7.5 25.5l171 499h90l-241 -680h-90z" />
    <glyph glyph-name="W" unicode="W" horiz-adv-x="875" 
d="M15 680l87.998 -0.00488281l127 -473c2 -7.33301 3.83301 -15.166 5.5 -23.499s3.16699 -16.333 4.5 -24l3.5 -20c1 -5.66699 1.5 -9.16699 1.5 -10.5c0 0.666992 0.666992 3.83398 2 9.50098l4.5 20c1.66699 7.66699 3.66699 16 6 25l6.5 24.5l134 472h84l135 -472
c2 -7.33301 4 -15.333 6 -24l5.5 -24.5l4.5 -20c1.33301 -5.66699 2.33301 -9.16699 3 -10.5c0 0.666992 0.333008 3.83398 1 9.50098s1.83398 12.334 3.50098 20.001s3.33398 16 5.00098 25s3.5 17.167 5.5 24.5l126 472h83l-184 -680h-84l-133 475l-6.5 28l-6.5 28.5
c-2 9 -3.66699 17 -5 24s-2 11.5 -2 13.5c0 -1.33301 -0.666992 -5.33301 -2 -12s-2.83301 -14.667 -4.5 -24s-3.66699 -19.166 -6 -29.499s-4.83301 -19.833 -7.5 -28.5l-135 -475h-86z" />
    <glyph glyph-name="X" unicode="X" horiz-adv-x="571" 
d="M229 352l-206 328h95l169 -272l169 272h92l-207 -328l218 -352h-95l-181 296l-179 -296h-92z" />
    <glyph glyph-name="Y" unicode="Y" horiz-adv-x="561" 
d="M236 282l-225 398h92l178 -317l179 317h90l-226 -398v-282h-88v282z" />
    <glyph glyph-name="Z" unicode="Z" horiz-adv-x="549" 
d="M32 69l380 532h-367v79h470v-76l-375 -525h377v-79h-485v69z" />
    <glyph glyph-name="bracketleft" unicode="[" horiz-adv-x="323" 
d="M82 784h209v-73h-123v-760h123v-73h-209v906z" />
    <glyph glyph-name="backslash" unicode="\" horiz-adv-x="351" 
d="M2 784h82l269 -906h-82z" />
    <glyph glyph-name="bracketright" unicode="]" horiz-adv-x="323" 
d="M32 -49h123v760h-123v73h209v-906h-209v73z" />
    <glyph glyph-name="asciicircum" unicode="^" horiz-adv-x="512" 
d="M213 680h87l173 -436h-89l-128 341l-129 -341h-88z" />
    <glyph glyph-name="underscore" unicode="_" horiz-adv-x="521" 
d="M-2 -69h525v-82h-525v82z" />
    <glyph glyph-name="grave" unicode="`" horiz-adv-x="500" 
d="M114 740h109l64 -147h-76z" />
    <glyph glyph-name="a" unicode="a" 
d="M214 -12c-24 0 -46.498 2.83105 -67.498 8.49805s-39.167 14.334 -54.5 26.001s-27.5 26.5 -36.5 44.5s-13.5 39.667 -13.5 65c0 24.667 4.66699 46 14 64s22.166 33.167 38.499 45.5s36 22.333 59 30s48.167 13.5 75.5 17.5c26 4 48.833 8 68.5 12
s36.167 8.83301 49.5 14.5s23.5 12.834 30.5 21.501s10.5 19.667 10.5 33c0 30 -9.33301 51.333 -28 64s-47 19 -85 19c-31.333 0 -58.666 -7 -81.999 -21s-36.666 -35.667 -39.999 -65h-86c3.33301 48 23.666 86.833 60.999 116.5s86.666 44.5 147.999 44.5
c67.333 0 116.5 -14.333 147.5 -43s46.5 -67 46.5 -115v-266c0 -20.667 2.33301 -40.667 7 -60s9 -34 13 -44h-81c-3.33301 7.33301 -7 17 -11 29s-6.66699 25.667 -8 41c-15.333 -23.333 -38.333 -42.833 -69 -58.5s-66.334 -23.5 -107.001 -23.5zM215.002 59.998
c24.667 0 47.6689 2.83203 69.002 8.49902s39.666 14 54.999 25s27.333 24.333 36 40s13 33.834 13 54.501v86c-10.667 -9.33301 -27.834 -18.333 -51.501 -27s-58.5 -17.334 -104.5 -26.001c-39.333 -7.33301 -67.333 -17.5 -84 -30.5s-25 -31.5 -25 -55.5
c0 -25.333 8.5 -44.166 25.5 -56.499s39.167 -18.5 66.5 -18.5z" />
    <glyph glyph-name="b" unicode="b" horiz-adv-x="611" 
d="M335 -12c-40 0 -75.666 10.168 -106.999 30.501s-55 46.5 -71 78.5v-97h-79v744h82v-321c15.333 28.667 38.166 53.334 68.499 74.001s65.833 31 106.5 31c34 0 65.333 -7 94 -21s53.334 -33.333 74.001 -58s36.834 -53.334 48.501 -86.001s17.5 -67.334 17.5 -104.001
c0 -37.333 -5.83301 -72.5 -17.5 -105.5s-27.834 -61.833 -48.501 -86.5s-45.334 -44 -74.001 -58s-60 -21 -94 -21zM322.001 63.001c22 0 43 4.16699 63 12.5s37.333 20.833 52 37.5s26.334 36.834 35.001 60.501s13 51.167 13 82.5s-4.33301 59.333 -13 84
s-20.334 45.334 -35.001 62.001s-32 29.334 -52 38.001s-41 13 -63 13s-42.833 -4.33301 -62.5 -13s-36.834 -21.334 -51.501 -38.001s-26.334 -37.334 -35.001 -62.001s-13 -52.667 -13 -84s4.33301 -58.833 13 -82.5s20.334 -43.834 35.001 -60.501
s31.834 -29.167 51.501 -37.5s40.5 -12.5 62.5 -12.5z" />
    <glyph glyph-name="c" unicode="c" horiz-adv-x="545" 
d="M290 -12c-34.667 0 -67 6.66992 -97 20.0029s-56.167 32 -78.5 56s-40 52.333 -53 85s-19.5 68.334 -19.5 107.001s6.5 74.667 19.5 108s30.667 62.166 53 86.499s48.5 43.333 78.5 57s62.333 20.5 97 20.5c56.667 0 104.334 -15.167 143.001 -45.5
s64.667 -71.833 78 -124.5h-87c-11.333 30 -28.333 53.333 -51 70s-50.334 25 -83.001 25c-23.333 0 -44.833 -4.33301 -64.5 -13s-36.834 -21.334 -51.501 -38.001s-26.167 -37.334 -34.5 -62.001s-12.5 -52.667 -12.5 -84s4.16699 -58.833 12.5 -82.5
s19.833 -43.834 34.5 -60.501s31.834 -29.167 51.501 -37.5s41.167 -12.5 64.5 -12.5c33.333 0 61.5 8.5 84.5 25.5s39.5 40.167 49.5 69.5h87c-12 -50.667 -37.5 -91.667 -76.5 -123s-87.167 -47 -144.5 -47z" />
    <glyph glyph-name="d" unicode="d" horiz-adv-x="611" 
d="M276 -12c-34 0 -65.332 6.99902 -93.999 20.999s-53.334 33.333 -74.001 58s-36.834 53.5 -48.501 86.5s-17.5 68.167 -17.5 105.5c0 36.667 5.83301 71.334 17.5 104.001s27.834 61.334 48.501 86.001s45.334 44 74.001 58s60 21 94 21
c40.667 0 76.167 -10.333 106.5 -31s53.166 -45.334 68.499 -74.001v321h82v-744h-79v97c-16 -32 -39.667 -58.167 -71 -78.5s-67 -30.5 -107 -30.5zM289.001 62.999c22 0 42.833 4.16699 62.5 12.5s36.834 20.833 51.501 37.5s26.334 36.834 35.001 60.501
s13 51.167 13 82.5s-4.33301 59.333 -13 84s-20.334 45.334 -35.001 62.001s-31.834 29.334 -51.501 38.001s-40.5 13 -62.5 13s-43 -4.33301 -63 -13s-37.333 -21.334 -52 -38.001s-26.334 -37.334 -35.001 -62.001s-13 -52.667 -13 -84s4.33301 -58.833 13 -82.5
s20.334 -43.834 35.001 -60.501s32 -29.167 52 -37.5s41 -12.5 63 -12.5z" />
    <glyph glyph-name="e" unicode="e" horiz-adv-x="570" 
d="M295 -12c-36 0 -69.333 6.50098 -100 19.501s-57.334 31.333 -80.001 55s-40.5 52 -53.5 85s-19.5 69.5 -19.5 109.5c0 39.333 6.5 75.5 19.5 108.5s30.833 61.5 53.5 85.5s49.167 42.833 79.5 56.5s62.833 20.5 97.5 20.5c32 0 62.833 -6.33301 92.5 -19
s55.667 -31.5 78 -56.5s39.833 -55.833 52.5 -92.5s18.334 -79.334 17.001 -128.001h-405c2 -28.667 8.16699 -53.667 18.5 -75s23.166 -39 38.499 -53s32.5 -24.5 51.5 -31.5s38.833 -10.5 59.5 -10.5c36 0 65.5 7.33301 88.5 22s39.5 34.667 49.5 60h87
c-6 -22.667 -15.667 -43.5 -29 -62.5s-29.666 -35.5 -48.999 -49.5s-41.5 -24.833 -66.5 -32.5s-51.833 -11.5 -80.5 -11.5zM440 303.001c-2.66699 26 -8.49902 48.5 -17.499 67.5s-20 34.667 -33 47s-27.833 21.5 -44.5 27.5s-34.334 9 -53.001 9
c-17.333 0 -34.5 -2.83301 -51.5 -8.5s-32.833 -14.667 -47.5 -27s-27.667 -28 -39 -47s-19.333 -41.833 -24 -68.5h310z" />
    <glyph glyph-name="f" unicode="f" horiz-adv-x="328" 
d="M100 439l-75.001 0.000976562v76h75v35c0 33.333 4.5 62.166 13.5 86.499s21.667 44.5 38 60.5s35.666 28 57.999 36s46.833 12 73.5 12c3.33301 0 7 -0.166992 11 -0.5s7.66699 -0.833008 11 -1.5c4 -0.666992 8 -1 12 -1v-73c-4 0 -7.66699 0.333008 -11 1
c-3.33301 0 -6.66602 0.166992 -9.99902 0.5s-6.66602 0.5 -9.99902 0.5c-36 0 -62.333 -9.66699 -79 -29s-25 -50 -25 -92v-35h128v-76h-128v-439h-82v439z" />
    <glyph glyph-name="g" unicode="g" horiz-adv-x="609" 
d="M293 -219c-29.333 0 -57.165 3.66699 -83.498 11s-49.833 18 -70.5 32s-38.334 31.167 -53.001 51.5s-25 43.5 -31 69.5h90c12 -32 30.833 -54.667 56.5 -68s56.167 -20 91.5 -20c32 0 58.167 4.83301 78.5 14.5s36.5 22.667 48.5 39s20.167 35.333 24.5 57
s6.5 44.834 6.5 69.501v68c-15.333 -30.667 -38.333 -55.834 -69 -75.501s-66 -29.5 -106 -29.5c-34 -0 -65.333 6.83301 -94 20.5s-53.334 32.5 -74.001 56.5s-36.834 52.167 -48.501 84.5s-17.5 66.833 -17.5 103.5c0 36 5.83301 70 17.5 102s27.834 60 48.501 84
s45.334 42.833 74.001 56.5s60 20.5 94 20.5c40.667 0 76.5 -10.667 107.5 -32s54.5 -47 70.5 -77v96h79v-478c0 -85.333 -20.833 -149.333 -62.5 -192s-100.834 -64 -177.501 -64zM289.001 75c22 0 42.833 4 62.5 12s36.834 20 51.501 36s26.334 35.667 35.001 59
s13 50 13 80c0 30.667 -4.33301 57.834 -13 81.501s-20.334 43.667 -35.001 60s-31.834 28.666 -51.501 36.999s-40.5 12.5 -62.5 12.5s-43 -4.16699 -63 -12.5s-37.333 -20.666 -52 -36.999s-26.334 -36.333 -35.001 -60s-13 -50.834 -13 -81.501
c0 -30 4.33301 -56.667 13 -80s20.334 -43 35.001 -59s32 -28 52 -36s41 -12 63 -12z" />
    <glyph glyph-name="h" unicode="h" horiz-adv-x="571" 
d="M78 744l82 -0.00195312v-300c17.333 26.667 38.666 47.334 63.999 62.001s55 22 89 22c28 0 53.167 -5 75.5 -15s41.5 -24.333 57.5 -43s28.167 -41 36.5 -67s12.5 -55 12.5 -87v-316h-82v319c0 40 -9.83301 72 -29.5 96s-49.5 36 -89.5 36
c-19.333 0 -37.166 -3.16699 -53.499 -9.5s-30.5 -15.166 -42.5 -26.499s-21.333 -25 -28 -41s-10 -33.667 -10 -53v-321h-82v744z" />
    <glyph glyph-name="i" unicode="i" horiz-adv-x="240" 
d="M79 515h82v-515h-82v515zM75 714h90v-101h-90v101z" />
    <glyph glyph-name="j" unicode="j" horiz-adv-x="240" 
d="M-14 -135h16.001c25.333 0 44.5 6 57.5 18s19.5 32.667 19.5 62v570h82v-571c0 -50 -14.333 -88 -43 -114s-67.334 -39 -116.001 -39h-16v74zM75.001 714h90v-101h-90v101z" />
    <glyph glyph-name="k" unicode="k" horiz-adv-x="527" 
d="M245 251l-85 -90v-161h-82v744h82v-479l234 250h101l-191 -202l209 -313h-100z" />
    <glyph glyph-name="l" unicode="l" horiz-adv-x="242" 
d="M80 744h82v-744h-82v744z" />
    <glyph glyph-name="m" unicode="m" horiz-adv-x="861" 
d="M78 515h79.001v-69c15.333 25.333 35 45.333 59 60s51 22 81 22c32 0 61 -7.83301 87 -23.5s46 -39.167 60 -70.5c16.667 28.667 37.5 51.5 62.5 68.5s56.5 25.5 94.5 25.5c52.667 0 94.5 -16.5 125.5 -49.5s46.5 -81.167 46.5 -144.5v-334h-82v333
c0 40.667 -9.83301 70.5 -29.5 89.5s-46.5 28.5 -80.5 28.5c-32.667 0 -59.834 -10.667 -81.501 -32s-32.5 -51 -32.5 -89v-330h-82v333c0 40.667 -9.83301 70.5 -29.5 89.5s-46.167 28.5 -79.5 28.5s-61 -10.833 -83 -32.5s-33 -51.167 -33 -88.5v-330h-82v515z" />
    <glyph glyph-name="n" unicode="n" horiz-adv-x="571" 
d="M78 515l79 -0.00195312v-74c19.333 28.667 41.666 50.334 66.999 65.001s55 22 89 22c28 0 53.167 -5 75.5 -15s41.5 -24.333 57.5 -43s28.167 -41 36.5 -67s12.5 -55 12.5 -87v-316h-82v319c0 40 -9.83301 72 -29.5 96s-49.5 36 -89.5 36
c-19.333 0 -37.166 -3.16699 -53.499 -9.5s-30.5 -15.166 -42.5 -26.499s-21.333 -25 -28 -41s-10 -33.667 -10 -53v-321h-82v515z" />
    <glyph glyph-name="o" unicode="o" horiz-adv-x="578" 
d="M289 -12c-34.667 0 -67 6.66699 -97 20s-56.167 32 -78.5 56s-39.833 52.333 -52.5 85s-19 68.334 -19 107.001s6.33301 74.667 19 108s30.167 62.166 52.5 86.499s48.5 43.333 78.5 57s62.333 20.5 97 20.5s67.167 -6.83301 97.5 -20.5s56.5 -32.667 78.5 -57
s39.333 -53.166 52 -86.499s19 -69.333 19 -108s-6.33301 -74.334 -19 -107.001s-30 -61 -52 -85s-48.167 -42.667 -78.5 -56s-62.833 -20 -97.5 -20zM289 63c22 0 42.833 4.16699 62.5 12.5s37 20.833 52 37.5s26.833 36.834 35.5 60.501s13 51.167 13 82.5
s-4.33301 59.333 -13 84s-20.5 45.334 -35.5 62.001s-32.333 29.334 -52 38.001s-40.5 13 -62.5 13c-21.333 0 -41.833 -4.33301 -61.5 -13s-37 -21.334 -52 -38.001s-26.833 -37.334 -35.5 -62.001s-13 -52.667 -13 -84s4.33301 -58.833 13 -82.5
s20.5 -43.834 35.5 -60.501s32.333 -29.167 52 -37.5s40.167 -12.5 61.5 -12.5z" />
    <glyph glyph-name="p" unicode="p" horiz-adv-x="611" 
d="M78 515l79 0.000976562v-96c16 30 39.5 55.667 70.5 77s66.833 32 107.5 32c34 0 65.333 -7 94 -21s53.334 -33.333 74.001 -58s36.834 -53.334 48.501 -86.001s17.5 -67.334 17.5 -104.001c0 -37.333 -5.83301 -72.5 -17.5 -105.5s-27.834 -61.833 -48.501 -86.5
s-45.334 -44 -74.001 -58s-60 -21 -94 -21c-40 0 -75.333 9.83301 -106 29.5s-53.667 44.834 -69 75.501v-302h-82v724zM322 63.001c22 0 43 4.16699 63 12.5s37.333 20.833 52 37.5s26.334 36.834 35.001 60.501s13 51.167 13 82.5s-4.33301 59.333 -13 84
s-20.334 45.334 -35.001 62.001s-32 29.334 -52 38.001s-41 13 -63 13s-42.833 -4.33301 -62.5 -13s-36.834 -21.334 -51.501 -38.001s-26.334 -37.334 -35.001 -62.001s-13 -52.667 -13 -84s4.33301 -58.833 13 -82.5s20.334 -43.834 35.001 -60.501
s31.834 -29.167 51.501 -37.5s40.5 -12.5 62.5 -12.5z" />
    <glyph glyph-name="q" unicode="q" horiz-adv-x="611" 
d="M451 93c-15.333 -30.667 -38.333 -55.835 -69 -75.502s-66 -29.5 -106 -29.5c-34 0 -65.333 7 -94 21s-53.334 33.333 -74.001 58s-36.834 53.5 -48.501 86.5s-17.5 68.167 -17.5 105.5c0 36.667 5.83301 71.334 17.5 104.001s27.834 61.334 48.501 86.001
s45.334 44 74.001 58s60 21 94 21c40.667 0 76.5 -10.667 107.5 -32s54.5 -47 70.5 -77v96h79v-724h-82v302zM289 62.999c22 0 42.833 4.16699 62.5 12.5s36.834 20.833 51.501 37.5s26.334 36.834 35.001 60.501s13 51.167 13 82.5s-4.33301 59.333 -13 84
s-20.334 45.334 -35.001 62.001s-31.834 29.334 -51.501 38.001s-40.5 13 -62.5 13s-43 -4.33301 -63 -13s-37.333 -21.334 -52 -38.001s-26.334 -37.334 -35.001 -62.001s-13 -52.667 -13 -84s4.33301 -58.833 13 -82.5s20.334 -43.834 35.001 -60.501s32 -29.167 52 -37.5
s41 -12.5 63 -12.5z" />
    <glyph glyph-name="r" unicode="r" horiz-adv-x="361" 
d="M78 515h79v-87c10 18 21.833 33.333 35.5 46s28 22.667 43 30s30.5 12.333 46.5 15s31 3 45 1v-83c-22.667 2 -44 0.833008 -64 -3.5s-37.667 -12.333 -53 -24s-27.5 -26.667 -36.5 -45s-13.5 -40.5 -13.5 -66.5v-298h-82v515z" />
    <glyph glyph-name="s" unicode="s" horiz-adv-x="505" 
d="M261 -13c-30 0 -57.834 3.83398 -83.501 11.501s-48.334 18.667 -68.001 33s-35.667 31.666 -48 51.999s-20.166 42.833 -23.499 67.5h83c6.66699 -25.333 21.667 -46.5 45 -63.5s55 -25.5 95 -25.5c39.333 0 70 7.66699 92 23s33 34 33 56c0 11.333 -1.5 21.333 -4.5 30
s-9.33301 16.167 -19 22.5s-23.334 12.166 -41.001 17.499s-41.5 10 -71.5 14s-57 9.5 -81 16.5s-44.333 16.5 -61 28.5s-29.5 26.667 -38.5 44s-13.5 38.666 -13.5 63.999c0 18 3.5 36 10.5 54s18.333 34.167 34 48.5s35.667 25.833 60 34.5s53.833 13 88.5 13
c58 0 104.667 -13.667 140 -41s56.333 -64 63 -110h-83c-6.66699 24 -20.667 42.667 -42 56s-47.333 20 -78 20c-37.333 0 -65.166 -7.16699 -83.499 -21.5s-27.5 -31.166 -27.5 -50.499c0 -10.667 2 -19.834 6 -27.501s10.833 -14.5 20.5 -20.5s22.5 -11.167 38.5 -15.5
s36.333 -8.5 61 -12.5c28.667 -4.66699 55.334 -10 80.001 -16s46 -14.5 64 -25.5s32.167 -26 42.5 -45s15.5 -43.833 15.5 -74.5c0 -25.333 -5.16699 -47.666 -15.5 -66.999s-24.5 -35.666 -42.5 -48.999s-39.5 -23.5 -64.5 -30.5s-52.5 -10.5 -82.5 -10.5z" />
    <glyph glyph-name="t" unicode="t" horiz-adv-x="338" 
d="M273 -9c-54 0 -96.668 15.6689 -128.001 47.002s-47 78.666 -47 141.999v259h-75v76h75v147h82v-147h117v-76h-117v-259c0 -42.667 9.16699 -72.167 27.5 -88.5s42.833 -24.5 73.5 -24.5c8.66699 0 14.334 0.333008 17.001 1c2.66699 0 5 0.333008 7 1v-75
c-2.66699 -0.666992 -5.66699 -1.33398 -9 -2.00098s-6.83301 -1 -10.5 -1h-12.5z" />
    <glyph glyph-name="u" unicode="u" horiz-adv-x="571" 
d="M258 -12c-28 0 -53.168 5.00098 -75.501 15.001s-41.5 24.167 -57.5 42.5s-28.167 40.5 -36.5 66.5s-12.5 55 -12.5 87v316h82v-319c0 -40 9.83301 -71.833 29.5 -95.5s49.5 -35.5 89.5 -35.5c18.667 0 36.167 3.16699 52.5 9.5s30.5 15.166 42.5 26.499
s21.5 24.833 28.5 40.5s10.5 33.167 10.5 52.5v321h82v-515h-79v74c-19.333 -28.667 -41.666 -50.167 -66.999 -64.5s-55 -21.5 -89 -21.5z" />
    <glyph glyph-name="v" unicode="v" horiz-adv-x="494" 
d="M15 515h88.002l124 -350c3.33301 -8.66699 6.16602 -17.834 8.49902 -27.501l6.5 -26.5c2.66699 -9.33301 4.66699 -18.666 6 -27.999c1.33301 9.33301 3.33301 18.666 6 27.999l6.5 26.5c2.33301 9.66699 5.16602 18.834 8.49902 27.501l124 350h86l-188 -515h-88z" />
    <glyph glyph-name="w" unicode="w" horiz-adv-x="734" 
d="M17 515l85.999 -0.000976562l94 -334c2 -6 3.83301 -12.667 5.5 -20s3.16699 -14.333 4.5 -21l3.5 -17c1 -4.66699 1.83301 -8 2.5 -10c0.666992 2.66699 2.33398 11.5 5.00098 26.5s6 28.833 10 41.5l96 334h86l97 -334c2 -6.66699 3.83301 -13.834 5.5 -21.501
l4.5 -21.5c1.33301 -6.66699 2.66602 -12.5 3.99902 -17.5s2 -7.83301 2 -8.5c0 0.666992 0.5 3.5 1.5 8.5s2.33301 10.833 4 17.5s3.33398 13.834 5.00098 21.501s3.5 14.834 5.5 21.501l92 334h86l-152 -515h-85l-94 323c-2.66699 8 -5.16699 16.667 -7.5 26
s-4.33301 18 -6 26l-4.5 21c-1.33301 6 -2 10 -2 12c0 -1.33301 -0.666992 -5 -2 -11l-4.5 -21c-1.66699 -8 -3.66699 -16.833 -6 -26.5l-6.5 -26.5l-93 -323h-86z" />
    <glyph glyph-name="x" unicode="x" horiz-adv-x="482" 
d="M190 266l-167 249h98l120 -188l122 188h95l-168 -249l180 -266h-98l-131 206l-134 -206h-95z" />
    <glyph glyph-name="y" unicode="y" horiz-adv-x="494" 
d="M57 -135l10.001 -0.000976562c32 0 57 5.83301 75 17.5s31.667 30.834 41 57.501l23 63l-191 512h89l126 -354c3.33301 -8.66699 6.16602 -17.667 8.49902 -27l6.5 -26c2.66699 -9.33301 4.66699 -19 6 -29c1.33301 10 3.33301 19.667 6 29l6.5 26
c2.33301 9.33301 5.16602 18.333 8.49902 27l121 354h86l-218 -597c-17.333 -47.333 -42.666 -80.333 -75.999 -99s-72.333 -28 -117 -28h-11v74z" />
    <glyph glyph-name="z" unicode="z" horiz-adv-x="463" 
d="M33 67l285 372h-271v76h374v-72l-281 -367h290v-76h-397v67z" />
    <glyph glyph-name="braceleft" unicode="{" horiz-adv-x="353" 
d="M321 -122c-24 -2 -47.334 -0.668945 -70.001 3.99805s-42.667 13.167 -60 25.5s-31.333 29 -42 50s-16 47.167 -16 78.5v174c0 34 -9 56.5 -27 67.5s-42 16.5 -72 16.5v70c30 0 54 5.5 72 16.5s27 33.5 27 67.5v176c0 31.333 5.33301 57.5 16 78.5s24.667 37.667 42 50
s37.333 20.833 60 25.5s46 6 70 4v-73c-35.333 1.33301 -61.166 -5 -77.499 -19s-24.5 -36 -24.5 -66v-173c0 -33.333 -6.66699 -59.666 -20 -78.999s-34 -33.333 -62 -42c28 -9.33301 48.667 -23.666 62 -42.999s20 -46 20 -80v-171c0 -30 8 -52 24 -66s42 -20.333 78 -19
v-73v0z" />
    <glyph glyph-name="bar" unicode="|" horiz-adv-x="229" 
d="M74 744h81v-904h-81v904z" />
    <glyph glyph-name="braceright" unicode="}" horiz-adv-x="345" 
d="M24 -49c35.333 -1.33301 61.167 5.00195 77.5 19.002s24.5 36 24.5 66v173c0 33.333 6.66699 59.666 20 78.999s34 33.333 62 42c-28 9.33301 -48.667 23.666 -62 42.999s-20 46 -20 80v171c0 30 -8 52 -24 66s-42 20.333 -78 19v73c24 2 47.333 0.666992 70 -4
s42.667 -13.167 60 -25.5s31.333 -29 42 -50s16 -47.167 16 -78.5v-174c0 -34 9 -56.5 27 -67.5s42 -16.5 72 -16.5v-70c-30 0 -54 -5.5 -72 -16.5s-27 -33.5 -27 -67.5v-176c0 -31.333 -5.33301 -57.5 -16 -78.5s-24.667 -37.667 -42 -50s-37.333 -20.833 -60 -25.5
s-46 -6 -70 -4v73z" />
    <glyph glyph-name="asciitilde" unicode="~" horiz-adv-x="382" 
d="M29 220c1.33301 13.333 4.33496 26.333 9.00195 39s11 23.834 19 33.501s17.833 17.5 29.5 23.5s25.5 9 41.5 9c14 0 27.167 -2 39.5 -6s24.166 -8.5 35.499 -13.5s22 -9.5 32 -13.5s20 -6 30 -6c11.333 0 20.666 4.33301 27.999 13s11.666 19 12.999 31h46
c-1.33301 -13.333 -4.16602 -26.333 -8.49902 -39s-10.5 -23.834 -18.5 -33.501s-18 -17.5 -30 -23.5s-26 -9 -42 -9c-13.333 0 -26 2 -38 6s-23.667 8.33301 -35 13l-33 13c-10.667 4 -20.667 6 -30 6c-12 0 -21.5 -4.16699 -28.5 -12.5s-11.167 -18.5 -12.5 -30.5h-47v0z
" />
    <glyph glyph-name="exclamdown" unicode="&#xa1;" horiz-adv-x="271" 
d="M100 372h71l12 -477h-95zM90 575h91v-107h-91v107z" />
    <glyph glyph-name="cent" unicode="&#xa2;" horiz-adv-x="545" 
d="M176 27c-40 21.333 -72.332 52.168 -96.999 92.501s-37 85.833 -37 136.5c0 36 6.33301 69.833 19 101.5s30 59.167 52 82.5s48 41.833 78 55.5s62 20.5 96 20.5c14.667 0 28.667 -1 42 -3l36 112h61l-40 -127c31.333 -12.667 57.666 -31.167 78.999 -55.5
s36.666 -53.5 45.999 -87.5h-87c-13.333 33.333 -33.666 56.666 -60.999 69.999l-110 -347c10.667 -2 22 -3 34 -3c34 0 62.833 8 86.5 24s40.5 38 50.5 66h87c-6 -24 -15.667 -46.167 -29 -66.5s-29.666 -37.833 -48.999 -52.5s-41.333 -26 -66 -34
s-51.334 -12 -80.001 -12c-19.333 0 -38 2 -56 6l-37 -116h-61zM127.001 256.002c0 -36.667 6.50098 -68.167 19.501 -94.5s30.5 -46.833 52.5 -61.5l107 340c-3.33301 0 -6.5 0.166992 -9.5 0.5s-6.16699 0.5 -9.5 0.5c-22.667 0 -43.834 -4.16699 -63.501 -12.5
s-36.667 -20.5 -51 -36.5s-25.5 -35.5 -33.5 -58.5s-12 -48.833 -12 -77.5z" />
    <glyph glyph-name="sterling" unicode="&#xa3;" horiz-adv-x="537" 
d="M36 367l59.998 -0.00683594c-9.33301 18 -17.333 37.5 -24 58.5s-10 45.167 -10 72.5c0 28 5.33301 53.833 16 77.5s25.5 44.334 44.5 62.001s41.333 31.334 67 41.001s53.5 14.5 83.5 14.5c30.667 0 58.667 -4.83301 84 -14.5s47 -23.167 65 -40.5
s32 -37.666 42 -60.999s15.667 -49 17 -77h-82c-2.66699 34 -14.334 61.833 -35.001 83.5s-51 32.5 -91 32.5c-39.333 0 -69.666 -10.667 -90.999 -32s-32 -50 -32 -86c0 -23.333 4 -45.666 12 -66.999s16.667 -42.666 26 -63.999h171v-68h-147
c6 -21.333 9 -43.666 9 -66.999c0 -24 -5.16699 -50.333 -15.5 -79s-30.166 -55.667 -59.499 -81c17.333 9.33301 32.5 15.333 45.5 18s25.5 4 37.5 4c16.667 0 31.5 -1.5 44.5 -4.5s25.5 -6.16699 37.5 -9.5s24.167 -6.5 36.5 -9.5s25.5 -4.5 39.5 -4.5
c24.667 0 48 8.66699 70 26l42 -63c-18 -15.333 -36.167 -26 -54.5 -32s-36.5 -9 -54.5 -9c-22 0 -41.167 2 -57.5 6s-31.5 8.5 -45.5 13.5l-41 14c-13.333 4.33301 -28 6.5 -44 6.5s-32.667 -2.83301 -50 -8.5s-36.666 -16.167 -57.999 -31.5l-45 70
c31.333 22 54.833 46.833 70.5 74.5s23.5 61.167 23.5 100.5c0 12 -1.33301 23.333 -4 34s-6 21.334 -10 32.001h-93v68z" />
    <glyph glyph-name="yen" unicode="&#xa5;" horiz-adv-x="535" 
d="M39 336h157l-185 344h93l166 -325l166 325h88l-186 -344h157v-56h-184v-88h184v-56h-184v-136h-88v136h-184v56h184v88h-184v56z" />
    <glyph glyph-name="brokenbar" unicode="&#xa6;" horiz-adv-x="229" 
d="M74 261h81v-421h-81v421zM74 744h81v-403h-81v403z" />
    <glyph glyph-name="section" unicode="&#xa7;" horiz-adv-x="532" 
d="M277 -83c-26 0 -50.1689 3.82812 -72.502 11.4951s-41.666 18.167 -57.999 31.5s-29.166 29.5 -38.499 48.5s-14 39.5 -14 61.5h81c4 -23.333 13.667 -42.166 29 -56.499s39.666 -21.5 72.999 -21.5c28 0 49.5 6 64.5 18s22.5 31.333 22.5 58
c0 11.333 -1.66699 21.5 -5 30.5s-9.5 17.333 -18.5 25s-21.5 14.834 -37.5 21.501s-36.333 13.334 -61 20.001c-30.667 8 -58.167 16.667 -82.5 26s-44.833 20.333 -61.5 33s-29.5 28 -38.5 46s-13.5 40 -13.5 66c0 24 6.5 45.833 19.5 65.5s30.167 35.5 51.5 47.5
c-18.667 24 -28 54.333 -28 91c0 22.667 4.33301 43.334 13 62.001s20.667 34.667 36 48s34 23.833 56 31.5s46.333 11.5 73 11.5c26 0 50 -3.66699 72 -11s41 -17.833 57 -31.5s28.5 -30.334 37.5 -50.001s13.5 -41.5 13.5 -65.5h-80c-2.66699 22 -11.667 41.167 -27 57.5
s-39.666 24.5 -72.999 24.5c-28 0 -50.833 -6.16699 -68.5 -18.5s-26.5 -31.833 -26.5 -58.5c0 -11.333 1.83301 -21.333 5.5 -30s10 -16.667 19 -24s21.333 -14.166 37 -20.499s35.834 -12.5 60.501 -18.5c32 -8 60.167 -16.5 84.5 -25.5s44.666 -20 60.999 -33
s28.833 -28.5 37.5 -46.5s13 -40 13 -66c0 -24.667 -6.83301 -47 -20.5 -67s-31.167 -35.667 -52.5 -47c20 -25.333 30 -56.666 30 -93.999c0 -45.333 -14.833 -81.833 -44.5 -109.5s-71.5 -41.5 -125.5 -41.5zM274.998 367.995c-20 5.33301 -38.501 10.832 -55.501 16.499
s-32.833 12.167 -47.5 19.5c-30 -16.667 -45 -38 -45 -64c0 -10.667 1.66699 -20.334 5 -29.001s9.83301 -16.667 19.5 -24s23.334 -14.5 41.001 -21.5s40.5 -14.167 68.5 -21.5c40.667 -10.667 74.334 -23 101.001 -37c31.333 16.667 47 38.334 47 65.001
c0 10.667 -1.66699 20.334 -5 29.001s-9.83301 16.667 -19.5 24s-23.334 14.5 -41.001 21.5s-40.5 14.167 -68.5 21.5z" />
    <glyph glyph-name="dieresis" unicode="&#xa8;" horiz-adv-x="500" 
d="M296 688h93v-95h-93v95zM111 688h92v-95h-92v95z" />
    <glyph glyph-name="copyright" unicode="&#xa9;" horiz-adv-x="774" 
d="M387 -12c-47.333 0 -92 9.33301 -134 28s-78.5 44 -109.5 76s-55.5 69.5 -73.5 112.5s-27 89.167 -27 138.5c0 48.667 9 94.5 27 137.5s42.5 80.5 73.5 112.5s67.5 57.333 109.5 76s86.667 28 134 28s92 -9.33301 134 -28s78.5 -44 109.5 -76s55.5 -69.5 73.5 -112.5
s27 -88.833 27 -137.5c0 -49.333 -9 -95.5 -27 -138.5s-42.5 -80.5 -73.5 -112.5s-67.5 -57.333 -109.5 -76s-86.667 -28 -134 -28zM387 37c40 0 77.5 8 112.5 24s65.5 37.833 91.5 65.5s46.5 60 61.5 97s22.5 76.833 22.5 119.5c0 42 -7.5 81.667 -22.5 119
s-35.5 69.666 -61.5 96.999s-56.5 49 -91.5 65s-72.5 24 -112.5 24s-77.5 -8 -112.5 -24s-65.5 -37.667 -91.5 -65s-46.5 -59.666 -61.5 -96.999s-22.5 -77 -22.5 -119c0 -42.667 7.5 -82.5 22.5 -119.5s35.5 -69.333 61.5 -97s56.5 -49.5 91.5 -65.5s72.5 -24 112.5 -24z
M387 131c-27.333 0 -52.832 5.50391 -76.499 16.5039s-44.334 26.167 -62.001 45.5s-31.667 41.833 -42 67.5s-15.5 53.167 -15.5 82.5c0 28.667 5.16699 55.834 15.5 81.501s24.333 48.167 42 67.5s38.334 34.5 62.001 45.5s49.167 16.5 76.5 16.5c22 0 43 -3.5 63 -10.5
s38 -17 54 -30s30 -28.333 42 -46s21 -36.834 27 -57.501h-76c-9.33301 22 -23.833 39.333 -43.5 52s-41.834 19 -66.501 19c-17.333 0 -33.333 -3.66699 -48 -11s-27.167 -17.333 -37.5 -30s-18.5 -27.334 -24.5 -44.001s-9 -34.334 -9 -53.001c0 -19.333 3 -37.333 9 -54
s14.167 -31.334 24.5 -44.001s22.833 -22.667 37.5 -30s30.667 -11 48 -11c24 0 45.833 6.5 65.5 19.5s34.5 30.5 44.5 52.5h75c-6 -21.333 -15 -40.833 -27 -58.5s-26.167 -32.834 -42.5 -45.501s-34.333 -22.667 -54 -30s-40.167 -11 -61.5 -11z" />
    <glyph glyph-name="ordfeminine" unicode="&#xaa;" horiz-adv-x="434" 
d="M176 261c-18.667 0 -36.665 2.33203 -53.998 6.99902s-32.5 11.667 -45.5 21s-23.333 21.333 -31 36s-11.5 31.667 -11.5 51c0 22 4.16699 40.333 12.5 55s20.5 27 36.5 37s35.5 18.167 58.5 24.5s49.167 12.166 78.5 17.499c30 5.33301 52 11.5 66 18.5
s21 19.833 21 38.5c0 40.667 -28.667 61 -86 61c-25.333 0 -45.666 -5.83301 -60.999 -17.5s-24.333 -27.5 -27 -47.5h-79c2 38.667 18.167 70 48.5 94s70.166 36 119.499 36c54 0 94.5 -11.167 121.5 -33.5s40.5 -53.166 40.5 -92.499v-213
c0 -16.667 1.83301 -32.667 5.5 -48s7.16699 -27 10.5 -35h-76c-2.66699 6 -5.5 13.333 -8.5 22s-5.16699 19.334 -6.5 32.001c-12.667 -18.667 -29.834 -34 -51.501 -46s-48.834 -18 -81.501 -18zM177.002 323.999c17.333 0 34 2.16504 50 6.49805s30 10.666 42 18.999
s21.5 18.833 28.5 31.5s10.5 27.334 10.5 44.001v60c-6.66699 -5.33301 -15.5 -10.666 -26.5 -15.999s-26.167 -10 -45.5 -14c-23.333 -5.33301 -43 -10.166 -59 -14.499s-29 -9.16602 -39 -14.499s-17.333 -11.833 -22 -19.5s-7 -16.834 -7 -27.501c0 -18 6 -31.667 18 -41
s28.667 -14 50 -14z" />
    <glyph glyph-name="guillemotleft" unicode="&#xab;" horiz-adv-x="473" 
d="M30 219v81l186 165v-108l-116 -97l116 -99v-107zM253 219v78l185 168v-108l-118 -97l118 -99v-107z" />
    <glyph glyph-name="logicalnot" unicode="&#xac;" horiz-adv-x="231" 
d="M64 391h103v-109h-103v109z" />
    <glyph glyph-name="registered" unicode="&#xae;" horiz-adv-x="542" 
d="M271 200c-33.333 0 -64.666 6.33301 -93.999 19s-54.833 30 -76.5 52s-38.834 48.167 -51.501 78.5s-19 63.166 -19 98.499s6.33301 68.166 19 98.499s29.834 56.5 51.501 78.5s47.167 39.333 76.5 52s60.666 19 93.999 19s64.666 -6.33301 93.999 -19
s54.833 -30 76.5 -52s38.834 -48.167 51.501 -78.5s19 -63.166 19 -98.499s-6.33301 -68.166 -19 -98.499s-29.834 -56.5 -51.501 -78.5s-47.167 -39.333 -76.5 -52s-60.666 -19 -93.999 -19zM271 244c28 0 53.667 5.33301 77 16s43.333 25.167 60 43.5s29.667 40 39 65
s14 51.5 14 79.5s-4.66699 54.333 -14 79s-22.333 46.334 -39 65.001s-36.667 33.334 -60 44.001s-49 16 -77 16c-28.667 0 -54.667 -5.33301 -78 -16s-43.333 -25.334 -60 -44.001s-29.667 -40.334 -39 -65.001s-14 -51 -14 -79s4.66699 -54.5 14 -79.5
s22.333 -46.667 39 -65s36.667 -32.833 60 -43.5s49.333 -16 78 -16zM326 382c0 13.333 -3.16797 22.667 -9.50098 28s-15.166 8 -26.499 8h-63v-96h-55v259h117c26 0 48 -6.83301 66 -20.5s27 -33.167 27 -58.5c0 -28 -13.333 -47 -40 -57
c10 -3.33301 19 -9.83301 27 -19.5s12 -24.167 12 -43.5v-61h-55v61zM285.999 466.001c11.333 0 20.5 3 27.5 9s10.5 14.667 10.5 26c0 22.667 -12.667 34 -38 34h-59v-69h59z" />
    <glyph glyph-name="macron" unicode="&#xaf;" horiz-adv-x="500" 
d="M119 692h262v-70h-262v70z" />
    <glyph glyph-name="macron" unicode="&#x2c9;" horiz-adv-x="500" 
d="M119 692h262v-70h-262v70z" />
    <glyph glyph-name="degree" unicode="&#xb0;" horiz-adv-x="373" 
d="M186 379c-20 0 -39 4 -57 12s-33.833 18.833 -47.5 32.5s-24.5 29.667 -32.5 48s-12 37.833 -12 58.5s4 40 12 58s18.833 33.833 32.5 47.5s29.5 24.5 47.5 32.5s37 12 57 12s39.167 -4 57.5 -12s34.333 -18.833 48 -32.5s24.5 -29.5 32.5 -47.5s12 -37.333 12 -58
s-4 -40.167 -12 -58.5s-18.833 -34.333 -32.5 -48s-29.667 -24.5 -48 -32.5s-37.5 -12 -57.5 -12zM186 438c25.333 0 45.833 8.83301 61.5 26.5s23.5 39.5 23.5 65.5c0 25.333 -7.83301 47 -23.5 65s-36.167 27 -61.5 27c-24.667 0 -45 -9 -61 -27s-24 -39.667 -24 -65
c0 -26 8 -47.833 24 -65.5s36.333 -26.5 61 -26.5z" />
    <glyph glyph-name="plusminus" unicode="&#xb1;" horiz-adv-x="231" 
d="M64 391h103v-109h-103v109z" />
    <glyph glyph-name="twosuperior" unicode="&#xb2;" horiz-adv-x="345" 
d="M29 303c0 22.667 3.50098 42.499 10.501 59.499s16.167 32.167 27.5 45.5s24.5 25 39.5 35s30.5 19.333 46.5 28c19.333 10.667 34.666 20 45.999 28s20 15.5 26 22.5s10 14 12 21s3 14.5 3 22.5c0 14.667 -4.66699 28 -14 40s-26.333 18 -51 18
c-23.333 0 -41.166 -7.5 -53.499 -22.5s-18.833 -34.167 -19.5 -57.5h-67c0 18.667 3 36.5 9 53.5s14.833 32 26.5 45s26.167 23.333 43.5 31s37.666 11.5 60.999 11.5c22 0 41.5 -3.33301 58.5 -10s31 -15.5 42 -26.5s19.333 -23.667 25 -38s8.5 -29.166 8.5 -44.499
c0 -19.333 -3 -36 -9 -50s-14.5 -26.5 -25.5 -37.5s-24.167 -21.167 -39.5 -30.5l-50 -29c-24 -13.333 -43.5 -26.5 -58.5 -39.5s-23.167 -27.5 -24.5 -43.5h204v-63h-277v31z" />
    <glyph glyph-name="threesuperior" unicode="&#xb3;" horiz-adv-x="344" 
d="M170 265c-24 0 -45 3.49609 -63 10.4961s-33 16.5 -45 28.5s-21.167 26 -27.5 42s-9.83301 33 -10.5 51h67c1.33301 -21.333 8.33301 -38.333 21 -51s32 -19 58 -19c24 0 42.833 6.16699 56.5 18.5s20.5 27.833 20.5 46.5s-5.5 33.834 -16.5 45.501
s-31.5 17.5 -61.5 17.5h-23v59h12c30 0 50.167 5 60.5 15s15.5 23 15.5 39c0 17.333 -5.33301 30.833 -16 40.5s-26 14.5 -46 14.5c-24.667 0 -42.334 -6.83301 -53.001 -20.5s-16.334 -29.167 -17.001 -46.5h-66c0 18 3.16699 34.833 9.5 50.5s15.333 29.167 27 40.5
s25.834 20.333 42.501 27s35.334 10 56.001 10c21.333 0 40.166 -3 56.499 -9s30 -14.167 41 -24.5s19.167 -22.166 24.5 -35.499s8 -27 8 -41c0 -19.333 -4.66699 -36.166 -14 -50.499s-23 -25.5 -41 -33.5c24 -8 41.5 -20.667 52.5 -38s16.5 -37.666 16.5 -60.999
c0 -16 -3.16699 -31.667 -9.5 -47s-15.666 -28.833 -27.999 -40.5s-27.5 -21 -45.5 -28s-38.667 -10.5 -62 -10.5z" />
    <glyph glyph-name="acute" unicode="&#xb4;" horiz-adv-x="500" 
d="M277 740h109l-97 -147h-76z" />
    <glyph glyph-name="mu" unicode="&#xb5;" horiz-adv-x="231" 
d="M64 391h103v-109h-103v109z" />
    <glyph glyph-name="mu" unicode="&#x3bc;" horiz-adv-x="231" 
d="M64 391h103v-109h-103v109z" />
    <glyph glyph-name="paragraph" unicode="&#xb6;" horiz-adv-x="537" 
d="M226 269c-31.333 2 -58.9971 8.33398 -82.9971 19.001s-44.333 25 -61 43s-29.334 39.167 -38.001 63.5s-13 50.833 -13 79.5c0 30 4.66699 57.667 14 83s23.166 47.166 41.499 65.499s40.666 32.5 66.999 42.5s56.5 15 90.5 15h226v-820h-76v747h-92v-747h-76v409z" />
    <glyph glyph-name="periodcentered" unicode="&#xb7;" horiz-adv-x="231" 
d="M64 391h103v-109h-103v109z" />
    <glyph glyph-name="periodcentered" unicode="&#x2219;" horiz-adv-x="231" 
d="M64 391h103v-109h-103v109z" />
    <glyph glyph-name="cedilla" unicode="&#xb8;" horiz-adv-x="500" 
d="M261 -55c2.66699 0.666992 7.33398 1.00098 14.001 1.00098c24.667 0 46.167 -7.83301 64.5 -23.5s27.5 -37.5 27.5 -65.5c0 -15.333 -3 -28.833 -9 -40.5s-14 -21.334 -24 -29.001s-21.667 -13.5 -35 -17.5s-27 -6 -41 -6c-28.667 0 -54 7.16699 -76 21.5
s-35 33.5 -39 57.5h63c3.33301 -8 9 -14.667 17 -20s18.333 -8 31 -8c13.333 0 24.333 3.83301 33 11.5s13 17.5 13 29.5c0 12.667 -4.33301 23 -13 31s-19.334 12 -32.001 12c-8 0 -15.167 -1.66699 -21.5 -5s-11.833 -7 -16.5 -11l-35 28l51 89h64z" />
    <glyph glyph-name="onesuperior" unicode="&#xb9;" horiz-adv-x="242" 
d="M95 573l-65 0.000976562v46c20 0.666992 37.333 5.66699 52 15s22.667 24.666 24 45.999h57v-408h-68v301z" />
    <glyph glyph-name="ordmasculine" unicode="&#xba;" horiz-adv-x="464" 
d="M232 261c-27.333 0 -53.166 5.33301 -77.499 16s-45.5 25.5 -63.5 44.5s-32.333 41.667 -43 68s-16 54.833 -16 85.5c0 31.333 5.33301 60.333 16 87s25 49.667 43 69s39.167 34.5 63.5 45.5s50.166 16.5 77.499 16.5c28 0 54.167 -5.5 78.5 -16.5
s45.5 -26.167 63.5 -45.5s32.167 -42.333 42.5 -69s15.5 -55.667 15.5 -87c0 -30.667 -5.16699 -59.167 -15.5 -85.5s-24.5 -49 -42.5 -68s-39.167 -33.833 -63.5 -44.5s-50.5 -16 -78.5 -16zM232 327c35.333 0 64.5 12.667 87.5 38s34.5 62 34.5 110
c0 48.667 -11.5 86.167 -34.5 112.5s-52.167 39.5 -87.5 39.5c-34.667 0 -63.667 -13.167 -87 -39.5s-35 -63.833 -35 -112.5c0 -48 11.667 -84.667 35 -110s52.333 -38 87 -38z" />
    <glyph glyph-name="guillemotright" unicode="&#xbb;" horiz-adv-x="473" 
d="M257 162l116 97l-116 99v107l186 -165v-81l-186 -165v108zM35 162l118 97l-118 99v107l185 -165v-78l-185 -168v108z" />
    <glyph glyph-name="onequarter" unicode="&#xbc;" horiz-adv-x="780" 
d="M638 88h-187v58l175 262h77v-260h43v-60h-43v-88h-65v88zM515 680h78l-383 -680h-77zM101 573l-65 0.000976562v46c20 0.666992 37.333 5.66699 52 15s22.667 24.666 24 45.999h57v-408h-68v301zM638 148.001v175l-118 -175h118z" />
    <glyph glyph-name="onehalf" unicode="&#xbd;" horiz-adv-x="814" 
d="M492 31c0 22.667 3.50098 42.499 10.501 59.499s16.167 32.167 27.5 45.5s24.5 25 39.5 35s30.5 19.333 46.5 28c19.333 10.667 34.666 20 45.999 28s20 15.5 26 22.5s10 14 12 21s3 14.5 3 22.5c0 14.667 -4.66699 28 -14 40s-26.333 18 -51 18
c-23.333 0 -41.166 -7.5 -53.499 -22.5s-18.833 -34.167 -19.5 -57.5h-67c0 18.667 3 36.5 9 53.5s14.833 32 26.5 45s26.167 23.333 43.5 31s37.666 11.5 60.999 11.5c22 0 41.5 -3.33301 58.5 -10s31 -15.5 42 -26.5s19.333 -23.667 25 -38s8.5 -29.166 8.5 -44.499
c0 -19.333 -3 -36 -9 -50s-14.5 -26.5 -25.5 -37.5s-24.167 -21.167 -39.5 -30.5l-50 -29c-24 -13.333 -43.5 -26.5 -58.5 -39.5s-23.167 -27.5 -24.5 -43.5h204v-63h-277v31zM515.001 679.999h78l-383 -680h-77zM101.001 572.999l-65 0.000976562v46
c20 0.666992 37.333 5.66699 52 15s22.667 24.666 24 45.999h57v-408h-68v301z" />
    <glyph glyph-name="threequarters" unicode="&#xbe;" horiz-adv-x="882" 
d="M740 88h-187v58l175 262h77v-260h43v-60h-43v-88h-65v88zM176 265c-24 0 -45 3.49609 -63 10.4961s-33 16.5 -45 28.5s-21.167 26 -27.5 42s-9.83301 33 -10.5 51h67c1.33301 -21.333 8.33301 -38.333 21 -51s32 -19 58 -19c24 0 42.833 6.16699 56.5 18.5
s20.5 27.833 20.5 46.5s-5.5 33.834 -16.5 45.501s-31.5 17.5 -61.5 17.5h-23v59h12c30 0 50.167 5 60.5 15s15.5 23 15.5 39c0 17.333 -5.33301 30.833 -16 40.5s-26 14.5 -46 14.5c-24.667 0 -42.334 -6.83301 -53.001 -20.5s-16.334 -29.167 -17.001 -46.5h-66
c0 18 3.16699 34.833 9.5 50.5s15.333 29.167 27 40.5s25.834 20.333 42.501 27s35.334 10 56.001 10c21.333 0 40.166 -3 56.499 -9s30 -14.167 41 -24.5s19.167 -22.166 24.5 -35.499s8 -27 8 -41c0 -19.333 -4.66699 -36.166 -14 -50.499s-23 -25.5 -41 -33.5
c24 -8 41.5 -20.667 52.5 -38s16.5 -37.666 16.5 -60.999c0 -16 -3.16699 -31.667 -9.5 -47s-15.666 -28.833 -27.999 -40.5s-27.5 -21 -45.5 -28s-38.667 -10.5 -62 -10.5zM617 679.996h78l-383 -680h-77zM740 147.996v175l-118 -175h118z" />
    <glyph glyph-name="questiondown" unicode="&#xbf;" horiz-adv-x="510" 
d="M253 -118c-31.333 0 -59.665 3.99707 -84.998 11.9971s-47 19.333 -65 34s-31.833 32.667 -41.5 54s-14.5 45 -14.5 71c0 23.333 3.16699 44 9.5 62s14.666 34.167 24.999 48.5s21.833 27 34.5 38s25.334 21.167 38.001 30.5l33.5 25.5
c10.333 7.66699 19.333 15.834 27 24.501s13.667 18.667 18 30s6.5 25.666 6.5 42.999v17h76v-17c0 -26.667 -2.83301 -49 -8.5 -67s-13.5 -33.5 -23.5 -46.5s-22 -24.833 -36 -35.5l-45 -34c-23.333 -17.333 -40.5 -34.666 -51.5 -51.999s-16.5 -38.666 -16.5 -63.999
c0 -33.333 10.167 -58.166 30.5 -74.499s49.833 -24.5 88.5 -24.5c42 0 74.667 11.5 98 34.5s35.666 52.167 36.999 87.5h82c0 -26 -5 -51 -15 -75s-24.333 -45 -43 -63s-41.334 -32.333 -68.001 -43s-57 -16 -91 -16zM232.001 574.997h91v-107h-91v107z" />
    <glyph glyph-name="Agrave" unicode="&#xc0;" horiz-adv-x="617" 
d="M266 680h90l244 -680h-90l-64 181h-277l-64 -181h-88zM197 259h221.999l-86 246l-24 82l-8 -29c-2.66699 -8 -5.16699 -16.833 -7.5 -26.5s-5.16602 -18.5 -8.49902 -26.5zM167.999 877h109l64 -147h-76z" />
    <glyph glyph-name="Aacute" unicode="&#xc1;" horiz-adv-x="617" 
d="M266 680h90l244 -680h-90l-64 181h-277l-64 -181h-88zM197 259h221.999l-86 246l-24 82l-8 -29c-2.66699 -8 -5.16699 -16.833 -7.5 -26.5s-5.16602 -18.5 -8.49902 -26.5zM340.999 877h109l-97 -147h-76z" />
    <glyph glyph-name="Acircumflex" unicode="&#xc2;" horiz-adv-x="617" 
d="M266 680h90l244 -680h-90l-64 181h-277l-64 -181h-88zM197 259h221.999l-86 246l-24 82l-8 -29c-2.66699 -8 -5.16699 -16.833 -7.5 -26.5s-5.16602 -18.5 -8.49902 -26.5zM276.999 884h64l114 -154h-74l-72 79l-72 -79h-73z" />
    <glyph glyph-name="Atilde" unicode="&#xc3;" horiz-adv-x="617" 
d="M266 680h90l244 -680h-90l-64 181h-277l-64 -181h-88zM197 259h221.999l-86 246l-24 82l-8 -29c-2.66699 -8 -5.16699 -16.833 -7.5 -26.5s-5.16602 -18.5 -8.49902 -26.5zM145.999 727c3.33301 34 14.166 62.5 32.499 85.5s42.166 34.5 71.499 34.5
c14 0 26.833 -2.5 38.5 -7.5s22.5 -10.333 32.5 -16l28.5 -16c9 -5 17.833 -7.5 26.5 -7.5c12 0 21.333 4.5 28 13.5s10.667 20.167 12 33.5h56c-3.33301 -34 -14.166 -62.5 -32.499 -85.5s-42.166 -34.5 -71.499 -34.5c-14 0 -26.833 2.5 -38.5 7.5s-22.5 10.333 -32.5 16
l-28.5 16c-9 5 -17.833 7.5 -26.5 7.5c-11.333 0 -20.5 -4.5 -27.5 -13.5s-11.167 -20.167 -12.5 -33.5h-56z" />
    <glyph glyph-name="Adieresis" unicode="&#xc4;" horiz-adv-x="617" 
d="M266 680h90l244 -680h-90l-64 181h-277l-64 -181h-88zM197 259h221.999l-86 246l-24 82l-8 -29c-2.66699 -8 -5.16699 -16.833 -7.5 -26.5s-5.16602 -18.5 -8.49902 -26.5zM354.999 825h93v-95h-93v95zM169.999 825h92v-95h-92v95z" />
    <glyph glyph-name="Aring" unicode="&#xc5;" horiz-adv-x="617" 
d="M266 680h90l244 -680h-90l-64 181h-277l-64 -181h-88zM197 259h221.999l-86 246l-24 82l-8 -29c-2.66699 -8 -5.16699 -16.833 -7.5 -26.5s-5.16602 -18.5 -8.49902 -26.5zM307.999 717c-16 0 -30.833 2.83301 -44.5 8.5s-25.5 13.5 -35.5 23.5s-18 21.833 -24 35.5
s-9 28.167 -9 43.5c0 16 3 30.833 9 44.5s14 25.5 24 35.5s21.833 17.833 35.5 23.5s28.5 8.5 44.5 8.5c15.333 0 29.833 -2.83301 43.5 -8.5s25.667 -13.5 36 -23.5s18.5 -21.833 24.5 -35.5s9 -28.5 9 -44.5c0 -15.333 -3 -29.833 -9 -43.5s-14.167 -25.5 -24.5 -35.5
s-22.333 -17.833 -36 -23.5s-28.167 -8.5 -43.5 -8.5zM307.999 763c17.333 0 31.833 6.16699 43.5 18.5s17.5 27.833 17.5 46.5s-5.83301 34.334 -17.5 47.001s-26.167 19 -43.5 19s-31.833 -6.33301 -43.5 -19s-17.5 -28.334 -17.5 -47.001s5.83301 -34.167 17.5 -46.5
s26.167 -18.5 43.5 -18.5z" />
    <glyph glyph-name="AE" unicode="&#xc6;" horiz-adv-x="928" 
d="M328 680h547v-79h-332v-204h278v-79h-278v-239h337v-79h-425v198h-264l-92 -198h-88zM227 276h228v325h-76z" />
    <glyph glyph-name="Ccedilla" unicode="&#xc7;" horiz-adv-x="696" 
d="M287 -89l45.002 80.001c-40 4.66699 -77.333 16.5 -112 35.5s-65 43.667 -91 74s-46.5 66 -61.5 107s-22.5 85.5 -22.5 133.5c0 52 8.66699 99.5 26 142.5s40.833 80 70.5 111s64.167 55.167 103.5 72.5s81.333 26 126 26c78.667 0 142.5 -20.167 191.5 -60.5
s82.5 -94.5 100.5 -162.5h-86c-15.333 44 -39.333 79.333 -72 106s-77.334 40 -134.001 40c-33.333 0 -64.333 -6.5 -93 -19.5s-53.5 -31.333 -74.5 -55s-37.5 -52.5 -49.5 -86.5s-18 -72 -18 -114s6 -80 18 -114s28.667 -63 50 -87s46.5 -42.5 75.5 -55.5
s60.167 -19.5 93.5 -19.5c50.667 0 94.167 13.667 130.5 41s61.166 64 74.499 110h89c-18.667 -68 -51.167 -121.833 -97.5 -161.5s-104.833 -61.5 -175.5 -65.5l-28 -44c2.66699 0.666992 7.33398 1 14.001 1c24.667 0 46.167 -7.83301 64.5 -23.5s27.5 -37.5 27.5 -65.5
c0 -15.333 -3 -28.833 -9 -40.5s-14 -21.334 -24 -29.001s-21.667 -13.5 -35 -17.5s-27 -6 -41 -6c-28.667 0 -54 7.16699 -76 21.5s-35 33.5 -39 57.5h63c3.33301 -8 9 -14.667 17 -20s18.333 -8 31 -8c13.333 0 24.333 3.83301 33 11.5s13 17.5 13 29.5
c0 12.667 -4.33301 23 -13 31s-19.334 12 -32.001 12c-8 0 -15.167 -1.66699 -21.5 -5s-11.833 -7 -16.5 -11z" />
    <glyph glyph-name="Egrave" unicode="&#xc8;" horiz-adv-x="587" 
d="M86 680h448v-79h-360v-204h306v-79h-306v-239h365v-79h-453v680zM175 877h109l64 -147h-76z" />
    <glyph glyph-name="Eacute" unicode="&#xc9;" horiz-adv-x="587" 
d="M86 680h448v-79h-360v-204h306v-79h-306v-239h365v-79h-453v680zM328 877h109l-97 -147h-76z" />
    <glyph glyph-name="Ecircumflex" unicode="&#xca;" horiz-adv-x="587" 
d="M86 680h448v-79h-360v-204h306v-79h-306v-239h365v-79h-453v680zM278 884h64l114 -154h-74l-72 79l-72 -79h-73z" />
    <glyph glyph-name="Edieresis" unicode="&#xcb;" horiz-adv-x="587" 
d="M86 680h448v-79h-360v-204h306v-79h-306v-239h365v-79h-453v680zM362 825h93v-95h-93v95zM177 825h92v-95h-92v95z" />
    <glyph glyph-name="Igrave" unicode="&#xcc;" horiz-adv-x="266" 
d="M89 680h88v-680h-88v680zM-8 877h109l64 -147h-76z" />
    <glyph glyph-name="Iacute" unicode="&#xcd;" horiz-adv-x="266" 
d="M89 680h88v-680h-88v680zM165 877h109l-97 -147h-76z" />
    <glyph glyph-name="Icircumflex" unicode="&#xce;" horiz-adv-x="266" 
d="M89 680h88v-680h-88v680zM101 884h64l114 -154h-74l-72 79l-72 -79h-73z" />
    <glyph glyph-name="Idieresis" unicode="&#xcf;" horiz-adv-x="266" 
d="M89 680h88v-680h-88v680zM179 825h93v-95h-93v95zM-6 825h92v-95h-92v95z" />
    <glyph glyph-name="Eth" unicode="&#xd0;" horiz-adv-x="679" 
d="M23 393l63 0.000976562v287h225c49.333 0 93.833 -7.83301 133.5 -23.5s73.5 -38 101.5 -67s49.667 -64.5 65 -106.5s23 -89.333 23 -142s-7.66699 -100 -23 -142s-37 -77.833 -65 -107.5s-61.833 -52.334 -101.5 -68.001s-84.167 -23.5 -133.5 -23.5h-225v317h-63v76z
M311 78.001c34 0 65.166 5.16797 93.499 15.501s52.833 26.166 73.5 47.499s36.667 48.5 48 81.5s17 72.5 17 118.5c0 46.667 -5.83301 86.5 -17.5 119.5s-27.667 60 -48 81s-44.666 36.333 -72.999 46s-59.5 14.5 -93.5 14.5h-137v-209h188v-76h-188v-239h137z" />
    <glyph glyph-name="Ntilde" unicode="&#xd1;" horiz-adv-x="686" 
d="M86 680h97l337 -543v543h80v-680h-89l-345 555v-555h-80v680zM188 727c3.33301 34 14.166 62.5 32.499 85.5s42.166 34.5 71.499 34.5c14 0 26.833 -2.5 38.5 -7.5s22.5 -10.333 32.5 -16l28.5 -16c9 -5 17.833 -7.5 26.5 -7.5c12 0 21.333 4.5 28 13.5
s10.667 20.167 12 33.5h56c-3.33301 -34 -14.166 -62.5 -32.499 -85.5s-42.166 -34.5 -71.499 -34.5c-14 0 -26.833 2.5 -38.5 7.5s-22.5 10.333 -32.5 16l-28.5 16c-9 5 -17.833 7.5 -26.5 7.5c-11.333 0 -20.5 -4.5 -27.5 -13.5s-11.167 -20.167 -12.5 -33.5h-56z" />
    <glyph glyph-name="Ograve" unicode="&#xd2;" horiz-adv-x="748" 
d="M374 -12c-45.333 0 -88 8.66699 -128 26s-74.833 41.5 -104.5 72.5s-53.167 68.167 -70.5 111.5s-26 91 -26 143s8.66699 99.5 26 142.5s40.833 80 70.5 111s64.5 55.167 104.5 72.5s82.667 26 128 26c46 0 89 -8.33301 129 -25s74.833 -40.5 104.5 -71.5
s53 -68.167 70 -111.5s25.5 -91.333 25.5 -144c0 -52 -8.66699 -99.667 -26 -143s-40.833 -80.5 -70.5 -111.5s-64.5 -55.167 -104.5 -72.5s-82.667 -26 -128 -26zM374 65c34 0 65.5 6.49902 94.5 19.499s54.167 31.5 75.5 55.5s38 53 50 87s18 72 18 114
c0 42.667 -5.83301 81 -17.5 115s-28 62.833 -49 86.5s-46.167 41.834 -75.5 54.501s-61.333 19 -96 19c-34 0 -65.5 -6.5 -94.5 -19.5s-54.167 -31.333 -75.5 -55s-38 -52.5 -50 -86.5s-18 -72 -18 -114s6 -80 18 -114s28.667 -63 50 -87s46.5 -42.5 75.5 -55.5
s60.5 -19.5 94.5 -19.5zM232 876.999h109l64 -147h-76z" />
    <glyph glyph-name="Oacute" unicode="&#xd3;" horiz-adv-x="748" 
d="M374 -12c-45.333 0 -88 8.66699 -128 26s-74.833 41.5 -104.5 72.5s-53.167 68.167 -70.5 111.5s-26 91 -26 143s8.66699 99.5 26 142.5s40.833 80 70.5 111s64.5 55.167 104.5 72.5s82.667 26 128 26c46 0 89 -8.33301 129 -25s74.833 -40.5 104.5 -71.5
s53 -68.167 70 -111.5s25.5 -91.333 25.5 -144c0 -52 -8.66699 -99.667 -26 -143s-40.833 -80.5 -70.5 -111.5s-64.5 -55.167 -104.5 -72.5s-82.667 -26 -128 -26zM374 65c34 0 65.5 6.49902 94.5 19.499s54.167 31.5 75.5 55.5s38 53 50 87s18 72 18 114
c0 42.667 -5.83301 81 -17.5 115s-28 62.833 -49 86.5s-46.167 41.834 -75.5 54.501s-61.333 19 -96 19c-34 0 -65.5 -6.5 -94.5 -19.5s-54.167 -31.333 -75.5 -55s-38 -52.5 -50 -86.5s-18 -72 -18 -114s6 -80 18 -114s28.667 -63 50 -87s46.5 -42.5 75.5 -55.5
s60.5 -19.5 94.5 -19.5zM405 876.999h109l-97 -147h-76z" />
    <glyph glyph-name="Ocircumflex" unicode="&#xd4;" horiz-adv-x="748" 
d="M374 -12c-45.333 0 -88 8.66699 -128 26s-74.833 41.5 -104.5 72.5s-53.167 68.167 -70.5 111.5s-26 91 -26 143s8.66699 99.5 26 142.5s40.833 80 70.5 111s64.5 55.167 104.5 72.5s82.667 26 128 26c46 0 89 -8.33301 129 -25s74.833 -40.5 104.5 -71.5
s53 -68.167 70 -111.5s25.5 -91.333 25.5 -144c0 -52 -8.66699 -99.667 -26 -143s-40.833 -80.5 -70.5 -111.5s-64.5 -55.167 -104.5 -72.5s-82.667 -26 -128 -26zM374 65c34 0 65.5 6.49902 94.5 19.499s54.167 31.5 75.5 55.5s38 53 50 87s18 72 18 114
c0 42.667 -5.83301 81 -17.5 115s-28 62.833 -49 86.5s-46.167 41.834 -75.5 54.501s-61.333 19 -96 19c-34 0 -65.5 -6.5 -94.5 -19.5s-54.167 -31.333 -75.5 -55s-38 -52.5 -50 -86.5s-18 -72 -18 -114s6 -80 18 -114s28.667 -63 50 -87s46.5 -42.5 75.5 -55.5
s60.5 -19.5 94.5 -19.5zM341 883.999h64l114 -154h-74l-72 79l-72 -79h-73z" />
    <glyph glyph-name="Otilde" unicode="&#xd5;" horiz-adv-x="748" 
d="M374 -12c-45.333 0 -88 8.66699 -128 26s-74.833 41.5 -104.5 72.5s-53.167 68.167 -70.5 111.5s-26 91 -26 143s8.66699 99.5 26 142.5s40.833 80 70.5 111s64.5 55.167 104.5 72.5s82.667 26 128 26c46 0 89 -8.33301 129 -25s74.833 -40.5 104.5 -71.5
s53 -68.167 70 -111.5s25.5 -91.333 25.5 -144c0 -52 -8.66699 -99.667 -26 -143s-40.833 -80.5 -70.5 -111.5s-64.5 -55.167 -104.5 -72.5s-82.667 -26 -128 -26zM374 65c34 0 65.5 6.49902 94.5 19.499s54.167 31.5 75.5 55.5s38 53 50 87s18 72 18 114
c0 42.667 -5.83301 81 -17.5 115s-28 62.833 -49 86.5s-46.167 41.834 -75.5 54.501s-61.333 19 -96 19c-34 0 -65.5 -6.5 -94.5 -19.5s-54.167 -31.333 -75.5 -55s-38 -52.5 -50 -86.5s-18 -72 -18 -114s6 -80 18 -114s28.667 -63 50 -87s46.5 -42.5 75.5 -55.5
s60.5 -19.5 94.5 -19.5zM210 726.999c3.33301 34 14.166 62.5 32.499 85.5s42.166 34.5 71.499 34.5c14 0 26.833 -2.5 38.5 -7.5s22.5 -10.333 32.5 -16l28.5 -16c9 -5 17.833 -7.5 26.5 -7.5c12 0 21.333 4.5 28 13.5s10.667 20.167 12 33.5h56
c-3.33301 -34 -14.166 -62.5 -32.499 -85.5s-42.166 -34.5 -71.499 -34.5c-14 0 -26.833 2.5 -38.5 7.5s-22.5 10.333 -32.5 16l-28.5 16c-9 5 -17.833 7.5 -26.5 7.5c-11.333 0 -20.5 -4.5 -27.5 -13.5s-11.167 -20.167 -12.5 -33.5h-56z" />
    <glyph glyph-name="Odieresis" unicode="&#xd6;" horiz-adv-x="748" 
d="M374 -12c-45.333 0 -88 8.66699 -128 26s-74.833 41.5 -104.5 72.5s-53.167 68.167 -70.5 111.5s-26 91 -26 143s8.66699 99.5 26 142.5s40.833 80 70.5 111s64.5 55.167 104.5 72.5s82.667 26 128 26c46 0 89 -8.33301 129 -25s74.833 -40.5 104.5 -71.5
s53 -68.167 70 -111.5s25.5 -91.333 25.5 -144c0 -52 -8.66699 -99.667 -26 -143s-40.833 -80.5 -70.5 -111.5s-64.5 -55.167 -104.5 -72.5s-82.667 -26 -128 -26zM374 65c34 0 65.5 6.49902 94.5 19.499s54.167 31.5 75.5 55.5s38 53 50 87s18 72 18 114
c0 42.667 -5.83301 81 -17.5 115s-28 62.833 -49 86.5s-46.167 41.834 -75.5 54.501s-61.333 19 -96 19c-34 0 -65.5 -6.5 -94.5 -19.5s-54.167 -31.333 -75.5 -55s-38 -52.5 -50 -86.5s-18 -72 -18 -114s6 -80 18 -114s28.667 -63 50 -87s46.5 -42.5 75.5 -55.5
s60.5 -19.5 94.5 -19.5zM419 824.999h93v-95h-93v95zM234 824.999h92v-95h-92v95z" />
    <glyph glyph-name="multiply" unicode="&#xd7;" horiz-adv-x="498" 
d="M107 488l142 -142l142 142l49 -49l-142 -142l142 -142l-49 -49l-142 142l-142 -142l-49 49l142 142l-142 142z" />
    <glyph glyph-name="Oslash" unicode="&#xd8;" horiz-adv-x="748" 
d="M27 27l86.999 92c-21.333 30 -38.166 63.5 -50.499 100.5s-18.5 77.5 -18.5 121.5c0 52 8.66699 99.5 26 142.5s40.833 80 70.5 111s64.5 55.167 104.5 72.5s82.667 26 128 26c40 0 77.833 -6.5 113.5 -19.5s67.5 -31.5 95.5 -55.5l80 85l50 -49l-81 -87
c22 -30 39.333 -63.833 52 -101.5s19 -79.167 19 -124.5c0 -52 -8.66699 -99.667 -26 -143s-40.833 -80.5 -70.5 -111.5s-64.5 -55.167 -104.5 -72.5s-82.667 -26 -128 -26c-40.667 0 -79.167 6.83301 -115.5 20.5s-68.833 33.167 -97.5 58.5l-84 -89zM373.999 65
c34 0 65.502 6.5 94.502 19.5s54.167 31.5 75.5 55.5s38 53 50 87s18 72 18 114c0 64.667 -13.333 119 -40 163l-356 -378c21.333 -19.333 45.166 -34.333 71.499 -45s55.166 -16 86.499 -16zM136.001 341c0 -61.333 12.333 -114 37 -158l355 376c-42 38 -93.333 57 -154 57
c-34 0 -65.5 -6.5 -94.5 -19.5s-54.167 -31.333 -75.5 -55s-38 -52.5 -50 -86.5s-18 -72 -18 -114z" />
    <glyph glyph-name="Ugrave" unicode="&#xd9;" horiz-adv-x="667" 
d="M334 -12c-38 0 -72.833 5.83301 -104.5 17.5s-59.167 28.834 -82.5 51.501s-41.5 50.5 -54.5 83.5s-19.5 70.5 -19.5 112.5v427h88v-427c0 -61.333 15 -108 45 -140s72.667 -48 128 -48c56 0 98.667 16 128 48s44 78.667 44 140v427h88v-427
c0 -42 -6.5 -79.5 -19.5 -112.5s-31 -60.833 -54 -83.5s-50.5 -39.834 -82.5 -51.501s-66.667 -17.5 -104 -17.5zM206 877h109l64 -147h-76z" />
    <glyph glyph-name="Uacute" unicode="&#xda;" horiz-adv-x="667" 
d="M334 -12c-38 0 -72.833 5.83301 -104.5 17.5s-59.167 28.834 -82.5 51.501s-41.5 50.5 -54.5 83.5s-19.5 70.5 -19.5 112.5v427h88v-427c0 -61.333 15 -108 45 -140s72.667 -48 128 -48c56 0 98.667 16 128 48s44 78.667 44 140v427h88v-427
c0 -42 -6.5 -79.5 -19.5 -112.5s-31 -60.833 -54 -83.5s-50.5 -39.834 -82.5 -51.501s-66.667 -17.5 -104 -17.5zM366 877h109l-97 -147h-76z" />
    <glyph glyph-name="Ucircumflex" unicode="&#xdb;" horiz-adv-x="667" 
d="M334 -12c-38 0 -72.833 5.83301 -104.5 17.5s-59.167 28.834 -82.5 51.501s-41.5 50.5 -54.5 83.5s-19.5 70.5 -19.5 112.5v427h88v-427c0 -61.333 15 -108 45 -140s72.667 -48 128 -48c56 0 98.667 16 128 48s44 78.667 44 140v427h88v-427
c0 -42 -6.5 -79.5 -19.5 -112.5s-31 -60.833 -54 -83.5s-50.5 -39.834 -82.5 -51.501s-66.667 -17.5 -104 -17.5zM302 884h64l114 -154h-74l-72 79l-72 -79h-73z" />
    <glyph glyph-name="Udieresis" unicode="&#xdc;" horiz-adv-x="667" 
d="M334 -12c-38 0 -72.833 5.83301 -104.5 17.5s-59.167 28.834 -82.5 51.501s-41.5 50.5 -54.5 83.5s-19.5 70.5 -19.5 112.5v427h88v-427c0 -61.333 15 -108 45 -140s72.667 -48 128 -48c56 0 98.667 16 128 48s44 78.667 44 140v427h88v-427
c0 -42 -6.5 -79.5 -19.5 -112.5s-31 -60.833 -54 -83.5s-50.5 -39.834 -82.5 -51.501s-66.667 -17.5 -104 -17.5zM380 825h93v-95h-93v95zM195 825h92v-95h-92v95z" />
    <glyph glyph-name="Yacute" unicode="&#xdd;" horiz-adv-x="561" 
d="M236 282l-225 398h92l178 -317l179 317h90l-226 -398v-282h-88v282zM313 877h109l-97 -147h-76z" />
    <glyph glyph-name="Thorn" unicode="&#xde;" horiz-adv-x="611" 
d="M86 680l88 -0.000976562v-109h188c34 0 64.5 -5 91.5 -15s49.667 -24.167 68 -42.5s32.5 -40.166 42.5 -65.499s15 -53 15 -83s-5 -57.5 -15 -82.5s-24.167 -46.5 -42.5 -64.5s-41 -32.167 -68 -42.5s-57.5 -15.5 -91.5 -15.5h-188v-160h-88v680zM362 238.999
c38 0 68.833 9.83203 92.5 29.499s35.5 51.834 35.5 96.501s-11.833 77 -35.5 97s-54.5 30 -92.5 30h-188v-253h188z" />
    <glyph glyph-name="germandbls" unicode="&#xdf;" horiz-adv-x="597" 
d="M321 -12c-32 0 -63.665 4.66504 -94.998 13.998v77c13.333 -4.66699 28.5 -8.5 45.5 -11.5s33.5 -4.5 49.5 -4.5c45.333 0 81.666 12.5 108.999 37.5s41 60.167 41 105.5c0 26 -4.16699 48.667 -12.5 68s-19.666 35.333 -33.999 48s-31 22 -50 28s-39.167 9 -60.5 9h-63
v76h36c43.333 0 76.333 11.333 99 34s34 51 34 85c0 36 -11.333 64.167 -34 84.5s-52 30.5 -88 30.5c-17.333 0 -34.5 -2.66699 -51.5 -8s-32.167 -14 -45.5 -26s-24.166 -27.667 -32.499 -47s-12.5 -43.333 -12.5 -72v-516h-82v516c0 35.333 5.66699 67.166 17 95.499
s27 52.333 47 72s43.667 34.667 71 45s57 15.5 89 15.5c30.667 0 58.5 -4.83301 83.5 -14.5s46.333 -23 64 -40s31.334 -37 41.001 -60s14.5 -48.167 14.5 -75.5c-0.666992 -35.333 -8.33398 -64.666 -23.001 -87.999s-36.334 -42.333 -65.001 -57
c46.667 -15.333 82 -40.666 106 -75.999s36 -77 36 -125c0 -33.333 -5.66699 -63.666 -17 -90.999s-27.333 -50.5 -48 -69.5s-45.334 -33.667 -74.001 -44s-60.334 -15.5 -95.001 -15.5z" />
    <glyph glyph-name="agrave" unicode="&#xe0;" 
d="M214 -12c-24 0 -46.498 2.83105 -67.498 8.49805s-39.167 14.334 -54.5 26.001s-27.5 26.5 -36.5 44.5s-13.5 39.667 -13.5 65c0 24.667 4.66699 46 14 64s22.166 33.167 38.499 45.5s36 22.333 59 30s48.167 13.5 75.5 17.5c26 4 48.833 8 68.5 12
s36.167 8.83301 49.5 14.5s23.5 12.834 30.5 21.501s10.5 19.667 10.5 33c0 30 -9.33301 51.333 -28 64s-47 19 -85 19c-31.333 0 -58.666 -7 -81.999 -21s-36.666 -35.667 -39.999 -65h-86c3.33301 48 23.666 86.833 60.999 116.5s86.666 44.5 147.999 44.5
c67.333 0 116.5 -14.333 147.5 -43s46.5 -67 46.5 -115v-266c0 -20.667 2.33301 -40.667 7 -60s9 -34 13 -44h-81c-3.33301 7.33301 -7 17 -11 29s-6.66699 25.667 -8 41c-15.333 -23.333 -38.333 -42.833 -69 -58.5s-66.334 -23.5 -107.001 -23.5zM215.002 59.998
c24.667 0 47.6689 2.83203 69.002 8.49902s39.666 14 54.999 25s27.333 24.333 36 40s13 33.834 13 54.501v86c-10.667 -9.33301 -27.834 -18.333 -51.501 -27s-58.5 -17.334 -104.5 -26.001c-39.333 -7.33301 -67.333 -17.5 -84 -30.5s-25 -31.5 -25 -55.5
c0 -25.333 8.5 -44.166 25.5 -56.499s39.167 -18.5 66.5 -18.5zM135.004 739.997h109l64 -147h-76z" />
    <glyph glyph-name="aacute" unicode="&#xe1;" 
d="M214 -12c-24 0 -46.498 2.83105 -67.498 8.49805s-39.167 14.334 -54.5 26.001s-27.5 26.5 -36.5 44.5s-13.5 39.667 -13.5 65c0 24.667 4.66699 46 14 64s22.166 33.167 38.499 45.5s36 22.333 59 30s48.167 13.5 75.5 17.5c26 4 48.833 8 68.5 12
s36.167 8.83301 49.5 14.5s23.5 12.834 30.5 21.501s10.5 19.667 10.5 33c0 30 -9.33301 51.333 -28 64s-47 19 -85 19c-31.333 0 -58.666 -7 -81.999 -21s-36.666 -35.667 -39.999 -65h-86c3.33301 48 23.666 86.833 60.999 116.5s86.666 44.5 147.999 44.5
c67.333 0 116.5 -14.333 147.5 -43s46.5 -67 46.5 -115v-266c0 -20.667 2.33301 -40.667 7 -60s9 -34 13 -44h-81c-3.33301 7.33301 -7 17 -11 29s-6.66699 25.667 -8 41c-15.333 -23.333 -38.333 -42.833 -69 -58.5s-66.334 -23.5 -107.001 -23.5zM215.002 59.998
c24.667 0 47.6689 2.83203 69.002 8.49902s39.666 14 54.999 25s27.333 24.333 36 40s13 33.834 13 54.501v86c-10.667 -9.33301 -27.834 -18.333 -51.501 -27s-58.5 -17.334 -104.5 -26.001c-39.333 -7.33301 -67.333 -17.5 -84 -30.5s-25 -31.5 -25 -55.5
c0 -25.333 8.5 -44.166 25.5 -56.499s39.167 -18.5 66.5 -18.5zM308.004 739.997h109l-97 -147h-76z" />
    <glyph glyph-name="acircumflex" unicode="&#xe2;" 
d="M214 -12c-24 0 -46.498 2.83105 -67.498 8.49805s-39.167 14.334 -54.5 26.001s-27.5 26.5 -36.5 44.5s-13.5 39.667 -13.5 65c0 24.667 4.66699 46 14 64s22.166 33.167 38.499 45.5s36 22.333 59 30s48.167 13.5 75.5 17.5c26 4 48.833 8 68.5 12
s36.167 8.83301 49.5 14.5s23.5 12.834 30.5 21.501s10.5 19.667 10.5 33c0 30 -9.33301 51.333 -28 64s-47 19 -85 19c-31.333 0 -58.666 -7 -81.999 -21s-36.666 -35.667 -39.999 -65h-86c3.33301 48 23.666 86.833 60.999 116.5s86.666 44.5 147.999 44.5
c67.333 0 116.5 -14.333 147.5 -43s46.5 -67 46.5 -115v-266c0 -20.667 2.33301 -40.667 7 -60s9 -34 13 -44h-81c-3.33301 7.33301 -7 17 -11 29s-6.66699 25.667 -8 41c-15.333 -23.333 -38.333 -42.833 -69 -58.5s-66.334 -23.5 -107.001 -23.5zM215.002 59.998
c24.667 0 47.6689 2.83203 69.002 8.49902s39.666 14 54.999 25s27.333 24.333 36 40s13 33.834 13 54.501v86c-10.667 -9.33301 -27.834 -18.333 -51.501 -27s-58.5 -17.334 -104.5 -26.001c-39.333 -7.33301 -67.333 -17.5 -84 -30.5s-25 -31.5 -25 -55.5
c0 -25.333 8.5 -44.166 25.5 -56.499s39.167 -18.5 66.5 -18.5zM244.004 746.997h64l114 -154h-74l-72 79l-72 -79h-73z" />
    <glyph glyph-name="atilde" unicode="&#xe3;" 
d="M214 -12c-24 0 -46.498 2.83105 -67.498 8.49805s-39.167 14.334 -54.5 26.001s-27.5 26.5 -36.5 44.5s-13.5 39.667 -13.5 65c0 24.667 4.66699 46 14 64s22.166 33.167 38.499 45.5s36 22.333 59 30s48.167 13.5 75.5 17.5c26 4 48.833 8 68.5 12
s36.167 8.83301 49.5 14.5s23.5 12.834 30.5 21.501s10.5 19.667 10.5 33c0 30 -9.33301 51.333 -28 64s-47 19 -85 19c-31.333 0 -58.666 -7 -81.999 -21s-36.666 -35.667 -39.999 -65h-86c3.33301 48 23.666 86.833 60.999 116.5s86.666 44.5 147.999 44.5
c67.333 0 116.5 -14.333 147.5 -43s46.5 -67 46.5 -115v-266c0 -20.667 2.33301 -40.667 7 -60s9 -34 13 -44h-81c-3.33301 7.33301 -7 17 -11 29s-6.66699 25.667 -8 41c-15.333 -23.333 -38.333 -42.833 -69 -58.5s-66.334 -23.5 -107.001 -23.5zM215.002 59.998
c24.667 0 47.6689 2.83203 69.002 8.49902s39.666 14 54.999 25s27.333 24.333 36 40s13 33.834 13 54.501v86c-10.667 -9.33301 -27.834 -18.333 -51.501 -27s-58.5 -17.334 -104.5 -26.001c-39.333 -7.33301 -67.333 -17.5 -84 -30.5s-25 -31.5 -25 -55.5
c0 -25.333 8.5 -44.166 25.5 -56.499s39.167 -18.5 66.5 -18.5zM113.004 589.997c3.33301 34 14.166 62.5 32.499 85.5s42.166 34.5 71.499 34.5c14 0 26.833 -2.5 38.5 -7.5s22.5 -10.333 32.5 -16l28.5 -16c9 -5 17.833 -7.5 26.5 -7.5c12 0 21.333 4.5 28 13.5
s10.667 20.167 12 33.5h56c-3.33301 -34 -14.166 -62.5 -32.499 -85.5s-42.166 -34.5 -71.499 -34.5c-14 0 -26.833 2.5 -38.5 7.5s-22.5 10.333 -32.5 16l-28.5 16c-9 5 -17.833 7.5 -26.5 7.5c-11.333 0 -20.5 -4.5 -27.5 -13.5s-11.167 -20.167 -12.5 -33.5h-56z" />
    <glyph glyph-name="adieresis" unicode="&#xe4;" 
d="M214 -12c-24 0 -46.498 2.83105 -67.498 8.49805s-39.167 14.334 -54.5 26.001s-27.5 26.5 -36.5 44.5s-13.5 39.667 -13.5 65c0 24.667 4.66699 46 14 64s22.166 33.167 38.499 45.5s36 22.333 59 30s48.167 13.5 75.5 17.5c26 4 48.833 8 68.5 12
s36.167 8.83301 49.5 14.5s23.5 12.834 30.5 21.501s10.5 19.667 10.5 33c0 30 -9.33301 51.333 -28 64s-47 19 -85 19c-31.333 0 -58.666 -7 -81.999 -21s-36.666 -35.667 -39.999 -65h-86c3.33301 48 23.666 86.833 60.999 116.5s86.666 44.5 147.999 44.5
c67.333 0 116.5 -14.333 147.5 -43s46.5 -67 46.5 -115v-266c0 -20.667 2.33301 -40.667 7 -60s9 -34 13 -44h-81c-3.33301 7.33301 -7 17 -11 29s-6.66699 25.667 -8 41c-15.333 -23.333 -38.333 -42.833 -69 -58.5s-66.334 -23.5 -107.001 -23.5zM215.002 59.998
c24.667 0 47.6689 2.83203 69.002 8.49902s39.666 14 54.999 25s27.333 24.333 36 40s13 33.834 13 54.501v86c-10.667 -9.33301 -27.834 -18.333 -51.501 -27s-58.5 -17.334 -104.5 -26.001c-39.333 -7.33301 -67.333 -17.5 -84 -30.5s-25 -31.5 -25 -55.5
c0 -25.333 8.5 -44.166 25.5 -56.499s39.167 -18.5 66.5 -18.5zM322.004 687.997h93v-95h-93v95zM137.004 687.997h92v-95h-92v95z" />
    <glyph glyph-name="aring" unicode="&#xe5;" 
d="M214 -12c-24 0 -46.498 2.83105 -67.498 8.49805s-39.167 14.334 -54.5 26.001s-27.5 26.5 -36.5 44.5s-13.5 39.667 -13.5 65c0 24.667 4.66699 46 14 64s22.166 33.167 38.499 45.5s36 22.333 59 30s48.167 13.5 75.5 17.5c26 4 48.833 8 68.5 12
s36.167 8.83301 49.5 14.5s23.5 12.834 30.5 21.501s10.5 19.667 10.5 33c0 30 -9.33301 51.333 -28 64s-47 19 -85 19c-31.333 0 -58.666 -7 -81.999 -21s-36.666 -35.667 -39.999 -65h-86c3.33301 48 23.666 86.833 60.999 116.5s86.666 44.5 147.999 44.5
c67.333 0 116.5 -14.333 147.5 -43s46.5 -67 46.5 -115v-266c0 -20.667 2.33301 -40.667 7 -60s9 -34 13 -44h-81c-3.33301 7.33301 -7 17 -11 29s-6.66699 25.667 -8 41c-15.333 -23.333 -38.333 -42.833 -69 -58.5s-66.334 -23.5 -107.001 -23.5zM215.002 59.998
c24.667 0 47.6689 2.83203 69.002 8.49902s39.666 14 54.999 25s27.333 24.333 36 40s13 33.834 13 54.501v86c-10.667 -9.33301 -27.834 -18.333 -51.501 -27s-58.5 -17.334 -104.5 -26.001c-39.333 -7.33301 -67.333 -17.5 -84 -30.5s-25 -31.5 -25 -55.5
c0 -25.333 8.5 -44.166 25.5 -56.499s39.167 -18.5 66.5 -18.5zM275.004 569.997c-16 0 -30.833 2.83301 -44.5 8.5s-25.5 13.5 -35.5 23.5s-18 21.833 -24 35.5s-9 28.167 -9 43.5c0 16 3 30.833 9 44.5s14 25.5 24 35.5s21.833 17.833 35.5 23.5s28.5 8.5 44.5 8.5
c15.333 0 29.833 -2.83301 43.5 -8.5s25.667 -13.5 36 -23.5s18.5 -21.833 24.5 -35.5s9 -28.5 9 -44.5c0 -15.333 -3 -29.833 -9 -43.5s-14.167 -25.5 -24.5 -35.5s-22.333 -17.833 -36 -23.5s-28.167 -8.5 -43.5 -8.5zM275.004 615.997c17.333 0 31.833 6.16699 43.5 18.5
s17.5 27.833 17.5 46.5s-5.83301 34.334 -17.5 47.001s-26.167 19 -43.5 19s-31.833 -6.33301 -43.5 -19s-17.5 -28.334 -17.5 -47.001s5.83301 -34.167 17.5 -46.5s26.167 -18.5 43.5 -18.5z" />
    <glyph glyph-name="ae" unicode="&#xe6;" horiz-adv-x="915" 
d="M214 -12c-24 0 -46.499 2.83203 -67.499 8.49902s-39.167 14.334 -54.5 26.001s-27.5 26.5 -36.5 44.5s-13.5 39.667 -13.5 65c0 24.667 4.66699 46 14 64s22.166 33.167 38.499 45.5s36 22.333 59 30s48.167 13.5 75.5 17.5c26 4 48.833 8 68.5 12
s36.167 8.83301 49.5 14.5s23.333 12.834 30 21.501s10 19.667 10 33c0 30 -9.16699 51.333 -27.5 64s-46.5 19 -84.5 19c-31.333 0 -58.666 -7 -81.999 -21s-36.666 -35.667 -39.999 -65h-86c3.33301 48 23.666 86.833 60.999 116.5s86.666 44.5 147.999 44.5
c49.333 0 88.5 -8.33301 117.5 -25s49.167 -39.334 60.5 -68.001c21.333 29.333 47.666 52.166 78.999 68.499s66 24.5 104 24.5c32 0 62.833 -6.33301 92.5 -19s55.667 -31.5 78 -56.5s39.833 -55.833 52.5 -92.5s18.334 -79.334 17.001 -128.001h-405
c2 -28.667 8.16699 -53.667 18.5 -75s23.166 -39 38.499 -53s32.5 -24.5 51.5 -31.5s38.833 -10.5 59.5 -10.5c36 0 65.5 7.33301 88.5 22s39.5 34.667 49.5 60h87c-6 -22.667 -15.667 -43.5 -29 -62.5s-29.666 -35.5 -48.999 -49.5s-41.5 -24.833 -66.5 -32.5
s-51.833 -11.5 -80.5 -11.5c-46 0 -87.5 10.5 -124.5 31.5s-66.167 50.5 -87.5 88.5c-12 -23.333 -26.5 -42.666 -43.5 -57.999s-35 -27.666 -54 -36.999s-38.5 -15.833 -58.5 -19.5s-39.333 -5.5 -58 -5.5zM215.001 59.999c24.667 0 47.666 2.83203 68.999 8.49902
s39.833 14 55.5 25s27.834 24.333 36.501 40s13 33.834 13 54.501v86c-10.667 -9.33301 -28 -18.333 -52 -27s-59 -17.334 -105 -26.001c-39.333 -7.33301 -67.333 -17.5 -84 -30.5s-25 -31.5 -25 -55.5c0 -25.333 8.5 -44.166 25.5 -56.499s39.167 -18.5 66.5 -18.5z
M785 302.998c-2.66699 26 -8.49902 48.5 -17.499 67.5s-20 34.667 -33 47s-27.833 21.5 -44.5 27.5s-34.334 9 -53.001 9c-17.333 0 -34.5 -2.83301 -51.5 -8.5s-32.833 -14.667 -47.5 -27s-27.667 -28 -39 -47s-19.333 -41.833 -24 -68.5h310z" />
    <glyph glyph-name="ccedilla" unicode="&#xe7;" horiz-adv-x="545" 
d="M511 158c-11.333 -47.333 -34.3311 -86.1621 -68.998 -116.495s-77.667 -47.833 -129 -52.5l-28 -44c2.66699 0.666992 7.33398 1 14.001 1c24.667 0 46.167 -7.83301 64.5 -23.5s27.5 -37.5 27.5 -65.5c0 -15.333 -3 -28.833 -9 -40.5s-14 -21.334 -24 -29.001
s-21.667 -13.5 -35 -17.5s-27 -6 -41 -6c-28.667 0 -54 7.16699 -76 21.5s-35 33.5 -39 57.5h63c3.33301 -8 9 -14.667 17 -20s18.333 -8 31 -8c13.333 0 24.333 3.83301 33 11.5s13 17.5 13 29.5c0 12.667 -4.33301 23 -13 31s-19.334 12 -32.001 12
c-8 0 -15.167 -1.66699 -21.5 -5s-11.833 -7 -16.5 -11l-35 28l46 80c-30 4.66699 -57.833 14.5 -83.5 29.5s-47.834 34.167 -66.501 57.5s-33.334 50 -44.001 80s-16 62.667 -16 98c0 38.667 6.5 74.667 19.5 108s30.667 62.166 53 86.499s48.5 43.333 78.5 57
s62.333 20.5 97 20.5c56.667 0 104.334 -15.167 143.001 -45.5s64.667 -71.833 78 -124.5h-87c-11.333 30 -28.333 53.333 -51 70s-50.334 25 -83.001 25c-23.333 0 -44.833 -4.33301 -64.5 -13s-36.834 -21.334 -51.501 -38.001s-26.167 -37.334 -34.5 -62.001
s-12.5 -52.667 -12.5 -84s4.16699 -58.833 12.5 -82.5s19.833 -43.834 34.5 -60.501s31.834 -29.167 51.501 -37.5s41.167 -12.5 64.5 -12.5c33.333 0 61.5 8.5 84.5 25.5s39.5 40.167 49.5 69.5h87v0z" />
    <glyph glyph-name="egrave" unicode="&#xe8;" horiz-adv-x="570" 
d="M295 -12c-36 0 -69.333 6.50098 -100 19.501s-57.334 31.333 -80.001 55s-40.5 52 -53.5 85s-19.5 69.5 -19.5 109.5c0 39.333 6.5 75.5 19.5 108.5s30.833 61.5 53.5 85.5s49.167 42.833 79.5 56.5s62.833 20.5 97.5 20.5c32 0 62.833 -6.33301 92.5 -19
s55.667 -31.5 78 -56.5s39.833 -55.833 52.5 -92.5s18.334 -79.334 17.001 -128.001h-405c2 -28.667 8.16699 -53.667 18.5 -75s23.166 -39 38.499 -53s32.5 -24.5 51.5 -31.5s38.833 -10.5 59.5 -10.5c36 0 65.5 7.33301 88.5 22s39.5 34.667 49.5 60h87
c-6 -22.667 -15.667 -43.5 -29 -62.5s-29.666 -35.5 -48.999 -49.5s-41.5 -24.833 -66.5 -32.5s-51.833 -11.5 -80.5 -11.5zM440 303.001c-2.66699 26 -8.49902 48.5 -17.499 67.5s-20 34.667 -33 47s-27.833 21.5 -44.5 27.5s-34.334 9 -53.001 9
c-17.333 0 -34.5 -2.83301 -51.5 -8.5s-32.833 -14.667 -47.5 -27s-27.667 -28 -39 -47s-19.333 -41.833 -24 -68.5h310zM155.001 740.001h109l64 -147h-76z" />
    <glyph glyph-name="eacute" unicode="&#xe9;" horiz-adv-x="570" 
d="M295 -12c-36 0 -69.333 6.50098 -100 19.501s-57.334 31.333 -80.001 55s-40.5 52 -53.5 85s-19.5 69.5 -19.5 109.5c0 39.333 6.5 75.5 19.5 108.5s30.833 61.5 53.5 85.5s49.167 42.833 79.5 56.5s62.833 20.5 97.5 20.5c32 0 62.833 -6.33301 92.5 -19
s55.667 -31.5 78 -56.5s39.833 -55.833 52.5 -92.5s18.334 -79.334 17.001 -128.001h-405c2 -28.667 8.16699 -53.667 18.5 -75s23.166 -39 38.499 -53s32.5 -24.5 51.5 -31.5s38.833 -10.5 59.5 -10.5c36 0 65.5 7.33301 88.5 22s39.5 34.667 49.5 60h87
c-6 -22.667 -15.667 -43.5 -29 -62.5s-29.666 -35.5 -48.999 -49.5s-41.5 -24.833 -66.5 -32.5s-51.833 -11.5 -80.5 -11.5zM440 303.001c-2.66699 26 -8.49902 48.5 -17.499 67.5s-20 34.667 -33 47s-27.833 21.5 -44.5 27.5s-34.334 9 -53.001 9
c-17.333 0 -34.5 -2.83301 -51.5 -8.5s-32.833 -14.667 -47.5 -27s-27.667 -28 -39 -47s-19.333 -41.833 -24 -68.5h310zM328.001 740.001h109l-97 -147h-76z" />
    <glyph glyph-name="ecircumflex" unicode="&#xea;" horiz-adv-x="570" 
d="M295 -12c-36 0 -69.333 6.50098 -100 19.501s-57.334 31.333 -80.001 55s-40.5 52 -53.5 85s-19.5 69.5 -19.5 109.5c0 39.333 6.5 75.5 19.5 108.5s30.833 61.5 53.5 85.5s49.167 42.833 79.5 56.5s62.833 20.5 97.5 20.5c32 0 62.833 -6.33301 92.5 -19
s55.667 -31.5 78 -56.5s39.833 -55.833 52.5 -92.5s18.334 -79.334 17.001 -128.001h-405c2 -28.667 8.16699 -53.667 18.5 -75s23.166 -39 38.499 -53s32.5 -24.5 51.5 -31.5s38.833 -10.5 59.5 -10.5c36 0 65.5 7.33301 88.5 22s39.5 34.667 49.5 60h87
c-6 -22.667 -15.667 -43.5 -29 -62.5s-29.666 -35.5 -48.999 -49.5s-41.5 -24.833 -66.5 -32.5s-51.833 -11.5 -80.5 -11.5zM440 303.001c-2.66699 26 -8.49902 48.5 -17.499 67.5s-20 34.667 -33 47s-27.833 21.5 -44.5 27.5s-34.334 9 -53.001 9
c-17.333 0 -34.5 -2.83301 -51.5 -8.5s-32.833 -14.667 -47.5 -27s-27.667 -28 -39 -47s-19.333 -41.833 -24 -68.5h310zM264.001 747.001h64l114 -154h-74l-72 79l-72 -79h-73z" />
    <glyph glyph-name="edieresis" unicode="&#xeb;" horiz-adv-x="570" 
d="M295 -12c-36 0 -69.333 6.50098 -100 19.501s-57.334 31.333 -80.001 55s-40.5 52 -53.5 85s-19.5 69.5 -19.5 109.5c0 39.333 6.5 75.5 19.5 108.5s30.833 61.5 53.5 85.5s49.167 42.833 79.5 56.5s62.833 20.5 97.5 20.5c32 0 62.833 -6.33301 92.5 -19
s55.667 -31.5 78 -56.5s39.833 -55.833 52.5 -92.5s18.334 -79.334 17.001 -128.001h-405c2 -28.667 8.16699 -53.667 18.5 -75s23.166 -39 38.499 -53s32.5 -24.5 51.5 -31.5s38.833 -10.5 59.5 -10.5c36 0 65.5 7.33301 88.5 22s39.5 34.667 49.5 60h87
c-6 -22.667 -15.667 -43.5 -29 -62.5s-29.666 -35.5 -48.999 -49.5s-41.5 -24.833 -66.5 -32.5s-51.833 -11.5 -80.5 -11.5zM440 303.001c-2.66699 26 -8.49902 48.5 -17.499 67.5s-20 34.667 -33 47s-27.833 21.5 -44.5 27.5s-34.334 9 -53.001 9
c-17.333 0 -34.5 -2.83301 -51.5 -8.5s-32.833 -14.667 -47.5 -27s-27.667 -28 -39 -47s-19.333 -41.833 -24 -68.5h310zM342.001 688.001h93v-95h-93v95zM157.001 688.001h92v-95h-92v95z" />
    <glyph glyph-name="igrave" unicode="&#xec;" horiz-adv-x="240" 
d="M79 515h82v-515h-82v515zM-21 780h109l64 -147h-76z" />
    <glyph glyph-name="iacute" unicode="&#xed;" horiz-adv-x="240" 
d="M79 515h82v-515h-82v515zM152 780h109l-97 -147h-76z" />
    <glyph glyph-name="icircumflex" unicode="&#xee;" horiz-adv-x="240" 
d="M79 515h82v-515h-82v515zM88 787h64l114 -154h-74l-72 79l-72 -79h-73z" />
    <glyph glyph-name="idieresis" unicode="&#xef;" horiz-adv-x="240" 
d="M79 515h82v-515h-82v515zM166 728h93v-95h-93v95zM-19 728h92v-95h-92v95z" />
    <glyph glyph-name="eth" unicode="&#xf0;" horiz-adv-x="578" 
d="M192 597l59 45.002c-21.333 17.333 -42.666 32.666 -63.999 45.999l42 60l42.5 -27c14.333 -9.33301 28.5 -19.666 42.5 -30.999l68 51l37 -43l-61 -46c24 -22.667 46.833 -47.834 68.5 -75.501s40.667 -57.5 57 -89.5s29.166 -66.333 38.499 -103s14 -75.667 14 -117
c0 -42.667 -6 -81.167 -18 -115.5s-28.667 -63.666 -50 -87.999s-47.333 -43 -78 -56s-64.334 -19.5 -101.001 -19.5c-34.667 0 -67 6.5 -97 19.5s-56.167 31 -78.5 54s-39.833 50.167 -52.5 81.5s-19 65.666 -19 102.999s6.33301 72 19 104s29.667 59.667 51 83
s46 41.666 74 54.999s57.333 20 88 20c26.667 0 51.5 -4.5 74.5 -13.5s43.5 -22.167 61.5 -39.5c-12.667 24.667 -28.667 49.667 -48 75s-41.666 50 -66.999 74l-67 -51zM289 63.002c22 0 42.9961 4 62.9961 12s37.333 19.833 52 35.5s26.334 35 35.001 58s13 49.5 13 79.5
s-4.33301 56.5 -13 79.5s-20.5 42.5 -35.5 58.5s-32.5 28 -52.5 36s-41.333 12 -64 12c-22 0 -42.667 -4.16699 -62 -12.5s-36.166 -20.5 -50.499 -36.5s-25.833 -35.667 -34.5 -59s-13 -50 -13 -80s4.33301 -56.333 13 -79s20.334 -41.667 35.001 -57
s31.834 -27 51.501 -35s40.5 -12 62.5 -12z" />
    <glyph glyph-name="ntilde" unicode="&#xf1;" horiz-adv-x="571" 
d="M78 515l79 -0.00195312v-74c19.333 28.667 41.666 50.334 66.999 65.001s55 22 89 22c28 0 53.167 -5 75.5 -15s41.5 -24.333 57.5 -43s28.167 -41 36.5 -67s12.5 -55 12.5 -87v-316h-82v319c0 40 -9.83301 72 -29.5 96s-49.5 36 -89.5 36
c-19.333 0 -37.166 -3.16699 -53.499 -9.5s-30.5 -15.166 -42.5 -26.499s-21.333 -25 -28 -41s-10 -33.667 -10 -53v-321h-82v515zM120 589.998c3.33301 34 14.166 62.5 32.499 85.5s42.166 34.5 71.499 34.5c14 0 26.833 -2.5 38.5 -7.5s22.5 -10.333 32.5 -16l28.5 -16
c9 -5 17.833 -7.5 26.5 -7.5c12 0 21.333 4.5 28 13.5s10.667 20.167 12 33.5h56c-3.33301 -34 -14.166 -62.5 -32.499 -85.5s-42.166 -34.5 -71.499 -34.5c-14 0 -26.833 2.5 -38.5 7.5s-22.5 10.333 -32.5 16l-28.5 16c-9 5 -17.833 7.5 -26.5 7.5
c-11.333 0 -20.5 -4.5 -27.5 -13.5s-11.167 -20.167 -12.5 -33.5h-56z" />
    <glyph glyph-name="ograve" unicode="&#xf2;" horiz-adv-x="578" 
d="M289 -12c-34.667 0 -67 6.66699 -97 20s-56.167 32 -78.5 56s-39.833 52.333 -52.5 85s-19 68.334 -19 107.001s6.33301 74.667 19 108s30.167 62.166 52.5 86.499s48.5 43.333 78.5 57s62.333 20.5 97 20.5s67.167 -6.83301 97.5 -20.5s56.5 -32.667 78.5 -57
s39.333 -53.166 52 -86.499s19 -69.333 19 -108s-6.33301 -74.334 -19 -107.001s-30 -61 -52 -85s-48.167 -42.667 -78.5 -56s-62.833 -20 -97.5 -20zM289 63c22 0 42.833 4.16699 62.5 12.5s37 20.833 52 37.5s26.833 36.834 35.5 60.501s13 51.167 13 82.5
s-4.33301 59.333 -13 84s-20.5 45.334 -35.5 62.001s-32.333 29.334 -52 38.001s-40.5 13 -62.5 13c-21.333 0 -41.833 -4.33301 -61.5 -13s-37 -21.334 -52 -38.001s-26.833 -37.334 -35.5 -62.001s-13 -52.667 -13 -84s4.33301 -58.833 13 -82.5
s20.5 -43.834 35.5 -60.501s32.333 -29.167 52 -37.5s40.167 -12.5 61.5 -12.5zM149 740h109l64 -147h-76z" />
    <glyph glyph-name="oacute" unicode="&#xf3;" horiz-adv-x="578" 
d="M289 -12c-34.667 0 -67 6.66699 -97 20s-56.167 32 -78.5 56s-39.833 52.333 -52.5 85s-19 68.334 -19 107.001s6.33301 74.667 19 108s30.167 62.166 52.5 86.499s48.5 43.333 78.5 57s62.333 20.5 97 20.5s67.167 -6.83301 97.5 -20.5s56.5 -32.667 78.5 -57
s39.333 -53.166 52 -86.499s19 -69.333 19 -108s-6.33301 -74.334 -19 -107.001s-30 -61 -52 -85s-48.167 -42.667 -78.5 -56s-62.833 -20 -97.5 -20zM289 63c22 0 42.833 4.16699 62.5 12.5s37 20.833 52 37.5s26.833 36.834 35.5 60.501s13 51.167 13 82.5
s-4.33301 59.333 -13 84s-20.5 45.334 -35.5 62.001s-32.333 29.334 -52 38.001s-40.5 13 -62.5 13c-21.333 0 -41.833 -4.33301 -61.5 -13s-37 -21.334 -52 -38.001s-26.833 -37.334 -35.5 -62.001s-13 -52.667 -13 -84s4.33301 -58.833 13 -82.5
s20.5 -43.834 35.5 -60.501s32.333 -29.167 52 -37.5s40.167 -12.5 61.5 -12.5zM322 740h109l-97 -147h-76z" />
    <glyph glyph-name="ocircumflex" unicode="&#xf4;" horiz-adv-x="578" 
d="M289 -12c-34.667 0 -67 6.66699 -97 20s-56.167 32 -78.5 56s-39.833 52.333 -52.5 85s-19 68.334 -19 107.001s6.33301 74.667 19 108s30.167 62.166 52.5 86.499s48.5 43.333 78.5 57s62.333 20.5 97 20.5s67.167 -6.83301 97.5 -20.5s56.5 -32.667 78.5 -57
s39.333 -53.166 52 -86.499s19 -69.333 19 -108s-6.33301 -74.334 -19 -107.001s-30 -61 -52 -85s-48.167 -42.667 -78.5 -56s-62.833 -20 -97.5 -20zM289 63c22 0 42.833 4.16699 62.5 12.5s37 20.833 52 37.5s26.833 36.834 35.5 60.501s13 51.167 13 82.5
s-4.33301 59.333 -13 84s-20.5 45.334 -35.5 62.001s-32.333 29.334 -52 38.001s-40.5 13 -62.5 13c-21.333 0 -41.833 -4.33301 -61.5 -13s-37 -21.334 -52 -38.001s-26.833 -37.334 -35.5 -62.001s-13 -52.667 -13 -84s4.33301 -58.833 13 -82.5
s20.5 -43.834 35.5 -60.501s32.333 -29.167 52 -37.5s40.167 -12.5 61.5 -12.5zM258 747h64l114 -154h-74l-72 79l-72 -79h-73z" />
    <glyph glyph-name="otilde" unicode="&#xf5;" horiz-adv-x="578" 
d="M289 -12c-34.667 0 -67 6.66699 -97 20s-56.167 32 -78.5 56s-39.833 52.333 -52.5 85s-19 68.334 -19 107.001s6.33301 74.667 19 108s30.167 62.166 52.5 86.499s48.5 43.333 78.5 57s62.333 20.5 97 20.5s67.167 -6.83301 97.5 -20.5s56.5 -32.667 78.5 -57
s39.333 -53.166 52 -86.499s19 -69.333 19 -108s-6.33301 -74.334 -19 -107.001s-30 -61 -52 -85s-48.167 -42.667 -78.5 -56s-62.833 -20 -97.5 -20zM289 63c22 0 42.833 4.16699 62.5 12.5s37 20.833 52 37.5s26.833 36.834 35.5 60.501s13 51.167 13 82.5
s-4.33301 59.333 -13 84s-20.5 45.334 -35.5 62.001s-32.333 29.334 -52 38.001s-40.5 13 -62.5 13c-21.333 0 -41.833 -4.33301 -61.5 -13s-37 -21.334 -52 -38.001s-26.833 -37.334 -35.5 -62.001s-13 -52.667 -13 -84s4.33301 -58.833 13 -82.5
s20.5 -43.834 35.5 -60.501s32.333 -29.167 52 -37.5s40.167 -12.5 61.5 -12.5zM127 590c3.33301 34 14.166 62.5 32.499 85.5s42.166 34.5 71.499 34.5c14 0 26.833 -2.5 38.5 -7.5s22.5 -10.333 32.5 -16l28.5 -16c9 -5 17.833 -7.5 26.5 -7.5c12 0 21.333 4.5 28 13.5
s10.667 20.167 12 33.5h56c-3.33301 -34 -14.166 -62.5 -32.499 -85.5s-42.166 -34.5 -71.499 -34.5c-14 0 -26.833 2.5 -38.5 7.5s-22.5 10.333 -32.5 16l-28.5 16c-9 5 -17.833 7.5 -26.5 7.5c-11.333 0 -20.5 -4.5 -27.5 -13.5s-11.167 -20.167 -12.5 -33.5h-56z" />
    <glyph glyph-name="odieresis" unicode="&#xf6;" horiz-adv-x="578" 
d="M289 -12c-34.667 0 -67 6.66699 -97 20s-56.167 32 -78.5 56s-39.833 52.333 -52.5 85s-19 68.334 -19 107.001s6.33301 74.667 19 108s30.167 62.166 52.5 86.499s48.5 43.333 78.5 57s62.333 20.5 97 20.5s67.167 -6.83301 97.5 -20.5s56.5 -32.667 78.5 -57
s39.333 -53.166 52 -86.499s19 -69.333 19 -108s-6.33301 -74.334 -19 -107.001s-30 -61 -52 -85s-48.167 -42.667 -78.5 -56s-62.833 -20 -97.5 -20zM289 63c22 0 42.833 4.16699 62.5 12.5s37 20.833 52 37.5s26.833 36.834 35.5 60.501s13 51.167 13 82.5
s-4.33301 59.333 -13 84s-20.5 45.334 -35.5 62.001s-32.333 29.334 -52 38.001s-40.5 13 -62.5 13c-21.333 0 -41.833 -4.33301 -61.5 -13s-37 -21.334 -52 -38.001s-26.833 -37.334 -35.5 -62.001s-13 -52.667 -13 -84s4.33301 -58.833 13 -82.5
s20.5 -43.834 35.5 -60.501s32.333 -29.167 52 -37.5s40.167 -12.5 61.5 -12.5zM336 688h93v-95h-93v95zM151 688h92v-95h-92v95z" />
    <glyph glyph-name="divide" unicode="&#xf7;" horiz-adv-x="498" 
d="M46 337h406v-72h-406v72zM200 188h98v-96h-98v96zM200 510h98v-96h-98v96z" />
    <glyph glyph-name="oslash" unicode="&#xf8;" horiz-adv-x="578" 
d="M23 10l71 79.002c-16.667 22.667 -29.5 48 -38.5 76s-13.5 58.333 -13.5 91c0 38.667 6.33301 74.667 19 108s30.167 62.166 52.5 86.499s48.5 43.333 78.5 57s62.333 20.5 97 20.5c28.667 0 55.834 -5 81.501 -15s49.167 -23.667 70.5 -41l67 74l47 -39l-73 -80
c17.333 -23.333 30.666 -49.333 39.999 -78s14 -59.667 14 -93c0 -38.667 -6.33301 -74.334 -19 -107.001s-30 -61 -52 -85s-48.167 -42.667 -78.5 -56s-62.833 -20 -97.5 -20c-58.667 0 -109.667 18.667 -153 56l-67 -74zM289 63.002c22 0 42.832 4.16699 62.499 12.5
s37 20.833 52 37.5s26.833 36.834 35.5 60.501s13 51.167 13 82.5c0 22 -2.16699 42.167 -6.5 60.5s-10.166 35.166 -17.499 50.499l-242 -267c14 -12.667 29.833 -22 47.5 -28s36.167 -9 55.5 -9zM126.999 256.002c0 -21.333 1.83398 -40.8301 5.50098 -58.4971
s9.16699 -33.834 16.5 -48.501l241 267c-28.667 24.667 -62.334 37 -101.001 37c-21.333 0 -41.833 -4.33301 -61.5 -13s-37 -21.334 -52 -38.001s-26.833 -37.334 -35.5 -62.001s-13 -52.667 -13 -84z" />
    <glyph glyph-name="ugrave" unicode="&#xf9;" horiz-adv-x="571" 
d="M258 -12c-28 0 -53.168 5.00098 -75.501 15.001s-41.5 24.167 -57.5 42.5s-28.167 40.5 -36.5 66.5s-12.5 55 -12.5 87v316h82v-319c0 -40 9.83301 -71.833 29.5 -95.5s49.5 -35.5 89.5 -35.5c18.667 0 36.167 3.16699 52.5 9.5s30.5 15.166 42.5 26.499
s21.5 24.833 28.5 40.5s10.5 33.167 10.5 52.5v321h82v-515h-79v74c-19.333 -28.667 -41.666 -50.167 -66.999 -64.5s-55 -21.5 -89 -21.5zM152.999 740.001h109l64 -147h-76z" />
    <glyph glyph-name="uacute" unicode="&#xfa;" horiz-adv-x="571" 
d="M258 -12c-28 0 -53.168 5.00098 -75.501 15.001s-41.5 24.167 -57.5 42.5s-28.167 40.5 -36.5 66.5s-12.5 55 -12.5 87v316h82v-319c0 -40 9.83301 -71.833 29.5 -95.5s49.5 -35.5 89.5 -35.5c18.667 0 36.167 3.16699 52.5 9.5s30.5 15.166 42.5 26.499
s21.5 24.833 28.5 40.5s10.5 33.167 10.5 52.5v321h82v-515h-79v74c-19.333 -28.667 -41.666 -50.167 -66.999 -64.5s-55 -21.5 -89 -21.5zM315.999 740.001h109l-97 -147h-76z" />
    <glyph glyph-name="ucircumflex" unicode="&#xfb;" horiz-adv-x="571" 
d="M258 -12c-28 0 -53.168 5.00098 -75.501 15.001s-41.5 24.167 -57.5 42.5s-28.167 40.5 -36.5 66.5s-12.5 55 -12.5 87v316h82v-319c0 -40 9.83301 -71.833 29.5 -95.5s49.5 -35.5 89.5 -35.5c18.667 0 36.167 3.16699 52.5 9.5s30.5 15.166 42.5 26.499
s21.5 24.833 28.5 40.5s10.5 33.167 10.5 52.5v321h82v-515h-79v74c-19.333 -28.667 -41.666 -50.167 -66.999 -64.5s-55 -21.5 -89 -21.5zM251.999 747.001h64l114 -154h-74l-72 79l-72 -79h-73z" />
    <glyph glyph-name="udieresis" unicode="&#xfc;" horiz-adv-x="571" 
d="M258 -12c-28 0 -53.168 5.00098 -75.501 15.001s-41.5 24.167 -57.5 42.5s-28.167 40.5 -36.5 66.5s-12.5 55 -12.5 87v316h82v-319c0 -40 9.83301 -71.833 29.5 -95.5s49.5 -35.5 89.5 -35.5c18.667 0 36.167 3.16699 52.5 9.5s30.5 15.166 42.5 26.499
s21.5 24.833 28.5 40.5s10.5 33.167 10.5 52.5v321h82v-515h-79v74c-19.333 -28.667 -41.666 -50.167 -66.999 -64.5s-55 -21.5 -89 -21.5zM329.999 688.001h93v-95h-93v95zM144.999 688.001h92v-95h-92v95z" />
    <glyph glyph-name="yacute" unicode="&#xfd;" horiz-adv-x="494" 
d="M57 -135l10.001 -0.000976562c32 0 57 5.83301 75 17.5s31.667 30.834 41 57.501l23 63l-191 512h89l126 -354c3.33301 -8.66699 6.16602 -17.667 8.49902 -27l6.5 -26c2.66699 -9.33301 4.66699 -19 6 -29c1.33301 10 3.33301 19.667 6 29l6.5 26
c2.33301 9.33301 5.16602 18.333 8.49902 27l121 354h86l-218 -597c-17.333 -47.333 -42.666 -80.333 -75.999 -99s-72.333 -28 -117 -28h-11v74zM280.001 739.999h109l-97 -147h-76z" />
    <glyph glyph-name="thorn" unicode="&#xfe;" horiz-adv-x="611" 
d="M78 744l82.001 0.000976562v-321c15.333 28.667 38.166 53.334 68.499 74.001s65.833 31 106.5 31c34 0 65.333 -7 94 -21s53.334 -33.333 74.001 -58s36.834 -53.334 48.501 -86.001s17.5 -67.334 17.5 -104.001c0 -37.333 -5.83301 -72.5 -17.5 -105.5
s-27.834 -61.833 -48.501 -86.5s-45.334 -44 -74.001 -58s-60 -21 -94 -21c-40 0 -75.333 9.5 -106 28.5s-53.667 43.5 -69 73.5v-299h-82v953zM322.001 63.001c22 0 43 4.16699 63 12.5s37.333 20.833 52 37.5s26.334 36.834 35.001 60.501s13 51.167 13 82.5
s-4.33301 59.333 -13 84s-20.334 45.334 -35.001 62.001s-32 29.334 -52 38.001s-41 13 -63 13s-42.833 -4.33301 -62.5 -13s-36.834 -21.334 -51.501 -38.001s-26.334 -37.334 -35.001 -62.001s-13 -52.667 -13 -84s4.33301 -58.833 13 -82.5
s20.334 -43.834 35.001 -60.501s31.834 -29.167 51.501 -37.5s40.5 -12.5 62.5 -12.5z" />
    <glyph glyph-name="ydieresis" unicode="&#xff;" horiz-adv-x="494" 
d="M57 -135l10.001 -0.000976562c32 0 57 5.83301 75 17.5s31.667 30.834 41 57.501l23 63l-191 512h89l126 -354c3.33301 -8.66699 6.16602 -17.667 8.49902 -27l6.5 -26c2.66699 -9.33301 4.66699 -19 6 -29c1.33301 10 3.33301 19.667 6 29l6.5 26
c2.33301 9.33301 5.16602 18.333 8.49902 27l121 354h86l-218 -597c-17.333 -47.333 -42.666 -80.333 -75.999 -99s-72.333 -28 -117 -28h-11v74zM294.001 687.999h93v-95h-93v95zM109.001 687.999h92v-95h-92v95z" />
    <glyph glyph-name="Amacron" unicode="&#x100;" horiz-adv-x="617" 
d="M266 680h90l244 -680h-90l-64 181h-277l-64 -181h-88zM197 259h221.999l-86 246l-24 82l-8 -29c-2.66699 -8 -5.16699 -16.833 -7.5 -26.5s-5.16602 -18.5 -8.49902 -26.5zM177.999 829h262v-70h-262v70z" />
    <glyph glyph-name="amacron" unicode="&#x101;" 
d="M214 -12c-24 0 -46.498 2.83105 -67.498 8.49805s-39.167 14.334 -54.5 26.001s-27.5 26.5 -36.5 44.5s-13.5 39.667 -13.5 65c0 24.667 4.66699 46 14 64s22.166 33.167 38.499 45.5s36 22.333 59 30s48.167 13.5 75.5 17.5c26 4 48.833 8 68.5 12
s36.167 8.83301 49.5 14.5s23.5 12.834 30.5 21.501s10.5 19.667 10.5 33c0 30 -9.33301 51.333 -28 64s-47 19 -85 19c-31.333 0 -58.666 -7 -81.999 -21s-36.666 -35.667 -39.999 -65h-86c3.33301 48 23.666 86.833 60.999 116.5s86.666 44.5 147.999 44.5
c67.333 0 116.5 -14.333 147.5 -43s46.5 -67 46.5 -115v-266c0 -20.667 2.33301 -40.667 7 -60s9 -34 13 -44h-81c-3.33301 7.33301 -7 17 -11 29s-6.66699 25.667 -8 41c-15.333 -23.333 -38.333 -42.833 -69 -58.5s-66.334 -23.5 -107.001 -23.5zM215.002 59.998
c24.667 0 47.6689 2.83203 69.002 8.49902s39.666 14 54.999 25s27.333 24.333 36 40s13 33.834 13 54.501v86c-10.667 -9.33301 -27.834 -18.333 -51.501 -27s-58.5 -17.334 -104.5 -26.001c-39.333 -7.33301 -67.333 -17.5 -84 -30.5s-25 -31.5 -25 -55.5
c0 -25.333 8.5 -44.166 25.5 -56.499s39.167 -18.5 66.5 -18.5zM145.004 691.997h262v-70h-262v70z" />
    <glyph glyph-name="Abreve" unicode="&#x102;" horiz-adv-x="617" 
d="M266 680h90l244 -680h-90l-64 181h-277l-64 -181h-88zM197 259h221.999l-86 246l-24 82l-8 -29c-2.66699 -8 -5.16699 -16.833 -7.5 -26.5s-5.16602 -18.5 -8.49902 -26.5zM307.999 730c-42.667 0 -76.833 13.333 -102.5 40s-40.167 60.334 -43.5 101.001h61
c4.66699 -18 13.5 -34 26.5 -48s32.833 -21 59.5 -21c26 0 45.667 7 59 21s22 30 26 48h61c-3.33301 -40.667 -17.833 -74.334 -43.5 -101.001s-60.167 -40 -103.5 -40z" />
    <glyph glyph-name="abreve" unicode="&#x103;" 
d="M214 -12c-24 0 -46.498 2.83105 -67.498 8.49805s-39.167 14.334 -54.5 26.001s-27.5 26.5 -36.5 44.5s-13.5 39.667 -13.5 65c0 24.667 4.66699 46 14 64s22.166 33.167 38.499 45.5s36 22.333 59 30s48.167 13.5 75.5 17.5c26 4 48.833 8 68.5 12
s36.167 8.83301 49.5 14.5s23.5 12.834 30.5 21.501s10.5 19.667 10.5 33c0 30 -9.33301 51.333 -28 64s-47 19 -85 19c-31.333 0 -58.666 -7 -81.999 -21s-36.666 -35.667 -39.999 -65h-86c3.33301 48 23.666 86.833 60.999 116.5s86.666 44.5 147.999 44.5
c67.333 0 116.5 -14.333 147.5 -43s46.5 -67 46.5 -115v-266c0 -20.667 2.33301 -40.667 7 -60s9 -34 13 -44h-81c-3.33301 7.33301 -7 17 -11 29s-6.66699 25.667 -8 41c-15.333 -23.333 -38.333 -42.833 -69 -58.5s-66.334 -23.5 -107.001 -23.5zM215.002 59.998
c24.667 0 47.6689 2.83203 69.002 8.49902s39.666 14 54.999 25s27.333 24.333 36 40s13 33.834 13 54.501v86c-10.667 -9.33301 -27.834 -18.333 -51.501 -27s-58.5 -17.334 -104.5 -26.001c-39.333 -7.33301 -67.333 -17.5 -84 -30.5s-25 -31.5 -25 -55.5
c0 -25.333 8.5 -44.166 25.5 -56.499s39.167 -18.5 66.5 -18.5zM275.004 592.997c-42.667 0 -76.833 13.333 -102.5 40s-40.167 60.334 -43.5 101.001h61c4.66699 -18 13.5 -34 26.5 -48s32.833 -21 59.5 -21c26 0 45.667 7 59 21s22 30 26 48h61
c-3.33301 -40.667 -17.833 -74.334 -43.5 -101.001s-60.167 -40 -103.5 -40z" />
    <glyph glyph-name="Aogonek" unicode="&#x104;" horiz-adv-x="617" 
d="M530 -236c-30 0 -55.4971 8.16602 -76.4971 24.499s-31.5 39.166 -31.5 68.499c0 16.667 3.5 32.167 10.5 46.5s15.667 27.5 26 39.5s21.333 22.833 33 32.5s22.5 17.834 32.5 24.501h-14l-64 181h-277l-64 -181h-88l249 680h90l244 -680h-16
c-32 -30.667 -55.833 -56.667 -71.5 -78s-23.5 -42.666 -23.5 -63.999c0 -12.667 3.66699 -23 11 -31s17.666 -12 30.999 -12c12.667 0 22.5 2.83301 29.5 8.5s12.167 12.167 15.5 19.5h63c-4.66699 -22.667 -16.834 -41.5 -36.501 -56.5s-43.834 -22.5 -72.501 -22.5z
M197.003 258.999h221.999l-86 246l-24 82l-8 -29c-2.66699 -8 -5.16699 -16.833 -7.5 -26.5s-5.16602 -18.5 -8.49902 -26.5z" />
    <glyph glyph-name="aogonek" unicode="&#x105;" 
d="M436 -236c-30 0 -55.4951 8.16406 -76.4951 24.4971s-31.5 39.166 -31.5 68.499c0 16.667 3.5 32.167 10.5 46.5s15.667 27.5 26 39.5s21.333 22.833 33 32.5s22.5 17.834 32.5 24.501h-21c-3.33301 7.33301 -7 17 -11 29s-6.66699 25.667 -8 41
c-15.333 -23.333 -38.333 -42.833 -69 -58.5s-66.334 -23.5 -107.001 -23.5c-24 0 -46.5 2.83301 -67.5 8.5s-39.167 14.334 -54.5 26.001s-27.5 26.5 -36.5 44.5s-13.5 39.667 -13.5 65c0 24.667 4.66699 46 14 64s22.166 33.167 38.499 45.5s36 22.333 59 30
s48.167 13.5 75.5 17.5c26 4 48.833 8 68.5 12s36.167 8.83301 49.5 14.5s23.5 12.834 30.5 21.501s10.5 19.667 10.5 33c0 30 -9.33301 51.333 -28 64s-47 19 -85 19c-31.333 0 -58.666 -7 -81.999 -21s-36.666 -35.667 -39.999 -65h-86
c3.33301 48 23.666 86.833 60.999 116.5s86.666 44.5 147.999 44.5c67.333 0 116.5 -14.333 147.5 -43s46.5 -67 46.5 -115v-266c0 -20.667 2.33301 -40.667 7 -60s9 -34 13 -44c-32 -30.667 -55.833 -56.667 -71.5 -78s-23.5 -42.666 -23.5 -63.999
c0 -12.667 3.66699 -23 11 -31s17.666 -12 30.999 -12c12.667 0 22.5 2.83301 29.5 8.5s12.167 12.167 15.5 19.5h63c-4.66699 -22.667 -16.834 -41.5 -36.501 -56.5s-43.834 -22.5 -72.501 -22.5zM215.005 59.9971c24.667 0 47.6689 2.83203 69.002 8.49902
s39.666 14 54.999 25s27.333 24.333 36 40s13 33.834 13 54.501v86c-10.667 -9.33301 -27.834 -18.333 -51.501 -27s-58.5 -17.334 -104.5 -26.001c-39.333 -7.33301 -67.333 -17.5 -84 -30.5s-25 -31.5 -25 -55.5c0 -25.333 8.5 -44.166 25.5 -56.499
s39.167 -18.5 66.5 -18.5z" />
    <glyph glyph-name="Cacute" unicode="&#x106;" horiz-adv-x="696" 
d="M373 -12c-44.667 0 -86.8311 8.66797 -126.498 26.001s-74.5 41.5 -104.5 72.5s-53.667 68.167 -71 111.5s-26 91 -26 143s8.66699 99.5 26 142.5s40.833 80 70.5 111s64.167 55.167 103.5 72.5s81.333 26 126 26c78.667 0 142.5 -20.167 191.5 -60.5
s82.5 -94.5 100.5 -162.5h-86c-15.333 44 -39.333 79.333 -72 106s-77.334 40 -134.001 40c-33.333 0 -64.333 -6.5 -93 -19.5s-53.5 -31.333 -74.5 -55s-37.5 -52.5 -49.5 -86.5s-18 -72 -18 -114s6 -80 18 -114s28.667 -63 50 -87s46.5 -42.5 75.5 -55.5
s60.167 -19.5 93.5 -19.5c50.667 0 94.167 13.667 130.5 41s61.166 64 74.499 110h89c-19.333 -70.667 -54 -126.334 -104 -167.001s-113.333 -61 -190 -61zM404.003 877.001h109l-97 -147h-76z" />
    <glyph glyph-name="cacute" unicode="&#x107;" horiz-adv-x="545" 
d="M290 -12c-34.667 0 -67 6.66992 -97 20.0029s-56.167 32 -78.5 56s-40 52.333 -53 85s-19.5 68.334 -19.5 107.001s6.5 74.667 19.5 108s30.667 62.166 53 86.499s48.5 43.333 78.5 57s62.333 20.5 97 20.5c56.667 0 104.334 -15.167 143.001 -45.5
s64.667 -71.833 78 -124.5h-87c-11.333 30 -28.333 53.333 -51 70s-50.334 25 -83.001 25c-23.333 0 -44.833 -4.33301 -64.5 -13s-36.834 -21.334 -51.501 -38.001s-26.167 -37.334 -34.5 -62.001s-12.5 -52.667 -12.5 -84s4.16699 -58.833 12.5 -82.5
s19.833 -43.834 34.5 -60.501s31.834 -29.167 51.501 -37.5s41.167 -12.5 64.5 -12.5c33.333 0 61.5 8.5 84.5 25.5s39.5 40.167 49.5 69.5h87c-12 -50.667 -37.5 -91.667 -76.5 -123s-87.167 -47 -144.5 -47zM315 740.003h109l-97 -147h-76z" />
    <glyph glyph-name="Ccircumflex" unicode="&#x108;" horiz-adv-x="696" 
d="M373 -12c-44.667 0 -86.8311 8.66797 -126.498 26.001s-74.5 41.5 -104.5 72.5s-53.667 68.167 -71 111.5s-26 91 -26 143s8.66699 99.5 26 142.5s40.833 80 70.5 111s64.167 55.167 103.5 72.5s81.333 26 126 26c78.667 0 142.5 -20.167 191.5 -60.5
s82.5 -94.5 100.5 -162.5h-86c-15.333 44 -39.333 79.333 -72 106s-77.334 40 -134.001 40c-33.333 0 -64.333 -6.5 -93 -19.5s-53.5 -31.333 -74.5 -55s-37.5 -52.5 -49.5 -86.5s-18 -72 -18 -114s6 -80 18 -114s28.667 -63 50 -87s46.5 -42.5 75.5 -55.5
s60.167 -19.5 93.5 -19.5c50.667 0 94.167 13.667 130.5 41s61.166 64 74.499 110h89c-19.333 -70.667 -54 -126.334 -104 -167.001s-113.333 -61 -190 -61zM340.003 884.001h64l114 -154h-74l-72 79l-72 -79h-73z" />
    <glyph glyph-name="ccircumflex" unicode="&#x109;" horiz-adv-x="545" 
d="M290 -12c-34.667 0 -67 6.66992 -97 20.0029s-56.167 32 -78.5 56s-40 52.333 -53 85s-19.5 68.334 -19.5 107.001s6.5 74.667 19.5 108s30.667 62.166 53 86.499s48.5 43.333 78.5 57s62.333 20.5 97 20.5c56.667 0 104.334 -15.167 143.001 -45.5
s64.667 -71.833 78 -124.5h-87c-11.333 30 -28.333 53.333 -51 70s-50.334 25 -83.001 25c-23.333 0 -44.833 -4.33301 -64.5 -13s-36.834 -21.334 -51.501 -38.001s-26.167 -37.334 -34.5 -62.001s-12.5 -52.667 -12.5 -84s4.16699 -58.833 12.5 -82.5
s19.833 -43.834 34.5 -60.501s31.834 -29.167 51.501 -37.5s41.167 -12.5 64.5 -12.5c33.333 0 61.5 8.5 84.5 25.5s39.5 40.167 49.5 69.5h87c-12 -50.667 -37.5 -91.667 -76.5 -123s-87.167 -47 -144.5 -47zM254 747.003h64l114 -154h-74l-72 79l-72 -79h-73z" />
    <glyph glyph-name="Ccaron" unicode="&#x10c;" horiz-adv-x="696" 
d="M373 -12c-44.667 0 -86.8311 8.66797 -126.498 26.001s-74.5 41.5 -104.5 72.5s-53.667 68.167 -71 111.5s-26 91 -26 143s8.66699 99.5 26 142.5s40.833 80 70.5 111s64.167 55.167 103.5 72.5s81.333 26 126 26c78.667 0 142.5 -20.167 191.5 -60.5
s82.5 -94.5 100.5 -162.5h-86c-15.333 44 -39.333 79.333 -72 106s-77.334 40 -134.001 40c-33.333 0 -64.333 -6.5 -93 -19.5s-53.5 -31.333 -74.5 -55s-37.5 -52.5 -49.5 -86.5s-18 -72 -18 -114s6 -80 18 -114s28.667 -63 50 -87s46.5 -42.5 75.5 -55.5
s60.167 -19.5 93.5 -19.5c50.667 0 94.167 13.667 130.5 41s61.166 64 74.499 110h89c-19.333 -70.667 -54 -126.334 -104 -167.001s-113.333 -61 -190 -61zM226.003 881.001h74l72 -79l72 79h73l-113 -154h-64z" />
    <glyph glyph-name="ccaron" unicode="&#x10d;" horiz-adv-x="545" 
d="M290 -12c-34.667 0 -67 6.66992 -97 20.0029s-56.167 32 -78.5 56s-40 52.333 -53 85s-19.5 68.334 -19.5 107.001s6.5 74.667 19.5 108s30.667 62.166 53 86.499s48.5 43.333 78.5 57s62.333 20.5 97 20.5c56.667 0 104.334 -15.167 143.001 -45.5
s64.667 -71.833 78 -124.5h-87c-11.333 30 -28.333 53.333 -51 70s-50.334 25 -83.001 25c-23.333 0 -44.833 -4.33301 -64.5 -13s-36.834 -21.334 -51.501 -38.001s-26.167 -37.334 -34.5 -62.001s-12.5 -52.667 -12.5 -84s4.16699 -58.833 12.5 -82.5
s19.833 -43.834 34.5 -60.501s31.834 -29.167 51.501 -37.5s41.167 -12.5 64.5 -12.5c33.333 0 61.5 8.5 84.5 25.5s39.5 40.167 49.5 69.5h87c-12 -50.667 -37.5 -91.667 -76.5 -123s-87.167 -47 -144.5 -47zM144 744.003h74l72 -79l72 79h73l-113 -154h-64z" />
    <glyph glyph-name="Dcaron" unicode="&#x10e;" horiz-adv-x="679" 
d="M86 680l225 0.000976562c49.333 0 93.833 -7.83301 133.5 -23.5s73.5 -38 101.5 -67s49.667 -64.5 65 -106.5s23 -89.333 23 -142s-7.66699 -100 -23 -142s-37 -77.833 -65 -107.5s-61.833 -52.334 -101.5 -68.001s-84.167 -23.5 -133.5 -23.5h-225v680zM311 78.001
c34 0 65.166 5.16797 93.499 15.501s52.833 26.166 73.5 47.499s36.667 48.5 48 81.5s17 72.5 17 118.5c0 46.667 -5.83301 86.5 -17.5 119.5s-27.667 60 -48 81s-44.666 36.333 -72.999 46s-59.5 14.5 -93.5 14.5h-137v-524h137zM155.999 881.002h74l72 -79l72 79h73
l-113 -154h-64z" />
    <glyph glyph-name="dcaron" unicode="&#x10f;" horiz-adv-x="651" 
d="M276 -12c-34 0 -65.332 6.99902 -93.999 20.999s-53.334 33.333 -74.001 58s-36.834 53.5 -48.501 86.5s-17.5 68.167 -17.5 105.5c0 36.667 5.83301 71.334 17.5 104.001s27.834 61.334 48.501 86.001s45.334 44 74.001 58s60 21 94 21
c40.667 0 76.167 -10.333 106.5 -31s53.166 -45.334 68.499 -74.001v321h82v-744h-79v97c-16 -32 -39.667 -58.167 -71 -78.5s-67 -30.5 -107 -30.5zM289.001 62.999c22 0 42.833 4.16699 62.5 12.5s36.834 20.833 51.501 37.5s26.334 36.834 35.001 60.501
s13 51.167 13 82.5s-4.33301 59.333 -13 84s-20.334 45.334 -35.001 62.001s-31.834 29.334 -51.501 38.001s-40.5 13 -62.5 13s-43 -4.33301 -63 -13s-37.333 -21.334 -52 -38.001s-26.334 -37.334 -35.001 -62.001s-13 -52.667 -13 -84s4.33301 -58.833 13 -82.5
s20.334 -43.834 35.001 -60.501s32 -29.167 52 -37.5s41 -12.5 63 -12.5zM582.001 562.999c16 1.33301 28.834 7.00195 38.501 17.002s14.5 24.667 14.5 44v15h-52v105h103v-120c0 -18 -2.83301 -33.5 -8.5 -46.5s-13.334 -23.833 -23.001 -32.5
s-20.667 -15.334 -33 -20.001s-25.5 -7.33398 -39.5 -8.00098v46z" />
    <glyph glyph-name="Dcroat" unicode="&#x110;" horiz-adv-x="679" 
d="M23 393l63 0.000976562v287h225c49.333 0 93.833 -7.83301 133.5 -23.5s73.5 -38 101.5 -67s49.667 -64.5 65 -106.5s23 -89.333 23 -142s-7.66699 -100 -23 -142s-37 -77.833 -65 -107.5s-61.833 -52.334 -101.5 -68.001s-84.167 -23.5 -133.5 -23.5h-225v317h-63v76z
M311 78.001c34 0 65.166 5.16797 93.499 15.501s52.833 26.166 73.5 47.499s36.667 48.5 48 81.5s17 72.5 17 118.5c0 46.667 -5.83301 86.5 -17.5 119.5s-27.667 60 -48 81s-44.666 36.333 -72.999 46s-59.5 14.5 -93.5 14.5h-137v-209h188v-76h-188v-239h137z" />
    <glyph glyph-name="dcroat" unicode="&#x111;" horiz-adv-x="611" 
d="M597 599l-63.999 -0.000976562v-599h-79v97c-16 -32 -39.667 -58.167 -71 -78.5s-67 -30.5 -107 -30.5c-34 0 -65.333 7 -94 21s-53.334 33.333 -74.001 58s-36.834 53.5 -48.501 86.5s-17.5 68.167 -17.5 105.5c0 36.667 5.83301 71.334 17.5 104.001
s27.834 61.334 48.501 86.001s45.334 44 74.001 58s60 21 94 21c40.667 0 76.167 -10.333 106.5 -31s53.166 -45.334 68.499 -74.001v176h-125v67h125v78h82v-78h64v-67zM289.001 62.999c22 0 42.833 4.16699 62.5 12.5s36.834 20.833 51.501 37.5
s26.334 36.834 35.001 60.501s13 51.167 13 82.5s-4.33301 59.333 -13 84s-20.334 45.334 -35.001 62.001s-31.834 29.334 -51.501 38.001s-40.5 13 -62.5 13s-43 -4.33301 -63 -13s-37.333 -21.334 -52 -38.001s-26.334 -37.334 -35.001 -62.001s-13 -52.667 -13 -84
s4.33301 -58.833 13 -82.5s20.334 -43.834 35.001 -60.501s32 -29.167 52 -37.5s41 -12.5 63 -12.5z" />
    <glyph glyph-name="Emacron" unicode="&#x112;" horiz-adv-x="587" 
d="M86 680h448v-79h-360v-204h306v-79h-306v-239h365v-79h-453v680zM179 829h262v-70h-262v70z" />
    <glyph glyph-name="emacron" unicode="&#x113;" horiz-adv-x="570" 
d="M295 -12c-36 0 -69.333 6.50098 -100 19.501s-57.334 31.333 -80.001 55s-40.5 52 -53.5 85s-19.5 69.5 -19.5 109.5c0 39.333 6.5 75.5 19.5 108.5s30.833 61.5 53.5 85.5s49.167 42.833 79.5 56.5s62.833 20.5 97.5 20.5c32 0 62.833 -6.33301 92.5 -19
s55.667 -31.5 78 -56.5s39.833 -55.833 52.5 -92.5s18.334 -79.334 17.001 -128.001h-405c2 -28.667 8.16699 -53.667 18.5 -75s23.166 -39 38.499 -53s32.5 -24.5 51.5 -31.5s38.833 -10.5 59.5 -10.5c36 0 65.5 7.33301 88.5 22s39.5 34.667 49.5 60h87
c-6 -22.667 -15.667 -43.5 -29 -62.5s-29.666 -35.5 -48.999 -49.5s-41.5 -24.833 -66.5 -32.5s-51.833 -11.5 -80.5 -11.5zM440 303.001c-2.66699 26 -8.49902 48.5 -17.499 67.5s-20 34.667 -33 47s-27.833 21.5 -44.5 27.5s-34.334 9 -53.001 9
c-17.333 0 -34.5 -2.83301 -51.5 -8.5s-32.833 -14.667 -47.5 -27s-27.667 -28 -39 -47s-19.333 -41.833 -24 -68.5h310zM165.001 692.001h262v-70h-262v70z" />
    <glyph glyph-name="Edotaccent" unicode="&#x116;" horiz-adv-x="587" 
d="M86 680h448v-79h-360v-204h306v-79h-306v-239h365v-79h-453v680zM270 825h92v-95h-92v95z" />
    <glyph glyph-name="edotaccent" unicode="&#x117;" horiz-adv-x="570" 
d="M295 -12c-36 0 -69.333 6.50098 -100 19.501s-57.334 31.333 -80.001 55s-40.5 52 -53.5 85s-19.5 69.5 -19.5 109.5c0 39.333 6.5 75.5 19.5 108.5s30.833 61.5 53.5 85.5s49.167 42.833 79.5 56.5s62.833 20.5 97.5 20.5c32 0 62.833 -6.33301 92.5 -19
s55.667 -31.5 78 -56.5s39.833 -55.833 52.5 -92.5s18.334 -79.334 17.001 -128.001h-405c2 -28.667 8.16699 -53.667 18.5 -75s23.166 -39 38.499 -53s32.5 -24.5 51.5 -31.5s38.833 -10.5 59.5 -10.5c36 0 65.5 7.33301 88.5 22s39.5 34.667 49.5 60h87
c-6 -22.667 -15.667 -43.5 -29 -62.5s-29.666 -35.5 -48.999 -49.5s-41.5 -24.833 -66.5 -32.5s-51.833 -11.5 -80.5 -11.5zM440 303.001c-2.66699 26 -8.49902 48.5 -17.499 67.5s-20 34.667 -33 47s-27.833 21.5 -44.5 27.5s-34.334 9 -53.001 9
c-17.333 0 -34.5 -2.83301 -51.5 -8.5s-32.833 -14.667 -47.5 -27s-27.667 -28 -39 -47s-19.333 -41.833 -24 -68.5h310zM250.001 688.001h92v-95h-92v95z" />
    <glyph glyph-name="Eogonek" unicode="&#x118;" horiz-adv-x="587" 
d="M86 680l448.003 -0.000976562v-79h-360v-204h306v-79h-306v-239h365v-79h-31c-32 -30.667 -55.833 -56.667 -71.5 -78s-23.5 -42.666 -23.5 -63.999c0 -12.667 3.66699 -23 11 -31s17.666 -12 30.999 -12c12.667 0 22.5 2.83301 29.5 8.5s12.167 12.167 15.5 19.5h63
c-4.66699 -22.667 -16.834 -41.5 -36.501 -56.5s-43.834 -22.5 -72.501 -22.5c-30 0 -55.5 8.16699 -76.5 24.5s-31.5 39.166 -31.5 68.499c0 16.667 3.5 32.167 10.5 46.5s15.667 27.5 26 39.5s21.333 22.833 33 32.5s22.5 17.834 32.5 24.501h-362v680z" />
    <glyph glyph-name="eogonek" unicode="&#x119;" horiz-adv-x="570" 
d="M304 -236c-30 0 -55.4961 8.16895 -76.4961 24.502s-31.5 39.166 -31.5 68.499c0 14.667 2.66699 28.334 8 41.001s12.166 24.5 20.499 35.5s17.5 21.167 27.5 30.5s19.667 17.666 29 24.999c-34 2 -65.5 9.83301 -94.5 23.5s-54.333 32.167 -76 55.5s-38.5 51 -50.5 83
s-18 67.333 -18 106c0 39.333 6.5 75.5 19.5 108.5s30.833 61.5 53.5 85.5s49.167 42.833 79.5 56.5s62.833 20.5 97.5 20.5c32 0 62.833 -6.33301 92.5 -19s55.667 -31.5 78 -56.5s39.833 -55.833 52.5 -92.5s18.334 -79.334 17.001 -128.001h-405
c2 -28.667 8.16699 -53.667 18.5 -75s23.166 -39 38.499 -53s32.5 -24.5 51.5 -31.5s38.833 -10.5 59.5 -10.5c36 0 65.5 7.33301 88.5 22s39.5 34.667 49.5 60h87c-10 -38 -29.667 -70.333 -59 -97s-66 -44.334 -110 -53.001c-29.333 -28.667 -51.333 -53.167 -66 -73.5
s-22 -41.166 -22 -62.499c0 -12.667 3.66699 -23 11 -31s17.666 -12 30.999 -12c12.667 0 22.5 2.83301 29.5 8.5s12.167 12.167 15.5 19.5h63c-4.66699 -22.667 -16.834 -41.5 -36.501 -56.5s-43.834 -22.5 -72.501 -22.5zM440.004 303.002
c-2.66699 26 -8.49902 48.5 -17.499 67.5s-20 34.667 -33 47s-27.833 21.5 -44.5 27.5s-34.334 9 -53.001 9c-17.333 0 -34.5 -2.83301 -51.5 -8.5s-32.833 -14.667 -47.5 -27s-27.667 -28 -39 -47s-19.333 -41.833 -24 -68.5h310z" />
    <glyph glyph-name="Ecaron" unicode="&#x11a;" horiz-adv-x="587" 
d="M86 680h448v-79h-360v-204h306v-79h-306v-239h365v-79h-453v680zM164 881h74l72 -79l72 79h73l-113 -154h-64z" />
    <glyph glyph-name="ecaron" unicode="&#x11b;" horiz-adv-x="570" 
d="M295 -12c-36 0 -69.333 6.50098 -100 19.501s-57.334 31.333 -80.001 55s-40.5 52 -53.5 85s-19.5 69.5 -19.5 109.5c0 39.333 6.5 75.5 19.5 108.5s30.833 61.5 53.5 85.5s49.167 42.833 79.5 56.5s62.833 20.5 97.5 20.5c32 0 62.833 -6.33301 92.5 -19
s55.667 -31.5 78 -56.5s39.833 -55.833 52.5 -92.5s18.334 -79.334 17.001 -128.001h-405c2 -28.667 8.16699 -53.667 18.5 -75s23.166 -39 38.499 -53s32.5 -24.5 51.5 -31.5s38.833 -10.5 59.5 -10.5c36 0 65.5 7.33301 88.5 22s39.5 34.667 49.5 60h87
c-6 -22.667 -15.667 -43.5 -29 -62.5s-29.666 -35.5 -48.999 -49.5s-41.5 -24.833 -66.5 -32.5s-51.833 -11.5 -80.5 -11.5zM440 303.001c-2.66699 26 -8.49902 48.5 -17.499 67.5s-20 34.667 -33 47s-27.833 21.5 -44.5 27.5s-34.334 9 -53.001 9
c-17.333 0 -34.5 -2.83301 -51.5 -8.5s-32.833 -14.667 -47.5 -27s-27.667 -28 -39 -47s-19.333 -41.833 -24 -68.5h310zM145.001 744.001h74l72 -79l72 79h73l-113 -154h-64z" />
    <glyph glyph-name="Gcircumflex" unicode="&#x11c;" horiz-adv-x="734" 
d="M370 -12c-45.333 0 -87.666 8.66992 -126.999 26.0029s-73.666 41.5 -102.999 72.5s-52.5 68.167 -69.5 111.5s-25.5 91 -25.5 143s8.5 99.5 25.5 142.5s40.333 80 70 111s64.167 55.167 103.5 72.5s81.333 26 126 26c32.667 0 64.5 -4.33301 95.5 -13s59.5 -22 85.5 -40
s48.5 -40.5 67.5 -67.5s33.167 -58.833 42.5 -95.5h-88c-7.33301 24.667 -17.666 45.667 -30.999 63s-29 31.666 -47 42.999s-37.667 19.666 -59 24.999s-43.333 8 -66 8c-34 0 -65.333 -6.5 -94 -19.5s-53.334 -31.333 -74.001 -55s-36.834 -52.5 -48.501 -86.5
s-17.5 -72 -17.5 -114s5.83301 -80 17.5 -114s27.834 -63 48.501 -87s45.334 -42.5 74.001 -55.5s60 -19.5 94 -19.5c33.333 0 63.5 5.5 90.5 16.5s50.333 25.667 70 44s35.167 39.833 46.5 64.5s17.666 51 18.999 79h-189v80h272v-349h-82v113
c-10 -16.667 -21.833 -32.5 -35.5 -47.5s-29.834 -28.333 -48.501 -40s-39.834 -20.834 -63.501 -27.501s-50.167 -10 -79.5 -10zM338 884.003h64l114 -154h-74l-72 79l-72 -79h-73z" />
    <glyph glyph-name="gcircumflex" unicode="&#x11d;" horiz-adv-x="609" 
d="M293 -219c-29.333 0 -57.165 3.66699 -83.498 11s-49.833 18 -70.5 32s-38.334 31.167 -53.001 51.5s-25 43.5 -31 69.5h90c12 -32 30.833 -54.667 56.5 -68s56.167 -20 91.5 -20c32 0 58.167 4.83301 78.5 14.5s36.5 22.667 48.5 39s20.167 35.333 24.5 57
s6.5 44.834 6.5 69.501v68c-15.333 -30.667 -38.333 -55.834 -69 -75.501s-66 -29.5 -106 -29.5c-34 -0 -65.333 6.83301 -94 20.5s-53.334 32.5 -74.001 56.5s-36.834 52.167 -48.501 84.5s-17.5 66.833 -17.5 103.5c0 36 5.83301 70 17.5 102s27.834 60 48.501 84
s45.334 42.833 74.001 56.5s60 20.5 94 20.5c40.667 0 76.5 -10.667 107.5 -32s54.5 -47 70.5 -77v96h79v-478c0 -85.333 -20.833 -149.333 -62.5 -192s-100.834 -64 -177.501 -64zM289.001 75c22 0 42.833 4 62.5 12s36.834 20 51.501 36s26.334 35.667 35.001 59
s13 50 13 80c0 30.667 -4.33301 57.834 -13 81.501s-20.334 43.667 -35.001 60s-31.834 28.666 -51.501 36.999s-40.5 12.5 -62.5 12.5s-43 -4.16699 -63 -12.5s-37.333 -20.666 -52 -36.999s-26.334 -36.333 -35.001 -60s-13 -50.834 -13 -81.501
c0 -30 4.33301 -56.667 13 -80s20.334 -43 35.001 -59s32 -28 52 -36s41 -12 63 -12zM252.001 747h64l114 -154h-74l-72 79l-72 -79h-73z" />
    <glyph glyph-name="Gbreve" unicode="&#x11e;" horiz-adv-x="734" 
d="M370 -12c-45.333 0 -87.666 8.66992 -126.999 26.0029s-73.666 41.5 -102.999 72.5s-52.5 68.167 -69.5 111.5s-25.5 91 -25.5 143s8.5 99.5 25.5 142.5s40.333 80 70 111s64.167 55.167 103.5 72.5s81.333 26 126 26c32.667 0 64.5 -4.33301 95.5 -13s59.5 -22 85.5 -40
s48.5 -40.5 67.5 -67.5s33.167 -58.833 42.5 -95.5h-88c-7.33301 24.667 -17.666 45.667 -30.999 63s-29 31.666 -47 42.999s-37.667 19.666 -59 24.999s-43.333 8 -66 8c-34 0 -65.333 -6.5 -94 -19.5s-53.334 -31.333 -74.001 -55s-36.834 -52.5 -48.501 -86.5
s-17.5 -72 -17.5 -114s5.83301 -80 17.5 -114s27.834 -63 48.501 -87s45.334 -42.5 74.001 -55.5s60 -19.5 94 -19.5c33.333 0 63.5 5.5 90.5 16.5s50.333 25.667 70 44s35.167 39.833 46.5 64.5s17.666 51 18.999 79h-189v80h272v-349h-82v113
c-10 -16.667 -21.833 -32.5 -35.5 -47.5s-29.834 -28.333 -48.501 -40s-39.834 -20.834 -63.501 -27.501s-50.167 -10 -79.5 -10zM369 730.003c-42.667 0 -76.833 13.333 -102.5 40s-40.167 60.334 -43.5 101.001h61c4.66699 -18 13.5 -34 26.5 -48s32.833 -21 59.5 -21
c26 0 45.667 7 59 21s22 30 26 48h61c-3.33301 -40.667 -17.833 -74.334 -43.5 -101.001s-60.167 -40 -103.5 -40z" />
    <glyph glyph-name="gbreve" unicode="&#x11f;" horiz-adv-x="609" 
d="M293 -219c-29.333 0 -57.165 3.66699 -83.498 11s-49.833 18 -70.5 32s-38.334 31.167 -53.001 51.5s-25 43.5 -31 69.5h90c12 -32 30.833 -54.667 56.5 -68s56.167 -20 91.5 -20c32 0 58.167 4.83301 78.5 14.5s36.5 22.667 48.5 39s20.167 35.333 24.5 57
s6.5 44.834 6.5 69.501v68c-15.333 -30.667 -38.333 -55.834 -69 -75.501s-66 -29.5 -106 -29.5c-34 -0 -65.333 6.83301 -94 20.5s-53.334 32.5 -74.001 56.5s-36.834 52.167 -48.501 84.5s-17.5 66.833 -17.5 103.5c0 36 5.83301 70 17.5 102s27.834 60 48.501 84
s45.334 42.833 74.001 56.5s60 20.5 94 20.5c40.667 0 76.5 -10.667 107.5 -32s54.5 -47 70.5 -77v96h79v-478c0 -85.333 -20.833 -149.333 -62.5 -192s-100.834 -64 -177.501 -64zM289.001 75c22 0 42.833 4 62.5 12s36.834 20 51.501 36s26.334 35.667 35.001 59
s13 50 13 80c0 30.667 -4.33301 57.834 -13 81.501s-20.334 43.667 -35.001 60s-31.834 28.666 -51.501 36.999s-40.5 12.5 -62.5 12.5s-43 -4.16699 -63 -12.5s-37.333 -20.666 -52 -36.999s-26.334 -36.333 -35.001 -60s-13 -50.834 -13 -81.501
c0 -30 4.33301 -56.667 13 -80s20.334 -43 35.001 -59s32 -28 52 -36s41 -12 63 -12zM283.001 593c-42.667 0 -76.833 13.333 -102.5 40s-40.167 60.334 -43.5 101.001h61c4.66699 -18 13.5 -34 26.5 -48s32.833 -21 59.5 -21c26 0 45.667 7 59 21s22 30 26 48h61
c-3.33301 -40.667 -17.833 -74.334 -43.5 -101.001s-60.167 -40 -103.5 -40z" />
    <glyph glyph-name="Gcommaaccent" unicode="&#x122;" horiz-adv-x="734" 
d="M370 -12c-45.333 0 -87.666 8.66992 -126.999 26.0029s-73.666 41.5 -102.999 72.5s-52.5 68.167 -69.5 111.5s-25.5 91 -25.5 143s8.5 99.5 25.5 142.5s40.333 80 70 111s64.167 55.167 103.5 72.5s81.333 26 126 26c32.667 0 64.5 -4.33301 95.5 -13s59.5 -22 85.5 -40
s48.5 -40.5 67.5 -67.5s33.167 -58.833 42.5 -95.5h-88c-7.33301 24.667 -17.666 45.667 -30.999 63s-29 31.666 -47 42.999s-37.667 19.666 -59 24.999s-43.333 8 -66 8c-34 0 -65.333 -6.5 -94 -19.5s-53.334 -31.333 -74.001 -55s-36.834 -52.5 -48.501 -86.5
s-17.5 -72 -17.5 -114s5.83301 -80 17.5 -114s27.834 -63 48.501 -87s45.334 -42.5 74.001 -55.5s60 -19.5 94 -19.5c33.333 0 63.5 5.5 90.5 16.5s50.333 25.667 70 44s35.167 39.833 46.5 64.5s17.666 51 18.999 79h-189v80h272v-349h-82v113
c-10 -16.667 -21.833 -32.5 -35.5 -47.5s-29.834 -28.333 -48.501 -40s-39.834 -20.834 -63.501 -27.501s-50.167 -10 -79.5 -10zM316 -238.997c16 1.33301 28.834 7.00195 38.501 17.002s14.5 24.667 14.5 44v15h-52v105h103v-120c0 -18 -2.83301 -33.5 -8.5 -46.5
s-13.334 -23.833 -23.001 -32.5s-20.667 -15.334 -33 -20.001s-25.5 -7.33398 -39.5 -8.00098v46z" />
    <glyph glyph-name="gcommaaccent" unicode="&#x123;" horiz-adv-x="609" 
d="M474 46l88 -0.000976562c-9.33301 -14.667 -21.833 -25.667 -37.5 -33s-32.5 -11.666 -50.5 -12.999v46zM578 101.999c-0.666992 -21.333 -5.99805 -39.998 -15.998 -55.998h-88c15.333 1.33301 27.666 6.66602 36.999 15.999s14.666 22.666 15.999 39.999h51z
M293.002 102.001c-29.333 0 -57.165 3.66699 -83.498 11s-49.833 18 -70.5 32s-38.334 31.167 -53.001 51.5s-25 43.5 -31 69.5h90c12 -32 30.833 -54.667 56.5 -68s56.167 -20 91.5 -20c32 0 58.167 4.83301 78.5 14.5s36.5 22.667 48.5 39s20.167 35.333 24.5 57
s6.5 44.834 6.5 69.501v68c-15.333 -30.667 -38.333 -55.834 -69 -75.501s-66 -29.5 -106 -29.5c-34 0 -65.333 6.83301 -94 20.5s-53.334 32.5 -74.001 56.5s-36.834 52.167 -48.501 84.5s-17.5 66.833 -17.5 103.5c0 36 5.83301 70 17.5 102s27.834 60 48.501 84
s45.334 42.833 74.001 56.5s60 20.5 94 20.5c40.667 0 76.5 -10.667 107.5 -32s54.5 -47 70.5 -77v96h79v-478c0 -85.333 -20.833 -149.333 -62.5 -192s-100.834 -64 -177.501 -64zM289.003 396.001c22 0 42.833 4 62.5 12s36.834 20 51.501 36s26.334 35.667 35.001 59
s13 50 13 80c0 30.667 -4.33301 57.834 -13 81.501s-20.334 43.667 -35.001 60s-31.834 28.666 -51.501 36.999s-40.5 12.5 -62.5 12.5s-43 -4.16699 -63 -12.5s-37.333 -20.666 -52 -36.999s-26.334 -36.333 -35.001 -60s-13 -50.834 -13 -81.501
c0 -30 4.33301 -56.667 13 -80s20.334 -43 35.001 -59s32 -28 52 -36s41 -12 63 -12zM328.003 1096c-16 -1.33301 -28.834 -6.99902 -38.501 -16.999s-14.5 -24.667 -14.5 -44v-15h52v-105h-103v120c0 18 2.83301 33.5 8.5 46.5s13.334 23.833 23.001 32.5
s20.667 15.167 33 19.5s25.5 7.16602 39.5 8.49902v-46zM578.002 1095h-103h103zM578.002 975.002v-5h-51v5h51z" />
    <glyph glyph-name="Hcircumflex" unicode="&#x124;" horiz-adv-x="696" 
d="M86 680h88v-283h348v283h88v-680h-88v317h-348v-317h-88v680zM317 884h64l114 -154h-74l-72 79l-72 -79h-73z" />
    <glyph glyph-name="hcircumflex" unicode="&#x125;" horiz-adv-x="571" 
d="M78 744l82 -0.00195312v-300c17.333 26.667 38.666 47.334 63.999 62.001s55 22 89 22c28 0 53.167 -5 75.5 -15s41.5 -24.333 57.5 -43s28.167 -41 36.5 -67s12.5 -55 12.5 -87v-316h-82v319c0 40 -9.83301 72 -29.5 96s-49.5 36 -89.5 36
c-19.333 0 -37.166 -3.16699 -53.499 -9.5s-30.5 -15.166 -42.5 -26.499s-21.333 -25 -28 -41s-10 -33.667 -10 -53v-321h-82v744zM250 926.998h64l114 -154h-74l-72 79l-72 -79h-73z" />
    <glyph glyph-name="Imacron" unicode="&#x12a;" horiz-adv-x="266" 
d="M89 680h88v-680h-88v680zM2 829h262v-70h-262v70z" />
    <glyph glyph-name="imacron" unicode="&#x12b;" horiz-adv-x="240" 
d="M79 515h82v-515h-82v515zM-11 732h262v-70h-262v70z" />
    <glyph glyph-name="Iogonek" unicode="&#x12e;" horiz-adv-x="266" 
d="M89 680l88.0029 -0.000976562v-680c-32 -30.667 -55.833 -56.667 -71.5 -78s-23.5 -42.666 -23.5 -63.999c0 -12.667 3.66699 -23 11 -31s17.666 -12 30.999 -12c12.667 0 22.5 2.83301 29.5 8.5s12.167 12.167 15.5 19.5h63
c-4.66699 -22.667 -16.834 -41.5 -36.501 -56.5s-43.834 -22.5 -72.501 -22.5c-30 0 -55.5 8.16699 -76.5 24.5s-31.5 39.166 -31.5 68.499c0 16.667 3.5 32.167 10.5 46.5s15.667 27.5 26 39.5s21.333 22.833 33 32.5s22.5 17.834 32.5 24.501h-28v680z" />
    <glyph glyph-name="iogonek" unicode="&#x12f;" horiz-adv-x="240" 
d="M79 515l82.0029 -0.000976562v-515c-32 -30.667 -55.833 -56.667 -71.5 -78s-23.5 -42.666 -23.5 -63.999c0 -12.667 3.66699 -23 11 -31s17.666 -12 30.999 -12c12.667 0 22.5 2.83301 29.5 8.5s12.167 12.167 15.5 19.5h63
c-4.66699 -22.667 -16.834 -41.5 -36.501 -56.5s-43.834 -22.5 -72.501 -22.5c-30 0 -55.5 8.16699 -76.5 24.5s-31.5 39.166 -31.5 68.499c0 16.667 3.5 32.167 10.5 46.5s15.667 27.5 26 39.5s21.333 22.833 33 32.5s22.5 17.834 32.5 24.501h-22v515zM75.0029 713.999h90
v-101h-90v101z" />
    <glyph glyph-name="Idotaccent" unicode="&#x130;" horiz-adv-x="266" 
d="M89 680h88v-680h-88v680zM87 825h92v-95h-92v95z" />
    <glyph glyph-name="dotlessi" unicode="&#x131;" horiz-adv-x="240" 
d="M79 515h82v-515h-82v515z" />
    <glyph glyph-name="Jcircumflex" unicode="&#x134;" horiz-adv-x="534" 
d="M244 -12c-32.667 0 -62.1641 5.5 -88.4971 16.5s-49 26.5 -68 46.5s-33.667 44 -44 72s-15.5 59 -15.5 93h87c0 -20 2.33301 -39.167 7 -57.5s12.167 -34.333 22.5 -48s23.666 -24.667 39.999 -33s36.166 -12.5 59.499 -12.5c47.333 0 80.666 14.167 99.999 42.5
s29 68.5 29 120.5v452h88v-452c0 -36.667 -4.5 -69.667 -13.5 -99s-22.667 -54.5 -41 -75.5s-41 -37.167 -68 -48.5s-58.5 -17 -94.5 -17zM385.003 884h64l114 -154h-74l-72 79l-72 -79h-73z" />
    <glyph glyph-name="jcircumflex" unicode="&#x135;" horiz-adv-x="240" 
d="M-14 -135h16.001c25.333 0 44.5 6 57.5 18s19.5 32.667 19.5 62v570h82v-571c0 -50 -14.333 -88 -43 -114s-67.334 -39 -116.001 -39h-16v74zM88.001 787h64l114 -154h-74l-72 79l-72 -79h-73z" />
    <glyph glyph-name="Kcommaaccent" unicode="&#x136;" horiz-adv-x="628" 
d="M281 348l-114 -119v-229h-81v680h81v-350l335 350h98l-263 -274l271 -406h-96zM269 -239c16 1.33301 28.834 7.00195 38.501 17.002s14.5 24.667 14.5 44v15h-52v105h103v-120c0 -18 -2.83301 -33.5 -8.5 -46.5s-13.334 -23.833 -23.001 -32.5
s-20.667 -15.334 -33 -20.001s-25.5 -7.33398 -39.5 -8.00098v46z" />
    <glyph glyph-name="kcommaaccent" unicode="&#x137;" horiz-adv-x="527" 
d="M245 251l-85 -90v-161h-82v744h82v-479l234 250h101l-191 -202l209 -313h-100zM232 -239c16 1.33301 28.834 7.00195 38.501 17.002s14.5 24.667 14.5 44v15h-52v105h103v-120c0 -18 -2.83301 -33.5 -8.5 -46.5s-13.334 -23.833 -23.001 -32.5
s-20.667 -15.334 -33 -20.001s-25.5 -7.33398 -39.5 -8.00098v46z" />
    <glyph glyph-name="Lacute" unicode="&#x139;" horiz-adv-x="532" 
d="M86 680h88v-601h328v-79h-416v680zM160 877h109l-97 -147h-76z" />
    <glyph glyph-name="lacute" unicode="&#x13a;" horiz-adv-x="242" 
d="M80 744h82v-744h-82v744zM146 920h109l-97 -147h-76z" />
    <glyph glyph-name="Lcommaaccent" unicode="&#x13b;" horiz-adv-x="532" 
d="M86 680h88v-601h328v-79h-416v680zM236 -239c16 1.33301 28.834 7.00195 38.501 17.002s14.5 24.667 14.5 44v15h-52v105h103v-120c0 -18 -2.83301 -33.5 -8.5 -46.5s-13.334 -23.833 -23.001 -32.5s-20.667 -15.334 -33 -20.001s-25.5 -7.33398 -39.5 -8.00098v46z" />
    <glyph glyph-name="lcommaaccent" unicode="&#x13c;" horiz-adv-x="242" 
d="M80 744h82v-744h-82v744zM67 -239c16 1.33301 28.834 7.00195 38.501 17.002s14.5 24.667 14.5 44v15h-52v105h103v-120c0 -18 -2.83301 -33.5 -8.5 -46.5s-13.334 -23.833 -23.001 -32.5s-20.667 -15.334 -33 -20.001s-25.5 -7.33398 -39.5 -8.00098v46z" />
    <glyph glyph-name="Lcaron" unicode="&#x13d;" horiz-adv-x="532" 
d="M86 680h88v-601h328v-79h-416v680zM378 499c16 1.33301 28.834 7.00195 38.501 17.002s14.5 24.667 14.5 44v15h-52v105h103v-120c0 -18 -2.83301 -33.5 -8.5 -46.5s-13.334 -23.833 -23.001 -32.5s-20.667 -15.334 -33 -20.001s-25.5 -7.33398 -39.5 -8.00098v46z" />
    <glyph glyph-name="lcaron" unicode="&#x13e;" horiz-adv-x="280" 
d="M80 744h82v-744h-82v744zM211 563c16 1.33301 28.834 7.00195 38.501 17.002s14.5 24.667 14.5 44v15h-52v105h103v-120c0 -18 -2.83301 -33.5 -8.5 -46.5s-13.334 -23.833 -23.001 -32.5s-20.667 -15.334 -33 -20.001s-25.5 -7.33398 -39.5 -8.00098v46z" />
    <glyph glyph-name="Lslash" unicode="&#x141;" horiz-adv-x="532" 
d="M3 276l83 42v362h88v-318l172 87v-76l-172 -87v-207h328v-79h-416v242l-83 -42v76z" />
    <glyph glyph-name="lslash" unicode="&#x142;" horiz-adv-x="283" 
d="M17 332l83 48v364h82v-316l95 56v-77l-95 -56v-351h-82v303l-83 -48v77z" />
    <glyph glyph-name="Nacute" unicode="&#x143;" horiz-adv-x="686" 
d="M86 680h97l337 -543v543h80v-680h-89l-345 555v-555h-80v680zM384 877h109l-97 -147h-76z" />
    <glyph glyph-name="nacute" unicode="&#x144;" horiz-adv-x="571" 
d="M78 515l79 -0.00195312v-74c19.333 28.667 41.666 50.334 66.999 65.001s55 22 89 22c28 0 53.167 -5 75.5 -15s41.5 -24.333 57.5 -43s28.167 -41 36.5 -67s12.5 -55 12.5 -87v-316h-82v319c0 40 -9.83301 72 -29.5 96s-49.5 36 -89.5 36
c-19.333 0 -37.166 -3.16699 -53.499 -9.5s-30.5 -15.166 -42.5 -26.499s-21.333 -25 -28 -41s-10 -33.667 -10 -53v-321h-82v515zM328 739.998h109l-97 -147h-76z" />
    <glyph glyph-name="Ncommaaccent" unicode="&#x145;" horiz-adv-x="686" 
d="M86 680h97l337 -543v543h80v-680h-89l-345 555v-555h-80v680zM294 -239c16 1.33301 28.834 7.00195 38.501 17.002s14.5 24.667 14.5 44v15h-52v105h103v-120c0 -18 -2.83301 -33.5 -8.5 -46.5s-13.334 -23.833 -23.001 -32.5s-20.667 -15.334 -33 -20.001
s-25.5 -7.33398 -39.5 -8.00098v46z" />
    <glyph glyph-name="ncommaaccent" unicode="&#x146;" horiz-adv-x="571" 
d="M78 515l79 -0.00195312v-74c19.333 28.667 41.666 50.334 66.999 65.001s55 22 89 22c28 0 53.167 -5 75.5 -15s41.5 -24.333 57.5 -43s28.167 -41 36.5 -67s12.5 -55 12.5 -87v-316h-82v319c0 40 -9.83301 72 -29.5 96s-49.5 36 -89.5 36
c-19.333 0 -37.166 -3.16699 -53.499 -9.5s-30.5 -15.166 -42.5 -26.499s-21.333 -25 -28 -41s-10 -33.667 -10 -53v-321h-82v515zM236 -239.002c16 1.33301 28.834 7.00195 38.501 17.002s14.5 24.667 14.5 44v15h-52v105h103v-120c0 -18 -2.83301 -33.5 -8.5 -46.5
s-13.334 -23.833 -23.001 -32.5s-20.667 -15.334 -33 -20.001s-25.5 -7.33398 -39.5 -8.00098v46z" />
    <glyph glyph-name="Ncaron" unicode="&#x147;" horiz-adv-x="686" 
d="M86 680h97l337 -543v543h80v-680h-89l-345 555v-555h-80v680zM219 881h74l72 -79l72 79h73l-113 -154h-64z" />
    <glyph glyph-name="ncaron" unicode="&#x148;" horiz-adv-x="571" 
d="M78 515l79 -0.00195312v-74c19.333 28.667 41.666 50.334 66.999 65.001s55 22 89 22c28 0 53.167 -5 75.5 -15s41.5 -24.333 57.5 -43s28.167 -41 36.5 -67s12.5 -55 12.5 -87v-316h-82v319c0 40 -9.83301 72 -29.5 96s-49.5 36 -89.5 36
c-19.333 0 -37.166 -3.16699 -53.499 -9.5s-30.5 -15.166 -42.5 -26.499s-21.333 -25 -28 -41s-10 -33.667 -10 -53v-321h-82v515zM146 743.998h74l72 -79l72 79h73l-113 -154h-64z" />
    <glyph glyph-name="Omacron" unicode="&#x14c;" horiz-adv-x="748" 
d="M374 -12c-45.333 0 -88 8.66699 -128 26s-74.833 41.5 -104.5 72.5s-53.167 68.167 -70.5 111.5s-26 91 -26 143s8.66699 99.5 26 142.5s40.833 80 70.5 111s64.5 55.167 104.5 72.5s82.667 26 128 26c46 0 89 -8.33301 129 -25s74.833 -40.5 104.5 -71.5
s53 -68.167 70 -111.5s25.5 -91.333 25.5 -144c0 -52 -8.66699 -99.667 -26 -143s-40.833 -80.5 -70.5 -111.5s-64.5 -55.167 -104.5 -72.5s-82.667 -26 -128 -26zM374 65c34 0 65.5 6.49902 94.5 19.499s54.167 31.5 75.5 55.5s38 53 50 87s18 72 18 114
c0 42.667 -5.83301 81 -17.5 115s-28 62.833 -49 86.5s-46.167 41.834 -75.5 54.501s-61.333 19 -96 19c-34 0 -65.5 -6.5 -94.5 -19.5s-54.167 -31.333 -75.5 -55s-38 -52.5 -50 -86.5s-18 -72 -18 -114s6 -80 18 -114s28.667 -63 50 -87s46.5 -42.5 75.5 -55.5
s60.5 -19.5 94.5 -19.5zM242 828.999h262v-70h-262v70z" />
    <glyph glyph-name="omacron" unicode="&#x14d;" horiz-adv-x="578" 
d="M289 -12c-34.667 0 -67 6.66699 -97 20s-56.167 32 -78.5 56s-39.833 52.333 -52.5 85s-19 68.334 -19 107.001s6.33301 74.667 19 108s30.167 62.166 52.5 86.499s48.5 43.333 78.5 57s62.333 20.5 97 20.5s67.167 -6.83301 97.5 -20.5s56.5 -32.667 78.5 -57
s39.333 -53.166 52 -86.499s19 -69.333 19 -108s-6.33301 -74.334 -19 -107.001s-30 -61 -52 -85s-48.167 -42.667 -78.5 -56s-62.833 -20 -97.5 -20zM289 63c22 0 42.833 4.16699 62.5 12.5s37 20.833 52 37.5s26.833 36.834 35.5 60.501s13 51.167 13 82.5
s-4.33301 59.333 -13 84s-20.5 45.334 -35.5 62.001s-32.333 29.334 -52 38.001s-40.5 13 -62.5 13c-21.333 0 -41.833 -4.33301 -61.5 -13s-37 -21.334 -52 -38.001s-26.833 -37.334 -35.5 -62.001s-13 -52.667 -13 -84s4.33301 -58.833 13 -82.5
s20.5 -43.834 35.5 -60.501s32.333 -29.167 52 -37.5s40.167 -12.5 61.5 -12.5zM159 692h262v-70h-262v70z" />
    <glyph glyph-name="Ohungarumlaut" unicode="&#x150;" horiz-adv-x="748" 
d="M374 -12c-45.333 0 -88 8.66699 -128 26s-74.833 41.5 -104.5 72.5s-53.167 68.167 -70.5 111.5s-26 91 -26 143s8.66699 99.5 26 142.5s40.833 80 70.5 111s64.5 55.167 104.5 72.5s82.667 26 128 26c46 0 89 -8.33301 129 -25s74.833 -40.5 104.5 -71.5
s53 -68.167 70 -111.5s25.5 -91.333 25.5 -144c0 -52 -8.66699 -99.667 -26 -143s-40.833 -80.5 -70.5 -111.5s-64.5 -55.167 -104.5 -72.5s-82.667 -26 -128 -26zM374 65c34 0 65.5 6.49902 94.5 19.499s54.167 31.5 75.5 55.5s38 53 50 87s18 72 18 114
c0 42.667 -5.83301 81 -17.5 115s-28 62.833 -49 86.5s-46.167 41.834 -75.5 54.501s-61.333 19 -96 19c-34 0 -65.5 -6.5 -94.5 -19.5s-54.167 -31.333 -75.5 -55s-38 -52.5 -50 -86.5s-18 -72 -18 -114s6 -80 18 -114s28.667 -63 50 -87s46.5 -42.5 75.5 -55.5
s60.5 -19.5 94.5 -19.5zM457 876.999h99l-78 -147h-76zM294 876.999h99l-78 -147h-76z" />
    <glyph glyph-name="ohungarumlaut" unicode="&#x151;" horiz-adv-x="578" 
d="M289 -12c-34.667 0 -67 6.66699 -97 20s-56.167 32 -78.5 56s-39.833 52.333 -52.5 85s-19 68.334 -19 107.001s6.33301 74.667 19 108s30.167 62.166 52.5 86.499s48.5 43.333 78.5 57s62.333 20.5 97 20.5s67.167 -6.83301 97.5 -20.5s56.5 -32.667 78.5 -57
s39.333 -53.166 52 -86.499s19 -69.333 19 -108s-6.33301 -74.334 -19 -107.001s-30 -61 -52 -85s-48.167 -42.667 -78.5 -56s-62.833 -20 -97.5 -20zM289 63c22 0 42.833 4.16699 62.5 12.5s37 20.833 52 37.5s26.833 36.834 35.5 60.501s13 51.167 13 82.5
s-4.33301 59.333 -13 84s-20.5 45.334 -35.5 62.001s-32.333 29.334 -52 38.001s-40.5 13 -62.5 13c-21.333 0 -41.833 -4.33301 -61.5 -13s-37 -21.334 -52 -38.001s-26.833 -37.334 -35.5 -62.001s-13 -52.667 -13 -84s4.33301 -58.833 13 -82.5
s20.5 -43.834 35.5 -60.501s32.333 -29.167 52 -37.5s40.167 -12.5 61.5 -12.5zM374 740h99l-78 -147h-76zM211 740h99l-78 -147h-76z" />
    <glyph glyph-name="OE" unicode="&#x152;" horiz-adv-x="1113" 
d="M374 -12c-45.333 0 -87.999 8.66699 -127.999 26s-74.833 41.5 -104.5 72.5s-53.167 68.167 -70.5 111.5s-26 91 -26 143s8.66699 99.5 26 142.5s40.833 80 70.5 111s64.5 55.167 104.5 72.5s82.667 26 128 26c50.667 0 96.167 -10.167 136.5 -30.5
s74.166 -49.833 101.499 -88.5v106h448v-79h-360v-204h306v-79h-306v-239h365v-79h-453v111c-28 -40 -62.167 -70.5 -102.5 -91.5s-85.5 -31.5 -135.5 -31.5zM374.001 65c34 0 65.5 6.49902 94.5 19.499s54.167 31.5 75.5 55.5s38 53 50 87s18 72 18 114
c0 42.667 -5.83301 81 -17.5 115s-28 62.833 -49 86.5s-46.167 41.834 -75.5 54.501s-61.333 19 -96 19c-34 0 -65.5 -6.5 -94.5 -19.5s-54.167 -31.333 -75.5 -55s-38 -52.5 -50 -86.5s-18 -72 -18 -114s6 -80 18 -114s28.667 -63 50 -87s46.5 -42.5 75.5 -55.5
s60.5 -19.5 94.5 -19.5z" />
    <glyph glyph-name="oe" unicode="&#x153;" horiz-adv-x="980" 
d="M289 -12c-34.667 0 -67.002 6.66797 -97.002 20.001s-56.167 32 -78.5 56s-39.833 52.333 -52.5 85s-19 68.334 -19 107.001s6.33301 74.667 19 108s30.167 62.166 52.5 86.499s48.5 43.333 78.5 57s62.333 20.5 97 20.5c46 0 86.833 -12.167 122.5 -36.5
s63.167 -56.833 82.5 -97.5c20.667 41.333 49 74 85 98s77 36 123 36c32 0 62.833 -6.33301 92.5 -19s55.667 -31.5 78 -56.5s39.833 -55.833 52.5 -92.5s18.334 -79.334 17.001 -128.001h-405c2 -28.667 8.16699 -53.667 18.5 -75s23.166 -39 38.499 -53
s32.5 -24.5 51.5 -31.5s38.833 -10.5 59.5 -10.5c36 0 65.5 7.33301 88.5 22s39.5 34.667 49.5 60h87c-6 -22.667 -15.667 -43.5 -29 -62.5s-29.666 -35.5 -48.999 -49.5s-41.5 -24.833 -66.5 -32.5s-51.833 -11.5 -80.5 -11.5c-47.333 0 -89.166 11.667 -125.499 35
s-64.833 55 -85.5 95c-20 -39.333 -47.667 -70.833 -83 -94.5s-76 -35.5 -122 -35.5zM288.998 63.001c22 0 42.833 4.16699 62.5 12.5s37 20.833 52 37.5s26.833 36.834 35.5 60.501s13 51.167 13 82.5s-4.33301 59.333 -13 84s-20.5 45.334 -35.5 62.001
s-32.333 29.334 -52 38.001s-40.5 13 -62.5 13c-21.333 0 -41.833 -4.33301 -61.5 -13s-37 -21.334 -52 -38.001s-26.833 -37.334 -35.5 -62.001s-13 -52.667 -13 -84s4.33301 -58.833 13 -82.5s20.5 -43.834 35.5 -60.501s32.333 -29.167 52 -37.5s40.167 -12.5 61.5 -12.5
zM849.998 302.001c-2.66699 26 -8.49902 48.5 -17.499 67.5s-20 34.667 -33 47s-27.833 21.5 -44.5 27.5s-34.334 9 -53.001 9c-17.333 0 -34.5 -2.83301 -51.5 -8.5s-32.833 -14.667 -47.5 -27s-27.667 -28 -39 -47s-19.333 -41.833 -24 -68.5h310z" />
    <glyph glyph-name="Racute" unicode="&#x154;" horiz-adv-x="650" 
d="M86 680h283.998c34 0 64.167 -5 90.5 -15s48.833 -23.833 67.5 -41.5s32.834 -38.667 42.501 -63s14.5 -51.166 14.5 -80.499c0 -34.667 -8 -65 -24 -91s-42.667 -47.333 -80 -64c29.333 -10 50.333 -25.667 63 -47s21 -51 25 -89l9 -83
c2.66699 -25.333 6.33398 -46.833 11.001 -64.5s9 -31.5 13 -41.5h-83c-4.66699 9.33301 -9 21.666 -13 36.999s-7 35.333 -9 60l-7 81c-3.33301 36 -13 62.167 -29 78.5s-43 24.5 -81 24.5h-209v-281h-85v680zM377.998 361c40 0 70.333 10.5 91 31.5s31 50.167 31 87.5
c0 42 -11.333 72.667 -34 92s-54.667 29 -96 29h-199v-240h207zM345.998 877h109l-97 -147h-76z" />
    <glyph glyph-name="racute" unicode="&#x155;" horiz-adv-x="361" 
d="M78 515h79v-87c10 18 21.833 33.333 35.5 46s28 22.667 43 30s30.5 12.333 46.5 15s31 3 45 1v-83c-22.667 2 -44 0.833008 -64 -3.5s-37.667 -12.333 -53 -24s-27.5 -26.667 -36.5 -45s-13.5 -40.5 -13.5 -66.5v-298h-82v515zM239 740h109l-97 -147h-76z" />
    <glyph glyph-name="Rcommaaccent" unicode="&#x156;" horiz-adv-x="650" 
d="M86 680h283.998c34 0 64.167 -5 90.5 -15s48.833 -23.833 67.5 -41.5s32.834 -38.667 42.501 -63s14.5 -51.166 14.5 -80.499c0 -34.667 -8 -65 -24 -91s-42.667 -47.333 -80 -64c29.333 -10 50.333 -25.667 63 -47s21 -51 25 -89l9 -83
c2.66699 -25.333 6.33398 -46.833 11.001 -64.5s9 -31.5 13 -41.5h-83c-4.66699 9.33301 -9 21.666 -13 36.999s-7 35.333 -9 60l-7 81c-3.33301 36 -13 62.167 -29 78.5s-43 24.5 -81 24.5h-209v-281h-85v680zM377.998 361c40 0 70.333 10.5 91 31.5s31 50.167 31 87.5
c0 42 -11.333 72.667 -34 92s-54.667 29 -96 29h-199v-240h207zM289.998 -239c16 1.33301 28.834 7.00195 38.501 17.002s14.5 24.667 14.5 44v15h-52v105h103v-120c0 -18 -2.83301 -33.5 -8.5 -46.5s-13.334 -23.833 -23.001 -32.5s-20.667 -15.334 -33 -20.001
s-25.5 -7.33398 -39.5 -8.00098v46z" />
    <glyph glyph-name="rcommaaccent" unicode="&#x157;" horiz-adv-x="361" 
d="M78 515h79v-87c10 18 21.833 33.333 35.5 46s28 22.667 43 30s30.5 12.333 46.5 15s31 3 45 1v-83c-22.667 2 -44 0.833008 -64 -3.5s-37.667 -12.333 -53 -24s-27.5 -26.667 -36.5 -45s-13.5 -40.5 -13.5 -66.5v-298h-82v515zM69 -239
c16 1.33301 28.834 7.00195 38.501 17.002s14.5 24.667 14.5 44v15h-52v105h103v-120c0 -18 -2.83301 -33.5 -8.5 -46.5s-13.334 -23.833 -23.001 -32.5s-20.667 -15.334 -33 -20.001s-25.5 -7.33398 -39.5 -8.00098v46z" />
    <glyph glyph-name="Rcaron" unicode="&#x158;" horiz-adv-x="650" 
d="M86 680h283.998c34 0 64.167 -5 90.5 -15s48.833 -23.833 67.5 -41.5s32.834 -38.667 42.501 -63s14.5 -51.166 14.5 -80.499c0 -34.667 -8 -65 -24 -91s-42.667 -47.333 -80 -64c29.333 -10 50.333 -25.667 63 -47s21 -51 25 -89l9 -83
c2.66699 -25.333 6.33398 -46.833 11.001 -64.5s9 -31.5 13 -41.5h-83c-4.66699 9.33301 -9 21.666 -13 36.999s-7 35.333 -9 60l-7 81c-3.33301 36 -13 62.167 -29 78.5s-43 24.5 -81 24.5h-209v-281h-85v680zM377.998 361c40 0 70.333 10.5 91 31.5s31 50.167 31 87.5
c0 42 -11.333 72.667 -34 92s-54.667 29 -96 29h-199v-240h207zM167.998 881h74l72 -79l72 79h73l-113 -154h-64z" />
    <glyph glyph-name="rcaron" unicode="&#x159;" horiz-adv-x="361" 
d="M78 515h79v-87c10 18 21.833 33.333 35.5 46s28 22.667 43 30s30.5 12.333 46.5 15s31 3 45 1v-83c-22.667 2 -44 0.833008 -64 -3.5s-37.667 -12.333 -53 -24s-27.5 -26.667 -36.5 -45s-13.5 -40.5 -13.5 -66.5v-298h-82v515zM61 744h74l72 -79l72 79h73l-113 -154h-64z
" />
    <glyph glyph-name="Sacute" unicode="&#x15a;" horiz-adv-x="593" 
d="M305 -12c-39.333 0 -75.166 5.66113 -107.499 16.9941s-60 27 -83 47s-41.167 43.5 -54.5 70.5s-20.666 55.833 -21.999 86.5h88c2 -44 19.167 -79 51.5 -105s74.833 -39 127.5 -39c54 0 94.333 10.833 121 32.5s40 49.834 40 84.501c0 16 -2.33301 30.333 -7 43
s-13.334 24.334 -26.001 35.001s-30.334 20.167 -53.001 28.5s-52 16.5 -88 24.5c-38.667 8 -72.334 17.5 -101.001 28.5s-52.5 24.167 -71.5 39.5s-33.167 33.666 -42.5 54.999s-14 46.666 -14 75.999c0 28.667 5.5 54.334 16.5 77.001s26.5 41.667 46.5 57
s43.667 27 71 35s57.333 12 90 12c74.667 0 133 -17.667 175 -53s66 -82.666 72 -141.999h-86c-3.33301 33.333 -18 61.333 -44 84s-64.667 34 -116 34c-47.333 0 -82.5 -9 -105.5 -27s-34.5 -43 -34.5 -75c0 -14.667 2.16699 -27.667 6.5 -39s12.5 -21.666 24.5 -30.999
s28.667 -17.833 50 -25.5s49 -15.5 83 -23.5c38.667 -8.66699 72.834 -18.167 102.501 -28.5s54.5 -23.5 74.5 -39.5s35.167 -35.667 45.5 -59s15.5 -52 15.5 -86c0 -31.333 -6.16699 -59.166 -18.5 -83.499s-29.333 -44.666 -51 -60.999s-47.5 -28.666 -77.5 -36.999
s-62.667 -12.5 -98 -12.5zM318 876.994h109l-97 -147h-76z" />
    <glyph glyph-name="sacute" unicode="&#x15b;" horiz-adv-x="505" 
d="M261 -13c-30 0 -57.834 3.83398 -83.501 11.501s-48.334 18.667 -68.001 33s-35.667 31.666 -48 51.999s-20.166 42.833 -23.499 67.5h83c6.66699 -25.333 21.667 -46.5 45 -63.5s55 -25.5 95 -25.5c39.333 0 70 7.66699 92 23s33 34 33 56c0 11.333 -1.5 21.333 -4.5 30
s-9.33301 16.167 -19 22.5s-23.334 12.166 -41.001 17.499s-41.5 10 -71.5 14s-57 9.5 -81 16.5s-44.333 16.5 -61 28.5s-29.5 26.667 -38.5 44s-13.5 38.666 -13.5 63.999c0 18 3.5 36 10.5 54s18.333 34.167 34 48.5s35.667 25.833 60 34.5s53.833 13 88.5 13
c58 0 104.667 -13.667 140 -41s56.333 -64 63 -110h-83c-6.66699 24 -20.667 42.667 -42 56s-47.333 20 -78 20c-37.333 0 -65.166 -7.16699 -83.499 -21.5s-27.5 -31.166 -27.5 -50.499c0 -10.667 2 -19.834 6 -27.501s10.833 -14.5 20.5 -20.5s22.5 -11.167 38.5 -15.5
s36.333 -8.5 61 -12.5c28.667 -4.66699 55.334 -10 80.001 -16s46 -14.5 64 -25.5s32.167 -26 42.5 -45s15.5 -43.833 15.5 -74.5c0 -25.333 -5.16699 -47.666 -15.5 -66.999s-24.5 -35.666 -42.5 -48.999s-39.5 -23.5 -64.5 -30.5s-52.5 -10.5 -82.5 -10.5z
M276.999 740.001h109l-97 -147h-76z" />
    <glyph glyph-name="Scircumflex" unicode="&#x15c;" horiz-adv-x="593" 
d="M305 -12c-39.333 0 -75.166 5.66113 -107.499 16.9941s-60 27 -83 47s-41.167 43.5 -54.5 70.5s-20.666 55.833 -21.999 86.5h88c2 -44 19.167 -79 51.5 -105s74.833 -39 127.5 -39c54 0 94.333 10.833 121 32.5s40 49.834 40 84.501c0 16 -2.33301 30.333 -7 43
s-13.334 24.334 -26.001 35.001s-30.334 20.167 -53.001 28.5s-52 16.5 -88 24.5c-38.667 8 -72.334 17.5 -101.001 28.5s-52.5 24.167 -71.5 39.5s-33.167 33.666 -42.5 54.999s-14 46.666 -14 75.999c0 28.667 5.5 54.334 16.5 77.001s26.5 41.667 46.5 57
s43.667 27 71 35s57.333 12 90 12c74.667 0 133 -17.667 175 -53s66 -82.666 72 -141.999h-86c-3.33301 33.333 -18 61.333 -44 84s-64.667 34 -116 34c-47.333 0 -82.5 -9 -105.5 -27s-34.5 -43 -34.5 -75c0 -14.667 2.16699 -27.667 6.5 -39s12.5 -21.666 24.5 -30.999
s28.667 -17.833 50 -25.5s49 -15.5 83 -23.5c38.667 -8.66699 72.834 -18.167 102.501 -28.5s54.5 -23.5 74.5 -39.5s35.167 -35.667 45.5 -59s15.5 -52 15.5 -86c0 -31.333 -6.16699 -59.166 -18.5 -83.499s-29.333 -44.666 -51 -60.999s-47.5 -28.666 -77.5 -36.999
s-62.667 -12.5 -98 -12.5zM254 883.994h64l114 -154h-74l-72 79l-72 -79h-73z" />
    <glyph glyph-name="scircumflex" unicode="&#x15d;" horiz-adv-x="505" 
d="M261 -13c-30 0 -57.834 3.83398 -83.501 11.501s-48.334 18.667 -68.001 33s-35.667 31.666 -48 51.999s-20.166 42.833 -23.499 67.5h83c6.66699 -25.333 21.667 -46.5 45 -63.5s55 -25.5 95 -25.5c39.333 0 70 7.66699 92 23s33 34 33 56c0 11.333 -1.5 21.333 -4.5 30
s-9.33301 16.167 -19 22.5s-23.334 12.166 -41.001 17.499s-41.5 10 -71.5 14s-57 9.5 -81 16.5s-44.333 16.5 -61 28.5s-29.5 26.667 -38.5 44s-13.5 38.666 -13.5 63.999c0 18 3.5 36 10.5 54s18.333 34.167 34 48.5s35.667 25.833 60 34.5s53.833 13 88.5 13
c58 0 104.667 -13.667 140 -41s56.333 -64 63 -110h-83c-6.66699 24 -20.667 42.667 -42 56s-47.333 20 -78 20c-37.333 0 -65.166 -7.16699 -83.499 -21.5s-27.5 -31.166 -27.5 -50.499c0 -10.667 2 -19.834 6 -27.501s10.833 -14.5 20.5 -20.5s22.5 -11.167 38.5 -15.5
s36.333 -8.5 61 -12.5c28.667 -4.66699 55.334 -10 80.001 -16s46 -14.5 64 -25.5s32.167 -26 42.5 -45s15.5 -43.833 15.5 -74.5c0 -25.333 -5.16699 -47.666 -15.5 -66.999s-24.5 -35.666 -42.5 -48.999s-39.5 -23.5 -64.5 -30.5s-52.5 -10.5 -82.5 -10.5z
M218.999 747.001h64l114 -154h-74l-72 79l-72 -79h-73z" />
    <glyph glyph-name="Scedilla" unicode="&#x15e;" horiz-adv-x="593" 
d="M550 182c0 -29.333 -5.16504 -55.3379 -15.498 -78.0049s-24.833 -42.167 -43.5 -58.5s-41 -29.166 -67 -38.499s-54.333 -15.333 -85 -18l-29 -44c2.66699 0.666992 7.33398 1 14.001 1c24.667 0 46.167 -7.83301 64.5 -23.5s27.5 -37.5 27.5 -65.5
c0 -15.333 -3 -28.833 -9 -40.5s-14 -21.334 -24 -29.001s-21.667 -13.5 -35 -17.5s-27 -6 -41 -6c-28.667 0 -54 7.16699 -76 21.5s-35 33.5 -39 57.5h63c3.33301 -8 9 -14.667 17 -20s18.333 -8 31 -8c13.333 0 24.333 3.83301 33 11.5s13 17.5 13 29.5
c0 12.667 -4.33301 23 -13 31s-19.334 12 -32.001 12c-8 0 -15.167 -1.66699 -21.5 -5s-11.833 -7 -16.5 -11l-35 28l44 78c-35.333 2.66699 -67.333 10.334 -96 23.001s-53.167 28.667 -73.5 48s-36.5 41.833 -48.5 67.5s-18.333 52.834 -19 81.501h88
c2 -44 19.167 -79 51.5 -105s74.833 -39 127.5 -39c54 0 94.333 10.833 121 32.5s40 49.834 40 84.501c0 16 -2.33301 30.333 -7 43s-13.334 24.334 -26.001 35.001s-30.334 20.167 -53.001 28.5s-52 16.5 -88 24.5c-38.667 8 -72.334 17.5 -101.001 28.5
s-52.5 24.167 -71.5 39.5s-33.167 33.666 -42.5 54.999s-14 46.666 -14 75.999c0 28.667 5.5 54.334 16.5 77.001s26.5 41.667 46.5 57s43.667 27 71 35s57.333 12 90 12c74.667 0 133 -17.667 175 -53s66 -82.666 72 -141.999h-86c-3.33301 33.333 -18 61.333 -44 84
s-64.667 34 -116 34c-47.333 0 -82.5 -9 -105.5 -27s-34.5 -43 -34.5 -75c0 -14.667 2.16699 -27.667 6.5 -39s12.5 -21.666 24.5 -30.999s28.667 -17.833 50 -25.5s49 -15.5 83 -23.5c38.667 -8.66699 72.834 -18.167 102.501 -28.5s54.5 -23.5 74.5 -39.5
s35.167 -35.667 45.5 -59s15.5 -52 15.5 -86z" />
    <glyph glyph-name="Scedilla" unicode="&#xf6c1;" horiz-adv-x="593" 
d="M550 182c0 -29.333 -5.16504 -55.3379 -15.498 -78.0049s-24.833 -42.167 -43.5 -58.5s-41 -29.166 -67 -38.499s-54.333 -15.333 -85 -18l-29 -44c2.66699 0.666992 7.33398 1 14.001 1c24.667 0 46.167 -7.83301 64.5 -23.5s27.5 -37.5 27.5 -65.5
c0 -15.333 -3 -28.833 -9 -40.5s-14 -21.334 -24 -29.001s-21.667 -13.5 -35 -17.5s-27 -6 -41 -6c-28.667 0 -54 7.16699 -76 21.5s-35 33.5 -39 57.5h63c3.33301 -8 9 -14.667 17 -20s18.333 -8 31 -8c13.333 0 24.333 3.83301 33 11.5s13 17.5 13 29.5
c0 12.667 -4.33301 23 -13 31s-19.334 12 -32.001 12c-8 0 -15.167 -1.66699 -21.5 -5s-11.833 -7 -16.5 -11l-35 28l44 78c-35.333 2.66699 -67.333 10.334 -96 23.001s-53.167 28.667 -73.5 48s-36.5 41.833 -48.5 67.5s-18.333 52.834 -19 81.501h88
c2 -44 19.167 -79 51.5 -105s74.833 -39 127.5 -39c54 0 94.333 10.833 121 32.5s40 49.834 40 84.501c0 16 -2.33301 30.333 -7 43s-13.334 24.334 -26.001 35.001s-30.334 20.167 -53.001 28.5s-52 16.5 -88 24.5c-38.667 8 -72.334 17.5 -101.001 28.5
s-52.5 24.167 -71.5 39.5s-33.167 33.666 -42.5 54.999s-14 46.666 -14 75.999c0 28.667 5.5 54.334 16.5 77.001s26.5 41.667 46.5 57s43.667 27 71 35s57.333 12 90 12c74.667 0 133 -17.667 175 -53s66 -82.666 72 -141.999h-86c-3.33301 33.333 -18 61.333 -44 84
s-64.667 34 -116 34c-47.333 0 -82.5 -9 -105.5 -27s-34.5 -43 -34.5 -75c0 -14.667 2.16699 -27.667 6.5 -39s12.5 -21.666 24.5 -30.999s28.667 -17.833 50 -25.5s49 -15.5 83 -23.5c38.667 -8.66699 72.834 -18.167 102.501 -28.5s54.5 -23.5 74.5 -39.5
s35.167 -35.667 45.5 -59s15.5 -52 15.5 -86z" />
    <glyph glyph-name="scedilla" unicode="&#x15f;" horiz-adv-x="505" 
d="M466 144c0 -23.333 -4.33398 -44.3301 -13.001 -62.9971s-21 -34.5 -37 -47.5s-35 -23.333 -57 -31s-46 -12.5 -72 -14.5l-28 -43c2.66699 0.666992 7.33398 1 14.001 1c24.667 0 46.167 -7.83301 64.5 -23.5s27.5 -37.5 27.5 -65.5c0 -15.333 -3 -28.833 -9 -40.5
s-14 -21.334 -24 -29.001s-21.667 -13.5 -35 -17.5s-27 -6 -41 -6c-28.667 0 -54 7.16699 -76 21.5s-35 33.5 -39 57.5h63c3.33301 -8 9 -14.667 17 -20s18.333 -8 31 -8c13.333 0 24.333 3.83301 33 11.5s13 17.5 13 29.5c0 12.667 -4.33301 23 -13 31
s-19.334 12 -32.001 12c-8 0 -15.167 -1.66699 -21.5 -5s-11.833 -7 -16.5 -11l-35 28l45 78c-52 5.33301 -94.667 22.5 -128 51.5s-53 65.833 -59 110.5h83c6.66699 -25.333 21.667 -46.5 45 -63.5s55 -25.5 95 -25.5c39.333 0 70 7.66699 92 23s33 34 33 56
c0 11.333 -1.5 21.333 -4.5 30s-9.33301 16.167 -19 22.5s-23.334 12.166 -41.001 17.499s-41.5 10 -71.5 14s-57 9.5 -81 16.5s-44.333 16.5 -61 28.5s-29.5 26.667 -38.5 44s-13.5 38.666 -13.5 63.999c0 18 3.5 36 10.5 54s18.333 34.167 34 48.5s35.667 25.833 60 34.5
s53.833 13 88.5 13c58 0 104.667 -13.667 140 -41s56.333 -64 63 -110h-83c-6.66699 24 -20.667 42.667 -42 56s-47.333 20 -78 20c-37.333 0 -65.166 -7.16699 -83.499 -21.5s-27.5 -31.166 -27.5 -50.499c0 -10.667 2 -19.834 6 -27.501s10.833 -14.5 20.5 -20.5
s22.5 -11.167 38.5 -15.5s36.333 -8.5 61 -12.5c28.667 -4.66699 55.334 -10 80.001 -16s46 -14.5 64 -25.5s32.167 -26 42.5 -45s15.5 -43.833 15.5 -74.5z" />
    <glyph glyph-name="scedilla" unicode="&#xf6c2;" horiz-adv-x="505" 
d="M466 144c0 -23.333 -4.33398 -44.3301 -13.001 -62.9971s-21 -34.5 -37 -47.5s-35 -23.333 -57 -31s-46 -12.5 -72 -14.5l-28 -43c2.66699 0.666992 7.33398 1 14.001 1c24.667 0 46.167 -7.83301 64.5 -23.5s27.5 -37.5 27.5 -65.5c0 -15.333 -3 -28.833 -9 -40.5
s-14 -21.334 -24 -29.001s-21.667 -13.5 -35 -17.5s-27 -6 -41 -6c-28.667 0 -54 7.16699 -76 21.5s-35 33.5 -39 57.5h63c3.33301 -8 9 -14.667 17 -20s18.333 -8 31 -8c13.333 0 24.333 3.83301 33 11.5s13 17.5 13 29.5c0 12.667 -4.33301 23 -13 31
s-19.334 12 -32.001 12c-8 0 -15.167 -1.66699 -21.5 -5s-11.833 -7 -16.5 -11l-35 28l45 78c-52 5.33301 -94.667 22.5 -128 51.5s-53 65.833 -59 110.5h83c6.66699 -25.333 21.667 -46.5 45 -63.5s55 -25.5 95 -25.5c39.333 0 70 7.66699 92 23s33 34 33 56
c0 11.333 -1.5 21.333 -4.5 30s-9.33301 16.167 -19 22.5s-23.334 12.166 -41.001 17.499s-41.5 10 -71.5 14s-57 9.5 -81 16.5s-44.333 16.5 -61 28.5s-29.5 26.667 -38.5 44s-13.5 38.666 -13.5 63.999c0 18 3.5 36 10.5 54s18.333 34.167 34 48.5s35.667 25.833 60 34.5
s53.833 13 88.5 13c58 0 104.667 -13.667 140 -41s56.333 -64 63 -110h-83c-6.66699 24 -20.667 42.667 -42 56s-47.333 20 -78 20c-37.333 0 -65.166 -7.16699 -83.499 -21.5s-27.5 -31.166 -27.5 -50.499c0 -10.667 2 -19.834 6 -27.501s10.833 -14.5 20.5 -20.5
s22.5 -11.167 38.5 -15.5s36.333 -8.5 61 -12.5c28.667 -4.66699 55.334 -10 80.001 -16s46 -14.5 64 -25.5s32.167 -26 42.5 -45s15.5 -43.833 15.5 -74.5z" />
    <glyph glyph-name="Scaron" unicode="&#x160;" horiz-adv-x="593" 
d="M305 -12c-39.333 0 -75.166 5.66113 -107.499 16.9941s-60 27 -83 47s-41.167 43.5 -54.5 70.5s-20.666 55.833 -21.999 86.5h88c2 -44 19.167 -79 51.5 -105s74.833 -39 127.5 -39c54 0 94.333 10.833 121 32.5s40 49.834 40 84.501c0 16 -2.33301 30.333 -7 43
s-13.334 24.334 -26.001 35.001s-30.334 20.167 -53.001 28.5s-52 16.5 -88 24.5c-38.667 8 -72.334 17.5 -101.001 28.5s-52.5 24.167 -71.5 39.5s-33.167 33.666 -42.5 54.999s-14 46.666 -14 75.999c0 28.667 5.5 54.334 16.5 77.001s26.5 41.667 46.5 57
s43.667 27 71 35s57.333 12 90 12c74.667 0 133 -17.667 175 -53s66 -82.666 72 -141.999h-86c-3.33301 33.333 -18 61.333 -44 84s-64.667 34 -116 34c-47.333 0 -82.5 -9 -105.5 -27s-34.5 -43 -34.5 -75c0 -14.667 2.16699 -27.667 6.5 -39s12.5 -21.666 24.5 -30.999
s28.667 -17.833 50 -25.5s49 -15.5 83 -23.5c38.667 -8.66699 72.834 -18.167 102.501 -28.5s54.5 -23.5 74.5 -39.5s35.167 -35.667 45.5 -59s15.5 -52 15.5 -86c0 -31.333 -6.16699 -59.166 -18.5 -83.499s-29.333 -44.666 -51 -60.999s-47.5 -28.666 -77.5 -36.999
s-62.667 -12.5 -98 -12.5zM140 880.994h74l72 -79l72 79h73l-113 -154h-64z" />
    <glyph glyph-name="scaron" unicode="&#x161;" horiz-adv-x="505" 
d="M261 -13c-30 0 -57.834 3.83398 -83.501 11.501s-48.334 18.667 -68.001 33s-35.667 31.666 -48 51.999s-20.166 42.833 -23.499 67.5h83c6.66699 -25.333 21.667 -46.5 45 -63.5s55 -25.5 95 -25.5c39.333 0 70 7.66699 92 23s33 34 33 56c0 11.333 -1.5 21.333 -4.5 30
s-9.33301 16.167 -19 22.5s-23.334 12.166 -41.001 17.499s-41.5 10 -71.5 14s-57 9.5 -81 16.5s-44.333 16.5 -61 28.5s-29.5 26.667 -38.5 44s-13.5 38.666 -13.5 63.999c0 18 3.5 36 10.5 54s18.333 34.167 34 48.5s35.667 25.833 60 34.5s53.833 13 88.5 13
c58 0 104.667 -13.667 140 -41s56.333 -64 63 -110h-83c-6.66699 24 -20.667 42.667 -42 56s-47.333 20 -78 20c-37.333 0 -65.166 -7.16699 -83.499 -21.5s-27.5 -31.166 -27.5 -50.499c0 -10.667 2 -19.834 6 -27.501s10.833 -14.5 20.5 -20.5s22.5 -11.167 38.5 -15.5
s36.333 -8.5 61 -12.5c28.667 -4.66699 55.334 -10 80.001 -16s46 -14.5 64 -25.5s32.167 -26 42.5 -45s15.5 -43.833 15.5 -74.5c0 -25.333 -5.16699 -47.666 -15.5 -66.999s-24.5 -35.666 -42.5 -48.999s-39.5 -23.5 -64.5 -30.5s-52.5 -10.5 -82.5 -10.5z
M104.999 744.001h74l72 -79l72 79h73l-113 -154h-64z" />
    <glyph glyph-name="Tcommaaccent" unicode="&#x162;" horiz-adv-x="548" 
d="M230 601h-205v79h498v-79h-205v-601h-88v601zM220 -239c16 1.33301 28.834 7.00195 38.501 17.002s14.5 24.667 14.5 44v15h-52v105h103v-120c0 -18 -2.83301 -33.5 -8.5 -46.5s-13.334 -23.833 -23.001 -32.5s-20.667 -15.334 -33 -20.001
s-25.5 -7.33398 -39.5 -8.00098v46z" />
    <glyph glyph-name="Tcommaaccent" unicode="&#x21a;" horiz-adv-x="548" 
d="M230 601h-205v79h498v-79h-205v-601h-88v601zM220 -239c16 1.33301 28.834 7.00195 38.501 17.002s14.5 24.667 14.5 44v15h-52v105h103v-120c0 -18 -2.83301 -33.5 -8.5 -46.5s-13.334 -23.833 -23.001 -32.5s-20.667 -15.334 -33 -20.001
s-25.5 -7.33398 -39.5 -8.00098v46z" />
    <glyph glyph-name="tcommaaccent" unicode="&#x163;" horiz-adv-x="338" 
d="M273 -9c-54 0 -96.668 15.6689 -128.001 47.002s-47 78.666 -47 141.999v259h-75v76h75v147h82v-147h117v-76h-117v-259c0 -42.667 9.16699 -72.167 27.5 -88.5s42.833 -24.5 73.5 -24.5c8.66699 0 14.334 0.333008 17.001 1c2.66699 0 5 0.333008 7 1v-75
c-2.66699 -0.666992 -5.66699 -1.33398 -9 -2.00098s-6.83301 -1 -10.5 -1h-12.5zM141.999 -238.998c16 1.33301 28.834 7.00195 38.501 17.002s14.5 24.667 14.5 44v15h-52v105h103v-120c0 -18 -2.83301 -33.5 -8.5 -46.5s-13.334 -23.833 -23.001 -32.5
s-20.667 -15.334 -33 -20.001s-25.5 -7.33398 -39.5 -8.00098v46z" />
    <glyph glyph-name="tcommaaccent" unicode="&#x21b;" horiz-adv-x="338" 
d="M273 -9c-54 0 -96.668 15.6689 -128.001 47.002s-47 78.666 -47 141.999v259h-75v76h75v147h82v-147h117v-76h-117v-259c0 -42.667 9.16699 -72.167 27.5 -88.5s42.833 -24.5 73.5 -24.5c8.66699 0 14.334 0.333008 17.001 1c2.66699 0 5 0.333008 7 1v-75
c-2.66699 -0.666992 -5.66699 -1.33398 -9 -2.00098s-6.83301 -1 -10.5 -1h-12.5zM141.999 -238.998c16 1.33301 28.834 7.00195 38.501 17.002s14.5 24.667 14.5 44v15h-52v105h103v-120c0 -18 -2.83301 -33.5 -8.5 -46.5s-13.334 -23.833 -23.001 -32.5
s-20.667 -15.334 -33 -20.001s-25.5 -7.33398 -39.5 -8.00098v46z" />
    <glyph glyph-name="Tcaron" unicode="&#x164;" horiz-adv-x="548" 
d="M230 601h-205v79h498v-79h-205v-601h-88v601zM128 881h74l72 -79l72 79h73l-113 -154h-64z" />
    <glyph glyph-name="tcaron" unicode="&#x165;" horiz-adv-x="409" 
d="M273 -9c-54 0 -96.668 15.6689 -128.001 47.002s-47 78.666 -47 141.999v259h-75v76h75v147h82v-147h117v-76h-117v-259c0 -42.667 9.16699 -72.167 27.5 -88.5s42.833 -24.5 73.5 -24.5c8.66699 0 14.334 0.333008 17.001 1c2.66699 0 5 0.333008 7 1v-75
c-2.66699 -0.666992 -5.66699 -1.33398 -9 -2.00098s-6.83301 -1 -10.5 -1h-12.5zM339.999 563.002c16 1.33301 28.834 7.00195 38.501 17.002s14.5 24.667 14.5 44v15h-52v105h103v-120c0 -18 -2.83301 -33.5 -8.5 -46.5s-13.334 -23.833 -23.001 -32.5
s-20.667 -15.334 -33 -20.001s-25.5 -7.33398 -39.5 -8.00098v46z" />
    <glyph glyph-name="Umacron" unicode="&#x16a;" horiz-adv-x="667" 
d="M334 -12c-38 0 -72.833 5.83301 -104.5 17.5s-59.167 28.834 -82.5 51.501s-41.5 50.5 -54.5 83.5s-19.5 70.5 -19.5 112.5v427h88v-427c0 -61.333 15 -108 45 -140s72.667 -48 128 -48c56 0 98.667 16 128 48s44 78.667 44 140v427h88v-427
c0 -42 -6.5 -79.5 -19.5 -112.5s-31 -60.833 -54 -83.5s-50.5 -39.834 -82.5 -51.501s-66.667 -17.5 -104 -17.5zM203 829h262v-70h-262v70z" />
    <glyph glyph-name="umacron" unicode="&#x16b;" horiz-adv-x="571" 
d="M258 -12c-28 0 -53.168 5.00098 -75.501 15.001s-41.5 24.167 -57.5 42.5s-28.167 40.5 -36.5 66.5s-12.5 55 -12.5 87v316h82v-319c0 -40 9.83301 -71.833 29.5 -95.5s49.5 -35.5 89.5 -35.5c18.667 0 36.167 3.16699 52.5 9.5s30.5 15.166 42.5 26.499
s21.5 24.833 28.5 40.5s10.5 33.167 10.5 52.5v321h82v-515h-79v74c-19.333 -28.667 -41.666 -50.167 -66.999 -64.5s-55 -21.5 -89 -21.5zM152.999 692.001h262v-70h-262v70z" />
    <glyph glyph-name="Ubreve" unicode="&#x16c;" horiz-adv-x="667" 
d="M334 -12c-38 0 -72.833 5.83301 -104.5 17.5s-59.167 28.834 -82.5 51.501s-41.5 50.5 -54.5 83.5s-19.5 70.5 -19.5 112.5v427h88v-427c0 -61.333 15 -108 45 -140s72.667 -48 128 -48c56 0 98.667 16 128 48s44 78.667 44 140v427h88v-427
c0 -42 -6.5 -79.5 -19.5 -112.5s-31 -60.833 -54 -83.5s-50.5 -39.834 -82.5 -51.501s-66.667 -17.5 -104 -17.5zM333 730c-42.667 0 -76.833 13.333 -102.5 40s-40.167 60.334 -43.5 101.001h61c4.66699 -18 13.5 -34 26.5 -48s32.833 -21 59.5 -21c26 0 45.667 7 59 21
s22 30 26 48h61c-3.33301 -40.667 -17.833 -74.334 -43.5 -101.001s-60.167 -40 -103.5 -40z" />
    <glyph glyph-name="ubreve" unicode="&#x16d;" horiz-adv-x="571" 
d="M258 -12c-28 0 -53.168 5.00098 -75.501 15.001s-41.5 24.167 -57.5 42.5s-28.167 40.5 -36.5 66.5s-12.5 55 -12.5 87v316h82v-319c0 -40 9.83301 -71.833 29.5 -95.5s49.5 -35.5 89.5 -35.5c18.667 0 36.167 3.16699 52.5 9.5s30.5 15.166 42.5 26.499
s21.5 24.833 28.5 40.5s10.5 33.167 10.5 52.5v321h82v-515h-79v74c-19.333 -28.667 -41.666 -50.167 -66.999 -64.5s-55 -21.5 -89 -21.5zM282.999 593.001c-42.667 0 -76.833 13.333 -102.5 40s-40.167 60.334 -43.5 101.001h61c4.66699 -18 13.5 -34 26.5 -48
s32.833 -21 59.5 -21c26 0 45.667 7 59 21s22 30 26 48h61c-3.33301 -40.667 -17.833 -74.334 -43.5 -101.001s-60.167 -40 -103.5 -40z" />
    <glyph glyph-name="Uring" unicode="&#x16e;" horiz-adv-x="667" 
d="M334 -12c-38 0 -72.833 5.83301 -104.5 17.5s-59.167 28.834 -82.5 51.501s-41.5 50.5 -54.5 83.5s-19.5 70.5 -19.5 112.5v427h88v-427c0 -61.333 15 -108 45 -140s72.667 -48 128 -48c56 0 98.667 16 128 48s44 78.667 44 140v427h88v-427
c0 -42 -6.5 -79.5 -19.5 -112.5s-31 -60.833 -54 -83.5s-50.5 -39.834 -82.5 -51.501s-66.667 -17.5 -104 -17.5zM333 707c-16 0 -30.833 2.83301 -44.5 8.5s-25.5 13.5 -35.5 23.5s-18 21.833 -24 35.5s-9 28.167 -9 43.5c0 16 3 30.833 9 44.5s14 25.5 24 35.5
s21.833 17.833 35.5 23.5s28.5 8.5 44.5 8.5c15.333 0 29.833 -2.83301 43.5 -8.5s25.667 -13.5 36 -23.5s18.5 -21.833 24.5 -35.5s9 -28.5 9 -44.5c0 -15.333 -3 -29.833 -9 -43.5s-14.167 -25.5 -24.5 -35.5s-22.333 -17.833 -36 -23.5s-28.167 -8.5 -43.5 -8.5zM333 753
c17.333 0 31.833 6.16699 43.5 18.5s17.5 27.833 17.5 46.5s-5.83301 34.334 -17.5 47.001s-26.167 19 -43.5 19s-31.833 -6.33301 -43.5 -19s-17.5 -28.334 -17.5 -47.001s5.83301 -34.167 17.5 -46.5s26.167 -18.5 43.5 -18.5z" />
    <glyph glyph-name="uring" unicode="&#x16f;" horiz-adv-x="571" 
d="M258 -12c-28 0 -53.168 5.00098 -75.501 15.001s-41.5 24.167 -57.5 42.5s-28.167 40.5 -36.5 66.5s-12.5 55 -12.5 87v316h82v-319c0 -40 9.83301 -71.833 29.5 -95.5s49.5 -35.5 89.5 -35.5c18.667 0 36.167 3.16699 52.5 9.5s30.5 15.166 42.5 26.499
s21.5 24.833 28.5 40.5s10.5 33.167 10.5 52.5v321h82v-515h-79v74c-19.333 -28.667 -41.666 -50.167 -66.999 -64.5s-55 -21.5 -89 -21.5zM282.999 570.001c-16 0 -30.833 2.83301 -44.5 8.5s-25.5 13.5 -35.5 23.5s-18 21.833 -24 35.5s-9 28.167 -9 43.5
c0 16 3 30.833 9 44.5s14 25.5 24 35.5s21.833 17.833 35.5 23.5s28.5 8.5 44.5 8.5c15.333 0 29.833 -2.83301 43.5 -8.5s25.667 -13.5 36 -23.5s18.5 -21.833 24.5 -35.5s9 -28.5 9 -44.5c0 -15.333 -3 -29.833 -9 -43.5s-14.167 -25.5 -24.5 -35.5
s-22.333 -17.833 -36 -23.5s-28.167 -8.5 -43.5 -8.5zM282.999 616.001c17.333 0 31.833 6.16699 43.5 18.5s17.5 27.833 17.5 46.5s-5.83301 34.334 -17.5 47.001s-26.167 19 -43.5 19s-31.833 -6.33301 -43.5 -19s-17.5 -28.334 -17.5 -47.001s5.83301 -34.167 17.5 -46.5
s26.167 -18.5 43.5 -18.5z" />
    <glyph glyph-name="Uhungarumlaut" unicode="&#x170;" horiz-adv-x="667" 
d="M334 -12c-38 0 -72.833 5.83301 -104.5 17.5s-59.167 28.834 -82.5 51.501s-41.5 50.5 -54.5 83.5s-19.5 70.5 -19.5 112.5v427h88v-427c0 -61.333 15 -108 45 -140s72.667 -48 128 -48c56 0 98.667 16 128 48s44 78.667 44 140v427h88v-427
c0 -42 -6.5 -79.5 -19.5 -112.5s-31 -60.833 -54 -83.5s-50.5 -39.834 -82.5 -51.501s-66.667 -17.5 -104 -17.5zM425 877h99l-78 -147h-76zM262 877h99l-78 -147h-76z" />
    <glyph glyph-name="uhungarumlaut" unicode="&#x171;" horiz-adv-x="571" 
d="M258 -12c-28 0 -53.168 5.00098 -75.501 15.001s-41.5 24.167 -57.5 42.5s-28.167 40.5 -36.5 66.5s-12.5 55 -12.5 87v316h82v-319c0 -40 9.83301 -71.833 29.5 -95.5s49.5 -35.5 89.5 -35.5c18.667 0 36.167 3.16699 52.5 9.5s30.5 15.166 42.5 26.499
s21.5 24.833 28.5 40.5s10.5 33.167 10.5 52.5v321h82v-515h-79v74c-19.333 -28.667 -41.666 -50.167 -66.999 -64.5s-55 -21.5 -89 -21.5zM377.999 740.001h99l-78 -147h-76zM214.999 740.001h99l-78 -147h-76z" />
    <glyph glyph-name="Uogonek" unicode="&#x172;" horiz-adv-x="667" 
d="M333 -236c-30 0 -55.4941 8.16504 -76.4941 24.498s-31.5 39.166 -31.5 68.499c0 14.667 2.66699 28.334 8 41.001s12.166 24.5 20.499 35.5s17.666 21.167 27.999 30.5s20.166 17.666 29.499 24.999c-34.667 2 -66.667 9.33301 -96 22s-54.5 30.334 -75.5 53.001
s-37.333 49.834 -49 81.501s-17.5 67.5 -17.5 107.5v427h88v-427c0 -61.333 15 -108 45 -140s72.667 -48 128 -48c56 0 98.667 16 128 48s44 78.667 44 140v427h88v-427c0 -38 -5.33301 -72.167 -16 -102.5s-25.5 -56.666 -44.5 -78.999s-41.667 -40.333 -68 -54
s-55.5 -22.5 -87.5 -26.5c-28.667 -28 -50.167 -52 -64.5 -72s-21.5 -40.333 -21.5 -61c0 -12.667 3.66699 -23 11 -31s17.666 -12 30.999 -12c12.667 0 22.5 2.83301 29.5 8.5s12.167 12.167 15.5 19.5h63c-4.66699 -22.667 -16.834 -41.5 -36.501 -56.5
s-43.834 -22.5 -72.501 -22.5z" />
    <glyph glyph-name="uogonek" unicode="&#x173;" horiz-adv-x="571" 
d="M439 -236c-30 0 -55.498 8.16699 -76.498 24.5s-31.5 39.166 -31.5 68.499c0 16.667 3.5 32.167 10.5 46.5s15.667 27.5 26 39.5s21.333 22.833 33 32.5s22.5 17.834 32.5 24.501h-19v74c-19.333 -28.667 -41.666 -50.167 -66.999 -64.5s-55 -21.5 -89 -21.5
c-28 0 -53.167 5 -75.5 15s-41.5 24.167 -57.5 42.5s-28.167 40.5 -36.5 66.5s-12.5 55 -12.5 87v316h82v-319c0 -40 9.83301 -71.833 29.5 -95.5s49.5 -35.5 89.5 -35.5c18.667 0 36.167 3.16699 52.5 9.5s30.5 15.166 42.5 26.499s21.5 24.833 28.5 40.5
s10.5 33.167 10.5 52.5v321h82v-515c-32 -30.667 -55.833 -56.667 -71.5 -78s-23.5 -42.666 -23.5 -63.999c0 -12.667 3.66699 -23 11 -31s17.666 -12 30.999 -12c12.667 0 22.5 2.83301 29.5 8.5s12.167 12.167 15.5 19.5h63c-4.66699 -22.667 -16.834 -41.5 -36.501 -56.5
s-43.834 -22.5 -72.501 -22.5z" />
    <glyph glyph-name="Ydieresis" unicode="&#x178;" horiz-adv-x="561" 
d="M236 282l-225 398h92l178 -317l179 317h90l-226 -398v-282h-88v282zM327 825h93v-95h-93v95zM142 825h92v-95h-92v95z" />
    <glyph glyph-name="Zacute" unicode="&#x179;" horiz-adv-x="549" 
d="M32 69l380 532h-367v79h470v-76l-375 -525h377v-79h-485v69zM308 877h109l-97 -147h-76z" />
    <glyph glyph-name="zacute" unicode="&#x17a;" horiz-adv-x="463" 
d="M33 67l285 372h-271v76h374v-72l-281 -367h290v-76h-397v67zM258 740h109l-97 -147h-76z" />
    <glyph glyph-name="Zdotaccent" unicode="&#x17b;" horiz-adv-x="549" 
d="M32 69l380 532h-367v79h470v-76l-375 -525h377v-79h-485v69zM230 825h92v-95h-92v95z" />
    <glyph glyph-name="zdotaccent" unicode="&#x17c;" horiz-adv-x="463" 
d="M33 67l285 372h-271v76h374v-72l-281 -367h290v-76h-397v67zM186 688h92v-95h-92v95z" />
    <glyph glyph-name="Zcaron" unicode="&#x17d;" horiz-adv-x="549" 
d="M32 69l380 532h-367v79h470v-76l-375 -525h377v-79h-485v69zM130 881h74l72 -79l72 79h73l-113 -154h-64z" />
    <glyph glyph-name="zcaron" unicode="&#x17e;" horiz-adv-x="463" 
d="M33 67l285 372h-271v76h374v-72l-281 -367h290v-76h-397v67zM86 744h74l72 -79l72 79h73l-113 -154h-64z" />
    <glyph glyph-name="florin" unicode="&#x192;" horiz-adv-x="384" 
d="M41 393l86 -0.000976562l23 125c10 56.667 31.167 100 63.5 130s73.5 45 123.5 45c14.667 0 31.334 -1.66699 50.001 -5l-14 -77c-15.333 4 -29.333 6 -42 6c-27.333 0 -48.333 -8.16699 -63 -24.5s-25.334 -42.5 -32.001 -78.5l-22 -121h111v-74h-124l-57 -324
c-9.33301 -51.333 -27.5 -90 -54.5 -116s-61.5 -39 -103.5 -39c-13.333 0 -29.333 1.66699 -48 5l13 76c10 -2 19.667 -3 29 -3c21.333 0 38.333 6.33301 51 19s21.667 33.334 27 62.001l56 320h-73v74z" />
    <glyph glyph-name="Scommaaccent" unicode="&#x218;" horiz-adv-x="593" 
d="M305 -12c-39.333 0 -75.166 5.66113 -107.499 16.9941s-60 27 -83 47s-41.167 43.5 -54.5 70.5s-20.666 55.833 -21.999 86.5h88c2 -44 19.167 -79 51.5 -105s74.833 -39 127.5 -39c54 0 94.333 10.833 121 32.5s40 49.834 40 84.501c0 16 -2.33301 30.333 -7 43
s-13.334 24.334 -26.001 35.001s-30.334 20.167 -53.001 28.5s-52 16.5 -88 24.5c-38.667 8 -72.334 17.5 -101.001 28.5s-52.5 24.167 -71.5 39.5s-33.167 33.666 -42.5 54.999s-14 46.666 -14 75.999c0 28.667 5.5 54.334 16.5 77.001s26.5 41.667 46.5 57
s43.667 27 71 35s57.333 12 90 12c74.667 0 133 -17.667 175 -53s66 -82.666 72 -141.999h-86c-3.33301 33.333 -18 61.333 -44 84s-64.667 34 -116 34c-47.333 0 -82.5 -9 -105.5 -27s-34.5 -43 -34.5 -75c0 -14.667 2.16699 -27.667 6.5 -39s12.5 -21.666 24.5 -30.999
s28.667 -17.833 50 -25.5s49 -15.5 83 -23.5c38.667 -8.66699 72.834 -18.167 102.501 -28.5s54.5 -23.5 74.5 -39.5s35.167 -35.667 45.5 -59s15.5 -52 15.5 -86c0 -31.333 -6.16699 -59.166 -18.5 -83.499s-29.333 -44.666 -51 -60.999s-47.5 -28.666 -77.5 -36.999
s-62.667 -12.5 -98 -12.5zM253 -239.006c16 1.33301 28.834 7.00195 38.501 17.002s14.5 24.667 14.5 44v15h-52v105h103v-120c0 -18 -2.83301 -33.5 -8.5 -46.5s-13.334 -23.833 -23.001 -32.5s-20.667 -15.334 -33 -20.001s-25.5 -7.33398 -39.5 -8.00098v46z" />
    <glyph glyph-name="scommaaccent" unicode="&#x219;" horiz-adv-x="505" 
d="M261 -13c-30 0 -57.834 3.83398 -83.501 11.501s-48.334 18.667 -68.001 33s-35.667 31.666 -48 51.999s-20.166 42.833 -23.499 67.5h83c6.66699 -25.333 21.667 -46.5 45 -63.5s55 -25.5 95 -25.5c39.333 0 70 7.66699 92 23s33 34 33 56c0 11.333 -1.5 21.333 -4.5 30
s-9.33301 16.167 -19 22.5s-23.334 12.166 -41.001 17.499s-41.5 10 -71.5 14s-57 9.5 -81 16.5s-44.333 16.5 -61 28.5s-29.5 26.667 -38.5 44s-13.5 38.666 -13.5 63.999c0 18 3.5 36 10.5 54s18.333 34.167 34 48.5s35.667 25.833 60 34.5s53.833 13 88.5 13
c58 0 104.667 -13.667 140 -41s56.333 -64 63 -110h-83c-6.66699 24 -20.667 42.667 -42 56s-47.333 20 -78 20c-37.333 0 -65.166 -7.16699 -83.499 -21.5s-27.5 -31.166 -27.5 -50.499c0 -10.667 2 -19.834 6 -27.501s10.833 -14.5 20.5 -20.5s22.5 -11.167 38.5 -15.5
s36.333 -8.5 61 -12.5c28.667 -4.66699 55.334 -10 80.001 -16s46 -14.5 64 -25.5s32.167 -26 42.5 -45s15.5 -43.833 15.5 -74.5c0 -25.333 -5.16699 -47.666 -15.5 -66.999s-24.5 -35.666 -42.5 -48.999s-39.5 -23.5 -64.5 -30.5s-52.5 -10.5 -82.5 -10.5z
M209.999 -238.999c16 1.33301 28.834 7.00195 38.501 17.002s14.5 24.667 14.5 44v15h-52v105h103v-120c0 -18 -2.83301 -33.5 -8.5 -46.5s-13.334 -23.833 -23.001 -32.5s-20.667 -15.334 -33 -20.001s-25.5 -7.33398 -39.5 -8.00098v46z" />
    <glyph glyph-name="circumflex" unicode="&#x2c6;" horiz-adv-x="500" 
d="M218 747h64l114 -154h-74l-72 79l-72 -79h-73z" />
    <glyph glyph-name="caron" unicode="&#x2c7;" horiz-adv-x="500" 
d="M104 744h74l72 -79l72 79h73l-113 -154h-64z" />
    <glyph glyph-name="breve" unicode="&#x2d8;" horiz-adv-x="500" 
d="M249 593c-42.667 0 -76.833 13.333 -102.5 40s-40.167 60.334 -43.5 101.001h61c4.66699 -18 13.5 -34 26.5 -48s32.833 -21 59.5 -21c26 0 45.667 7 59 21s22 30 26 48h61c-3.33301 -40.667 -17.833 -74.334 -43.5 -101.001s-60.167 -40 -103.5 -40z" />
    <glyph glyph-name="dotaccent" unicode="&#x2d9;" horiz-adv-x="500" 
d="M204 688h92v-95h-92v95z" />
    <glyph glyph-name="ring" unicode="&#x2da;" horiz-adv-x="500" 
d="M249 570c-16 0 -30.833 2.83301 -44.5 8.5s-25.5 13.5 -35.5 23.5s-18 21.833 -24 35.5s-9 28.167 -9 43.5c0 16 3 30.833 9 44.5s14 25.5 24 35.5s21.833 17.833 35.5 23.5s28.5 8.5 44.5 8.5c15.333 0 29.833 -2.83301 43.5 -8.5s25.667 -13.5 36 -23.5
s18.5 -21.833 24.5 -35.5s9 -28.5 9 -44.5c0 -15.333 -3 -29.833 -9 -43.5s-14.167 -25.5 -24.5 -35.5s-22.333 -17.833 -36 -23.5s-28.167 -8.5 -43.5 -8.5zM249 616c17.333 0 31.833 6.16699 43.5 18.5s17.5 27.833 17.5 46.5s-5.83301 34.334 -17.5 47.001
s-26.167 19 -43.5 19s-31.833 -6.33301 -43.5 -19s-17.5 -28.334 -17.5 -47.001s5.83301 -34.167 17.5 -46.5s26.167 -18.5 43.5 -18.5z" />
    <glyph glyph-name="ogonek" unicode="&#x2db;" horiz-adv-x="500" 
d="M242 -236c-30 0 -55.4971 8.16602 -76.4971 24.499s-31.5 39.166 -31.5 68.499c0 16.667 3.5 32.167 10.5 46.5s15.667 27.5 26 39.5s21.333 22.833 33 32.5s22.5 17.834 32.5 24.501h60c-32 -30.667 -55.833 -56.667 -71.5 -78s-23.5 -42.666 -23.5 -63.999
c0 -12.667 3.66699 -23 11 -31s17.666 -12 30.999 -12c12.667 0 22.5 2.83301 29.5 8.5s12.167 12.167 15.5 19.5h63c-4.66699 -22.667 -16.834 -41.5 -36.501 -56.5s-43.834 -22.5 -72.501 -22.5z" />
    <glyph glyph-name="tilde" unicode="&#x2dc;" horiz-adv-x="500" 
d="M87 590c3.33301 34 14.166 62.5 32.499 85.5s42.166 34.5 71.499 34.5c14 0 26.833 -2.5 38.5 -7.5s22.5 -10.333 32.5 -16l28.5 -16c9 -5 17.833 -7.5 26.5 -7.5c12 0 21.333 4.5 28 13.5s10.667 20.167 12 33.5h56c-3.33301 -34 -14.166 -62.5 -32.499 -85.5
s-42.166 -34.5 -71.499 -34.5c-14 0 -26.833 2.5 -38.5 7.5s-22.5 10.333 -32.5 16l-28.5 16c-9 5 -17.833 7.5 -26.5 7.5c-11.333 0 -20.5 -4.5 -27.5 -13.5s-11.167 -20.167 -12.5 -33.5h-56v0z" />
    <glyph glyph-name="hungarumlaut" unicode="&#x2dd;" horiz-adv-x="500" 
d="M334 740h99l-78 -147h-76zM171 740h99l-78 -147h-76z" />
    <glyph glyph-name="Delta" unicode="&#x394;" horiz-adv-x="231" 
d="M64 391h103v-109h-103v109z" />
    <glyph glyph-name="Delta" unicode="&#x2206;" horiz-adv-x="231" 
d="M64 391h103v-109h-103v109z" />
    <glyph glyph-name="Omega" unicode="&#x3a9;" horiz-adv-x="231" 
d="M64 391h103v-109h-103v109z" />
    <glyph glyph-name="Omega" unicode="&#x2126;" horiz-adv-x="231" 
d="M64 391h103v-109h-103v109z" />
    <glyph glyph-name="pi" unicode="&#x3c0;" horiz-adv-x="231" 
d="M64 391h103v-109h-103v109z" />
    <glyph glyph-name="endash" unicode="&#x2013;" horiz-adv-x="536" 
d="M50 317h436v-82h-436v82z" />
    <glyph glyph-name="emdash" unicode="&#x2014;" horiz-adv-x="861" 
d="M50 317h762v-82h-762v82z" />
    <glyph glyph-name="quoteleft" unicode="&#x2018;" horiz-adv-x="221" 
d="M59 580c0 18 3 33.667 9 47s14 24.5 24 33.5s21.5 15.833 34.5 20.5s26.5 7.66699 40.5 9v-49c-16 -1.33301 -29.5 -7 -40.5 -17s-16.5 -24.667 -16.5 -44v-28h52v-105h-103v133z" />
    <glyph glyph-name="quoteright" unicode="&#x2019;" horiz-adv-x="221" 
d="M54 486c16 1.33301 29.5 7 40.5 17s16.5 24.667 16.5 44v28h-52v105h103v-133c0 -18 -3 -33.667 -9 -47s-14 -24.5 -24 -33.5s-21.5 -16 -34.5 -21s-26.5 -7.83301 -40.5 -8.5v49z" />
    <glyph glyph-name="quotesinglbase" unicode="&#x201a;" horiz-adv-x="221" 
d="M54 -89c16 1.33301 29.5 7 40.5 17s16.5 24.667 16.5 44v28h-52v105h103v-133c0 -18 -3 -33.667 -9 -47s-14 -24.5 -24 -33.5s-21.5 -16 -34.5 -21s-26.5 -7.83301 -40.5 -8.5v49z" />
    <glyph glyph-name="quotedblleft" unicode="&#x201c;" horiz-adv-x="397" 
d="M235 580c0 18 3 33.667 9 47s14 24.5 24 33.5s21.5 15.833 34.5 20.5s26.5 7.66699 40.5 9v-49c-16 -1.33301 -29.5 -7 -40.5 -17s-16.5 -24.667 -16.5 -44v-28h52v-105h-103v133zM59 580c0 18 3 33.667 9 47s14 24.5 24 33.5s21.5 15.833 34.5 20.5s26.5 7.66699 40.5 9
v-49c-16 -1.33301 -29.5 -7 -40.5 -17s-16.5 -24.667 -16.5 -44v-28h52v-105h-103v133z" />
    <glyph glyph-name="quotedblright" unicode="&#x201d;" horiz-adv-x="397" 
d="M230 486c16 1.33301 29.5 7 40.5 17s16.5 24.667 16.5 44v28h-52v105h103v-133c0 -18 -3 -33.667 -9 -47s-14 -24.5 -24 -33.5s-21.5 -16 -34.5 -21s-26.5 -7.83301 -40.5 -8.5v49zM54 486c16 1.33301 29.5 7 40.5 17s16.5 24.667 16.5 44v28h-52v105h103v-133
c0 -18 -3 -33.667 -9 -47s-14 -24.5 -24 -33.5s-21.5 -16 -34.5 -21s-26.5 -7.83301 -40.5 -8.5v49z" />
    <glyph glyph-name="quotedblbase" unicode="&#x201e;" horiz-adv-x="397" 
d="M230 -89c16 1.33301 29.5 7 40.5 17s16.5 24.667 16.5 44v28h-52v105h103v-133c0 -18 -3 -33.667 -9 -47s-14 -24.5 -24 -33.5s-21.5 -16 -34.5 -21s-26.5 -7.83301 -40.5 -8.5v49zM54 -89c16 1.33301 29.5 7 40.5 17s16.5 24.667 16.5 44v28h-52v105h103v-133
c0 -18 -3 -33.667 -9 -47s-14 -24.5 -24 -33.5s-21.5 -16 -34.5 -21s-26.5 -7.83301 -40.5 -8.5v49z" />
    <glyph glyph-name="dagger" unicode="&#x2020;" horiz-adv-x="370" 
d="M149 486h-102v68h102v126h72v-126h101v-68h-101v-291h-72v291z" />
    <glyph glyph-name="daggerdbl" unicode="&#x2021;" horiz-adv-x="370" 
d="M149 323h-102v68h102v95h-102v68h102v126h72v-126h101v-68h-101v-95h101v-68h-101v-126h-72v126z" />
    <glyph glyph-name="bullet" unicode="&#x2022;" horiz-adv-x="318" 
d="M159 244c-14.667 0 -28.167 2.83301 -40.5 8.5s-23.166 13.167 -32.499 22.5s-16.666 20.5 -21.999 33.5s-8 27.167 -8 42.5c0 14.667 2.66699 28.334 8 41.001s12.666 23.834 21.999 33.501s20.166 17.334 32.499 23.001s25.833 8.5 40.5 8.5
c14 0 27.333 -2.83301 40 -8.5s23.667 -13.334 33 -23.001s16.666 -20.834 21.999 -33.501s8 -26.334 8 -41.001c0 -15.333 -2.66699 -29.5 -8 -42.5s-12.666 -24.167 -21.999 -33.5s-20.333 -16.833 -33 -22.5s-26 -8.5 -40 -8.5z" />
    <glyph glyph-name="ellipsis" unicode="&#x2026;" horiz-adv-x="701" 
d="M539 109h103v-109h-103v109zM59 109h103v-109h-103v109zM299 109h103v-109h-103v109z" />
    <glyph glyph-name="perthousand" unicode="&#x2030;" horiz-adv-x="1161" 
d="M191 361c-22 0 -42.833 4.33301 -62.5 13s-36.667 20.334 -51 35.001s-25.833 32 -34.5 52s-13 41.333 -13 64s4.33301 44.167 13 64.5s20.167 37.833 34.5 52.5s31.333 26.334 51 35.001s40.5 13 62.5 13s42.667 -4.33301 62 -13s36.166 -20.334 50.499 -35.001
s25.833 -32.167 34.5 -52.5s13 -41.833 13 -64.5s-4.33301 -44 -13 -64s-20.167 -37.333 -34.5 -52s-31.166 -26.334 -50.499 -35.001s-40 -13 -62 -13zM596 -9c-22 0 -42.833 4.33301 -62.5 13s-36.667 20.334 -51 35.001s-25.833 32 -34.5 52s-13 41.333 -13 64
s4.33301 44.167 13 64.5s20.167 37.833 34.5 52.5s31.333 26.334 51 35.001s40.5 13 62.5 13s42.667 -4.33301 62 -13s36.166 -20.334 50.499 -35.001s25.833 -32.167 34.5 -52.5s13 -41.833 13 -64.5s-4.33301 -44 -13 -64s-20.167 -37.333 -34.5 -52
s-31.166 -26.334 -50.499 -35.001s-40 -13 -62 -13zM971 -9c-22 0 -42.833 4.33301 -62.5 13s-36.667 20.334 -51 35.001s-25.833 32 -34.5 52s-13 41.333 -13 64s4.33301 44.167 13 64.5s20.167 37.833 34.5 52.5s31.333 26.334 51 35.001s40.5 13 62.5 13
s42.667 -4.33301 62 -13s36.166 -20.334 50.499 -35.001s25.833 -32.167 34.5 -52.5s13 -41.833 13 -64.5s-4.33301 -44 -13 -64s-20.167 -37.333 -34.5 -52s-31.166 -26.334 -50.499 -35.001s-40 -13 -62 -13zM545 680h78l-383 -680h-77zM1058 155
c0 12.667 -2.16797 24.833 -6.50098 36.5s-10.5 22 -18.5 31s-17.333 16 -28 21s-22 7.5 -34 7.5s-23.333 -2.5 -34 -7.5s-20 -12 -28 -21s-14.333 -19.333 -19 -31s-7 -23.834 -7 -36.501c0 -13.333 2.33301 -25.666 7 -36.999s11 -21.333 19 -30s17.333 -15.5 28 -20.5
s22 -7.5 34 -7.5c24.667 0 45.334 9.33301 62.001 28s25 41 25 67zM277.999 524.999c0 12.667 -2.16797 24.833 -6.50098 36.5s-10.5 22 -18.5 31s-17.333 16 -28 21s-22 7.5 -34 7.5s-23.333 -2.5 -34 -7.5s-20 -12 -28 -21s-14.333 -19.333 -19 -31s-7 -23.834 -7 -36.501
c0 -13.333 2.33301 -25.666 7 -36.999s11 -21.333 19 -30s17.333 -15.5 28 -20.5s22 -7.5 34 -7.5c24.667 0 45.334 9.33301 62.001 28s25 41 25 67zM682.998 154.998c0 12.667 -2.16797 24.833 -6.50098 36.5s-10.5 22 -18.5 31s-17.333 16 -28 21s-22 7.5 -34 7.5
s-23.333 -2.5 -34 -7.5s-20 -12 -28 -21s-14.333 -19.333 -19 -31s-7 -23.834 -7 -36.501c0 -13.333 2.33301 -25.666 7 -36.999s11 -21.333 19 -30s17.333 -15.5 28 -20.5s22 -7.5 34 -7.5c24.667 0 45.334 9.33301 62.001 28s25 41 25 67z" />
    <glyph glyph-name="guilsinglleft" unicode="&#x2039;" horiz-adv-x="251" 
d="M30 219v81l186 165v-108l-116 -97l116 -99v-107z" />
    <glyph glyph-name="guilsinglright" unicode="&#x203a;" horiz-adv-x="251" 
d="M35 162l116 97l-116 99v107l186 -165v-81l-186 -165v108z" />
    <glyph glyph-name="fraction" unicode="&#x2044;" horiz-adv-x="300" 
d="M302 680h78l-383 -680h-77z" />
    <glyph glyph-name="fraction" unicode="&#x2215;" horiz-adv-x="300" 
d="M302 680h78l-383 -680h-77z" />
    <glyph glyph-name="Euro" unicode="&#x20ac;" horiz-adv-x="624" 
d="M24 425l83.002 0.00195312c6.66699 45.333 18.5 84.833 35.5 118.5s37.167 61.5 60.5 83.5s49.166 38.5 77.499 49.5s57.5 16.5 87.5 16.5c24.667 0 49 -3.5 73 -10.5s46 -17.833 66 -32.5s37.5 -33 52.5 -55s26.5 -48 34.5 -78h-88c-10 34 -27.333 59 -52 75
s-53.334 24 -86.001 24c-44 0 -81 -16.167 -111 -48.5s-49.667 -79.833 -59 -142.5h302l-21 -56h-287v-26v-27c0 -8.66699 0.666992 -17 2 -25h257l-21 -56h-228c12 -56 32.333 -98.333 61 -127s64 -43 106 -43c35.333 0 64 8.16699 86 24.5s38.667 40.5 50 72.5h90
c-15.333 -58.667 -43.5 -102.334 -84.5 -131.001s-88.167 -43 -141.5 -43c-28.667 0 -56.667 5.16699 -84 15.5s-52.5 25.666 -75.5 45.999s-43.167 46 -60.5 77s-30 67.167 -38 108.5h-87v56h79c-1.33301 8 -2 16.333 -2 25v27v26h-77v56z" />
    <glyph glyph-name="trademark" unicode="&#x2122;" horiz-adv-x="768" 
d="M356 680h74l97 -260l97 260h77v-342h-59v238l-88 -238h-53l-88 238v-238h-57v342zM136 629h-95v51h251v-51h-95v-291h-61v291z" />
    <glyph glyph-name="onethird" unicode="&#x2153;" horiz-adv-x="818" 
d="M638 -7c-24 0 -45 3.49609 -63 10.4961s-33 16.5 -45 28.5s-21.167 26 -27.5 42s-9.83301 33 -10.5 51h67c1.33301 -21.333 8.33301 -38.333 21 -51s32 -19 58 -19c24 0 42.833 6.16699 56.5 18.5s20.5 27.833 20.5 46.5s-5.5 33.834 -16.5 45.501s-31.5 17.5 -61.5 17.5
h-23v59h12c30 0 50.167 5 60.5 15s15.5 23 15.5 39c0 17.333 -5.33301 30.833 -16 40.5s-26 14.5 -46 14.5c-24.667 0 -42.334 -6.83301 -53.001 -20.5s-16.334 -29.167 -17.001 -46.5h-66c0 18 3.16699 34.833 9.5 50.5s15.333 29.167 27 40.5s25.834 20.333 42.501 27
s35.334 10 56.001 10c21.333 0 40.166 -3 56.499 -9s30 -14.167 41 -24.5s19.167 -22.166 24.5 -35.499s8 -27 8 -41c0 -19.333 -4.66699 -36.166 -14 -50.499s-23 -25.5 -41 -33.5c24 -8 41.5 -20.667 52.5 -38s16.5 -37.666 16.5 -60.999c0 -16 -3.16699 -31.667 -9.5 -47
s-15.666 -28.833 -27.999 -40.5s-27.5 -21 -45.5 -28s-38.667 -10.5 -62 -10.5zM515 679.996h78l-383 -680h-77zM101 572.996l-65 0.000976562v46c20 0.666992 37.333 5.66699 52 15s22.667 24.666 24 45.999h57v-408h-68v301z" />
    <glyph glyph-name="twothirds" unicode="&#x2154;" horiz-adv-x="921" 
d="M35 303c0 22.667 3.50098 42.499 10.501 59.499s16.167 32.167 27.5 45.5s24.5 25 39.5 35s30.5 19.333 46.5 28c19.333 10.667 34.666 20 45.999 28s20 15.5 26 22.5s10 14 12 21s3 14.5 3 22.5c0 14.667 -4.66699 28 -14 40s-26.333 18 -51 18
c-23.333 0 -41.166 -7.5 -53.499 -22.5s-18.833 -34.167 -19.5 -57.5h-67c0 18.667 3 36.5 9 53.5s14.833 32 26.5 45s26.167 23.333 43.5 31s37.666 11.5 60.999 11.5c22 0 41.5 -3.33301 58.5 -10s31 -15.5 42 -26.5s19.333 -23.667 25 -38s8.5 -29.166 8.5 -44.499
c0 -19.333 -3 -36 -9 -50s-14.5 -26.5 -25.5 -37.5s-24.167 -21.167 -39.5 -30.5l-50 -29c-24 -13.333 -43.5 -26.5 -58.5 -39.5s-23.167 -27.5 -24.5 -43.5h204v-63h-277v31zM741.001 -7.00098c-24 0 -45 3.49609 -63 10.4961s-33 16.5 -45 28.5s-21.167 26 -27.5 42
s-9.83301 33 -10.5 51h67c1.33301 -21.333 8.33301 -38.333 21 -51s32 -19 58 -19c24 0 42.833 6.16699 56.5 18.5s20.5 27.833 20.5 46.5s-5.5 33.834 -16.5 45.501s-31.5 17.5 -61.5 17.5h-23v59h12c30 0 50.167 5 60.5 15s15.5 23 15.5 39
c0 17.333 -5.33301 30.833 -16 40.5s-26 14.5 -46 14.5c-24.667 0 -42.334 -6.83301 -53.001 -20.5s-16.334 -29.167 -17.001 -46.5h-66c0 18 3.16699 34.833 9.5 50.5s15.333 29.167 27 40.5s25.834 20.333 42.501 27s35.334 10 56.001 10c21.333 0 40.166 -3 56.499 -9
s30 -14.167 41 -24.5s19.167 -22.166 24.5 -35.499s8 -27 8 -41c0 -19.333 -4.66699 -36.166 -14 -50.499s-23 -25.5 -41 -33.5c24 -8 41.5 -20.667 52.5 -38s16.5 -37.666 16.5 -60.999c0 -16 -3.16699 -31.667 -9.5 -47s-15.666 -28.833 -27.999 -40.5
s-27.5 -21 -45.5 -28s-38.667 -10.5 -62 -10.5zM618.001 679.995h78l-383 -680h-77z" />
    <glyph glyph-name="oneeighth" unicode="&#x215b;" horiz-adv-x="823" 
d="M642 -7c-21.333 0 -40.832 3.16992 -58.499 9.50293s-33 15.166 -46 26.499s-23 24.5 -30 39.5s-10.5 31.5 -10.5 49.5c0 23.333 6 43.666 18 60.999s28 31.666 48 42.999c-15.333 9.33301 -27.166 21.166 -35.499 35.499s-12.5 30.833 -12.5 49.5
c0 15.333 3.16699 29.5 9.5 42.5s15.166 24.333 26.499 34s24.833 17.334 40.5 23.001s32.5 8.5 50.5 8.5c37.333 0 67.666 -10.333 90.999 -31s35 -46.334 35 -77.001c0 -37.333 -15.667 -65.666 -47 -84.999c21.333 -10.667 37.833 -24.834 49.5 -42.501
s17.5 -38.167 17.5 -61.5c0 -18 -3.5 -34.5 -10.5 -49.5s-17 -28.167 -30 -39.5s-28.5 -20.166 -46.5 -26.499s-37.667 -9.5 -59 -9.5zM515.001 680.003h78l-383 -680h-77zM101.001 573.003l-65 0.000976562v46c20 0.666992 37.333 5.66699 52 15s22.667 24.666 24 45.999
h57v-408h-68v301zM642.001 52.0039c20.667 0 39 5.5 55 16.5s24 28.167 24 51.5c0 22 -7.5 39 -22.5 51s-33.833 18 -56.5 18c-22 0 -40.5 -6 -55.5 -18s-22.5 -29 -22.5 -51c0 -23.333 8 -40.5 24 -51.5s34 -16.5 54 -16.5zM642.001 248.004c16 0 30.167 4.66699 42.5 14
s18.5 23 18.5 41c0 17.333 -5.83301 30.5 -17.5 39.5s-26.167 13.5 -43.5 13.5s-31.833 -4.5 -43.5 -13.5s-17.5 -22.167 -17.5 -39.5c0 -18 6.16699 -31.667 18.5 -41s26.5 -14 42.5 -14z" />
    <glyph glyph-name="threeeighths" unicode="&#x215c;" horiz-adv-x="925" 
d="M744 -7c-21.333 0 -40.832 3.16992 -58.499 9.50293s-33 15.166 -46 26.499s-23 24.5 -30 39.5s-10.5 31.5 -10.5 49.5c0 23.333 6 43.666 18 60.999s28 31.666 48 42.999c-15.333 9.33301 -27.166 21.166 -35.499 35.499s-12.5 30.833 -12.5 49.5
c0 15.333 3.16699 29.5 9.5 42.5s15.166 24.333 26.499 34s24.833 17.334 40.5 23.001s32.5 8.5 50.5 8.5c37.333 0 67.666 -10.333 90.999 -31s35 -46.334 35 -77.001c0 -37.333 -15.667 -65.666 -47 -84.999c21.333 -10.667 37.833 -24.834 49.5 -42.501
s17.5 -38.167 17.5 -61.5c0 -18 -3.5 -34.5 -10.5 -49.5s-17 -28.167 -30 -39.5s-28.5 -20.166 -46.5 -26.499s-37.667 -9.5 -59 -9.5zM176.001 265.003c-24 0 -45 3.49609 -63 10.4961s-33 16.5 -45 28.5s-21.167 26 -27.5 42s-9.83301 33 -10.5 51h67
c1.33301 -21.333 8.33301 -38.333 21 -51s32 -19 58 -19c24 0 42.833 6.16699 56.5 18.5s20.5 27.833 20.5 46.5s-5.5 33.834 -16.5 45.501s-31.5 17.5 -61.5 17.5h-23v59h12c30 0 50.167 5 60.5 15s15.5 23 15.5 39c0 17.333 -5.33301 30.833 -16 40.5s-26 14.5 -46 14.5
c-24.667 0 -42.334 -6.83301 -53.001 -20.5s-16.334 -29.167 -17.001 -46.5h-66c0 18 3.16699 34.833 9.5 50.5s15.333 29.167 27 40.5s25.834 20.333 42.501 27s35.334 10 56.001 10c21.333 0 40.166 -3 56.499 -9s30 -14.167 41 -24.5s19.167 -22.166 24.5 -35.499
s8 -27 8 -41c0 -19.333 -4.66699 -36.166 -14 -50.499s-23 -25.5 -41 -33.5c24 -8 41.5 -20.667 52.5 -38s16.5 -37.666 16.5 -60.999c0 -16 -3.16699 -31.667 -9.5 -47s-15.666 -28.833 -27.999 -40.5s-27.5 -21 -45.5 -28s-38.667 -10.5 -62 -10.5zM617.001 679.999h78
l-383 -680h-77zM744.001 51.999c20.667 0 39 5.5 55 16.5s24 28.167 24 51.5c0 22 -7.5 39 -22.5 51s-33.833 18 -56.5 18c-22 0 -40.5 -6 -55.5 -18s-22.5 -29 -22.5 -51c0 -23.333 8 -40.5 24 -51.5s34 -16.5 54 -16.5zM744.001 247.999c16 0 30.167 4.66699 42.5 14
s18.5 23 18.5 41c0 17.333 -5.83301 30.5 -17.5 39.5s-26.167 13.5 -43.5 13.5s-31.833 -4.5 -43.5 -13.5s-17.5 -22.167 -17.5 -39.5c0 -18 6.16699 -31.667 18.5 -41s26.5 -14 42.5 -14z" />
    <glyph glyph-name="fiveeighths" unicode="&#x215d;" horiz-adv-x="919" 
d="M738 -7c-21.333 0 -40.832 3.16992 -58.499 9.50293s-33 15.166 -46 26.499s-23 24.5 -30 39.5s-10.5 31.5 -10.5 49.5c0 23.333 6 43.666 18 60.999s28 31.666 48 42.999c-15.333 9.33301 -27.166 21.166 -35.499 35.499s-12.5 30.833 -12.5 49.5
c0 15.333 3.16699 29.5 9.5 42.5s15.166 24.333 26.499 34s24.833 17.334 40.5 23.001s32.5 8.5 50.5 8.5c37.333 0 67.666 -10.333 90.999 -31s35 -46.334 35 -77.001c0 -37.333 -15.667 -65.666 -47 -84.999c21.333 -10.667 37.833 -24.834 49.5 -42.501
s17.5 -38.167 17.5 -61.5c0 -18 -3.5 -34.5 -10.5 -49.5s-17 -28.167 -30 -39.5s-28.5 -20.166 -46.5 -26.499s-37.667 -9.5 -59 -9.5zM174.001 265.003c-21.333 0 -40.334 3.16797 -57.001 9.50098s-31.167 14.666 -43.5 24.999s-22 22.666 -29 36.999
s-10.833 29.5 -11.5 45.5h67c2.66699 -15.333 10.334 -28.166 23.001 -38.499s29.667 -15.5 51 -15.5c20 0 37.167 6.66699 51.5 20s21.5 32.333 21.5 57c0 23.333 -6.66699 42.333 -20 57s-30.666 22 -51.999 22c-30 0 -53.333 -13.667 -70 -41l-59 19l25 218h220v-62h-167
l-13 -101c9.33301 7.33301 20.166 13.5 32.499 18.5s25.166 7.5 38.499 7.5c18.667 0 36.167 -3.5 52.5 -10.5s30.5 -16.667 42.5 -29s21.333 -27 28 -44s10 -35.5 10 -55.5c0 -20.667 -3.66699 -39.5 -11 -56.5s-17.333 -31.667 -30 -44s-27.667 -21.833 -45 -28.5
s-35.666 -10 -54.999 -10zM611 680.004h78l-383 -680h-77zM738 52.0039c20.667 0 39 5.5 55 16.5s24 28.167 24 51.5c0 22 -7.5 39 -22.5 51s-33.833 18 -56.5 18c-22 0 -40.5 -6 -55.5 -18s-22.5 -29 -22.5 -51c0 -23.333 8 -40.5 24 -51.5s34 -16.5 54 -16.5zM738 248.004
c16 0 30.167 4.66699 42.5 14s18.5 23 18.5 41c0 17.333 -5.83301 30.5 -17.5 39.5s-26.167 13.5 -43.5 13.5s-31.833 -4.5 -43.5 -13.5s-17.5 -22.167 -17.5 -39.5c0 -18 6.16699 -31.667 18.5 -41s26.5 -14 42.5 -14z" />
    <glyph glyph-name="seveneighths" unicode="&#x215e;" horiz-adv-x="848" 
d="M667 -7c-21.333 0 -40.832 3.16992 -58.499 9.50293s-33 15.166 -46 26.499s-23 24.5 -30 39.5s-10.5 31.5 -10.5 49.5c0 23.333 6 43.666 18 60.999s28 31.666 48 42.999c-15.333 9.33301 -27.166 21.166 -35.499 35.499s-12.5 30.833 -12.5 49.5
c0 15.333 3.16699 29.5 9.5 42.5s15.166 24.333 26.499 34s24.833 17.334 40.5 23.001s32.5 8.5 50.5 8.5c37.333 0 67.666 -10.333 90.999 -31s35 -46.334 35 -77.001c0 -37.333 -15.667 -65.666 -47 -84.999c21.333 -10.667 37.833 -24.834 49.5 -42.501
s17.5 -38.167 17.5 -61.5c0 -18 -3.5 -34.5 -10.5 -49.5s-17 -28.167 -30 -39.5s-28.5 -20.166 -46.5 -26.499s-37.667 -9.5 -59 -9.5zM540.001 680.003h78l-383 -680h-77zM89.001 272.003c1.33301 68.667 12.667 133.501 34 194.501s53 111.5 95 151.5h-192v62h275v-58
c-47.333 -39.333 -82.833 -89.333 -106.5 -150s-36.167 -127.334 -37.5 -200.001h-68zM667.002 52.0039c20.667 0 39 5.5 55 16.5s24 28.167 24 51.5c0 22 -7.5 39 -22.5 51s-33.833 18 -56.5 18c-22 0 -40.5 -6 -55.5 -18s-22.5 -29 -22.5 -51c0 -23.333 8 -40.5 24 -51.5
s34 -16.5 54 -16.5zM667.002 248.004c16 0 30.167 4.66699 42.5 14s18.5 23 18.5 41c0 17.333 -5.83301 30.5 -17.5 39.5s-26.167 13.5 -43.5 13.5s-31.833 -4.5 -43.5 -13.5s-17.5 -22.167 -17.5 -39.5c0 -18 6.16699 -31.667 18.5 -41s26.5 -14 42.5 -14z" />
    <glyph glyph-name="partialdiff" unicode="&#x2202;" horiz-adv-x="231" 
d="M64 391h103v-109h-103v109z" />
    <glyph glyph-name="product" unicode="&#x220f;" horiz-adv-x="231" 
d="M64 391h103v-109h-103v109z" />
    <glyph glyph-name="summation" unicode="&#x2211;" horiz-adv-x="231" 
d="M64 391h103v-109h-103v109z" />
    <glyph glyph-name="minus" unicode="&#x2212;" horiz-adv-x="468" 
d="M46 337h376v-72h-376v72z" />
    <glyph glyph-name="radical" unicode="&#x221a;" horiz-adv-x="231" 
d="M64 391h103v-109h-103v109z" />
    <glyph glyph-name="infinity" unicode="&#x221e;" horiz-adv-x="231" 
d="M64 391h103v-109h-103v109z" />
    <glyph glyph-name="integral" unicode="&#x222b;" horiz-adv-x="231" 
d="M64 391h103v-109h-103v109z" />
    <glyph glyph-name="approxequal" unicode="&#x2248;" horiz-adv-x="231" 
d="M64 391h103v-109h-103v109z" />
    <glyph glyph-name="notequal" unicode="&#x2260;" horiz-adv-x="231" 
d="M64 391h103v-109h-103v109z" />
    <glyph glyph-name="lessequal" unicode="&#x2264;" horiz-adv-x="231" 
d="M64 391h103v-109h-103v109z" />
    <glyph glyph-name="greaterequal" unicode="&#x2265;" horiz-adv-x="231" 
d="M64 391h103v-109h-103v109z" />
    <glyph glyph-name="lozenge" unicode="&#x25ca;" horiz-adv-x="208" 
d="M71 391h103v-109h-103v109z" />
    <glyph glyph-name="commaaccent" unicode="&#xf004;" horiz-adv-x="500" 
d="M198 -239c16 1.33301 28.834 7.00195 38.501 17.002s14.5 24.667 14.5 44v15h-52v105h103v-120c0 -18 -2.83301 -33.5 -8.5 -46.5s-13.334 -23.833 -23.001 -32.5s-20.667 -15.334 -33 -20.001s-25.5 -7.33398 -39.5 -8.00098v46z" />
    <glyph glyph-name="commaaccent" unicode="&#xf6c3;" horiz-adv-x="500" 
d="M198 -239c16 1.33301 28.834 7.00195 38.501 17.002s14.5 24.667 14.5 44v15h-52v105h103v-120c0 -18 -2.83301 -33.5 -8.5 -46.5s-13.334 -23.833 -23.001 -32.5s-20.667 -15.334 -33 -20.001s-25.5 -7.33398 -39.5 -8.00098v46z" />
    <glyph glyph-name="dotlessj" unicode="&#xf6be;" horiz-adv-x="240" 
d="M-14 -135h16.001c25.333 0 44.5 6 57.5 18s19.5 32.667 19.5 62v570h82v-571c0 -50 -14.333 -88 -43 -114s-67.334 -39 -116.001 -39h-16v74z" />
    <glyph glyph-name="dotlessj" unicode="&#xfb0f;" horiz-adv-x="240" 
d="M-14 -135h16.001c25.333 0 44.5 6 57.5 18s19.5 32.667 19.5 62v570h82v-571c0 -50 -14.333 -88 -43 -114s-67.334 -39 -116.001 -39h-16v74z" />
    <glyph glyph-name=".null" horiz-adv-x="0" 
 />
    <glyph glyph-name="nonmarkingreturn" horiz-adv-x="295" 
 />
    <glyph glyph-name="slash.cap" horiz-adv-x="351" 
d="M255 740h82l-242 -800h-82z" />
    <glyph glyph-name="backslash.cap" horiz-adv-x="351" 
d="M14 740h82l242 -800h-82z" />
    <glyph glyph-name="parenleft.cap" horiz-adv-x="319" 
d="M214 -80c-46.667 52 -83.5 113.501 -110.5 184.501s-40.5 146.5 -40.5 226.5c0 79.333 13.5 152.5 40.5 219.5s63.833 126.833 110.5 179.5h73c-20.667 -31.333 -39.167 -62.333 -55.5 -93s-30.166 -62.167 -41.499 -94.5s-20 -65.833 -26 -100.5s-9 -71.667 -9 -111
c0 -78.667 11.667 -151.334 35 -218.001s55.666 -131 96.999 -193h-73v0z" />
    <glyph glyph-name="parenright.cap" horiz-adv-x="319" 
d="M32 -80c20.667 30.667 39.167 61.499 55.5 92.499s30.166 62.667 41.499 95s20 65.833 26 100.5s9 71.667 9 111c0 78.667 -11.667 151.334 -35 218.001s-55.666 131 -96.999 193h73c46.667 -52 83.5 -113.5 110.5 -184.5s40.5 -146.5 40.5 -226.5
c0 -79.333 -13.5 -152.5 -40.5 -219.5s-63.833 -126.833 -110.5 -179.5h-73v0z" />
    <glyph glyph-name="bracketleft.cap" horiz-adv-x="323" 
d="M82 720h209v-73h-123v-644h123v-73h-209v790z" />
    <glyph glyph-name="bracketright.cap" horiz-adv-x="323" 
d="M32 3h123v644h-123v73h209v-790h-209v73z" />
    <glyph glyph-name="braceleft.cap" horiz-adv-x="345" 
d="M321 -70c-24 -2 -47.334 -0.668945 -70.001 3.99805s-42.667 13.167 -60 25.5s-31.333 29 -42 50s-16 47.167 -16 78.5v122c0 34 -9 56.5 -27 67.5s-42 16.5 -72 16.5v70c30 0 54 5.5 72 16.5s27 33.5 27 67.5v113c0 31.333 5.33301 57.5 16 78.5s24.667 37.667 42 50
s37.333 20.833 60 25.5s46 6 70 4v-73c-35.333 1.33301 -61.166 -5 -77.499 -19s-24.5 -36 -24.5 -66v-110c0 -33.333 -6.66699 -59.666 -20 -78.999s-34 -33.333 -62 -42c28 -9.33301 48.667 -23.666 62 -42.999s20 -46 20 -80v-119c0 -30 8 -52 24 -66s42 -20.333 78 -19
v-73v0z" />
    </font>
</defs>
</svg>
